<svg width="86" height="86" viewBox="0 0 86 86" fill="none" xmlns="http://www.w3.org/2000/svg">
<path d="M30.7347 69.5097C30.7347 77.0492 22.0164 81.2026 16.13 76.4914C6.29731 68.6216 0 56.5186 0 42.945C0 23.8875 12.4136 7.72927 29.5958 2.11522C30.1575 1.93169 30.7345 2.3541 30.7345 2.94493L30.7347 69.5097Z" fill="#00429C"/>
<path d="M15.9238 41.6798H30.7347V82.8968C30.7347 83.5116 30.1339 83.9513 29.5496 83.7595C24.5377 82.1155 19.9323 79.5742 15.9238 76.3254V41.6798Z" fill="#003278"/>
<path d="M85.8899 42.945C85.8899 52.8244 82.5539 61.9247 76.9469 69.1807C76.8542 69.3007 76.4219 69.3634 76.3279 69.4823C75.8587 70.0765 75.3741 70.6581 74.8747 71.2263C74.7527 71.365 74.969 71.56 74.8451 71.697C66.9852 80.412 55.6048 85.89 42.9449 85.89C38.261 85.89 33.7525 85.1401 29.5325 83.754V2.13601C33.7525 0.74986 38.261 0 42.9449 0C66.6628 0 85.8899 19.2271 85.8899 42.945Z" fill="#0396FD"/>
<path d="M45.2151 44.437C45.2151 45.2515 44.9829 46.0117 44.5811 46.6551C44.5449 46.7131 44.4956 46.7624 44.4375 46.7986C43.7942 47.2004 43.0339 47.4326 42.2195 47.4326C39.9139 47.4326 38.0256 45.5444 38.0256 43.2387C38.0256 42.4324 38.2531 41.6793 38.6477 41.04C38.6916 40.9689 38.7513 40.909 38.8225 40.8652C39.4618 40.4708 40.215 40.2432 41.0212 40.2432C43.3268 40.2432 45.2151 42.1314 45.2151 44.437Z" fill="#64DCFC"/>
<path d="M44.6026 46.6203C43.866 47.826 42.5376 48.6307 41.0212 48.6307C38.7051 48.6307 36.8274 46.753 36.8274 44.4368C36.8274 42.9205 37.6321 41.5921 38.8378 40.8555C38.4492 41.4914 38.2253 42.2389 38.2253 43.039C38.2253 45.3551 40.103 47.2328 42.4191 47.2328C43.219 47.233 43.9665 47.009 44.6026 46.6203Z" fill="#00D1FC"/>
<path d="M45.2151 58.6961C45.2151 59.5106 44.9829 60.2708 44.5811 60.9141C44.5449 60.9722 44.4956 61.0215 44.4375 61.0577C43.7942 61.4595 43.0339 61.6917 42.2195 61.6917C39.9139 61.6917 38.0256 59.8034 38.0256 57.4978C38.0256 56.6914 38.2531 55.9384 38.6477 55.2991C38.6916 55.228 38.7513 55.1681 38.8225 55.1243C39.4618 54.7299 40.215 54.5023 41.0212 54.5023C43.3268 54.5023 45.2151 56.3905 45.2151 58.6961Z" fill="#FFC143"/>
<path d="M44.6026 60.8794C43.866 62.0851 42.5376 62.8898 41.0212 62.8898C38.7051 62.8898 36.8274 61.0121 36.8274 58.6959C36.8274 57.1796 37.6321 55.8512 38.8378 55.1145C38.4492 55.7505 38.2253 56.498 38.2253 57.298C38.2253 59.6142 40.103 61.4919 42.4191 61.4919C43.219 61.492 43.9665 61.2681 44.6026 60.8794Z" fill="#FFAA00"/>
<path d="M45.2151 72.9552C45.2151 73.7696 44.9829 74.5299 44.5811 75.1732C44.5449 75.2313 44.4956 75.2806 44.4375 75.3168C43.7942 75.7186 43.0339 75.9508 42.2195 75.9508C39.9139 75.9508 38.0256 74.0625 38.0256 71.7569C38.0256 70.9505 38.2531 70.1975 38.6477 69.5582C38.6916 69.487 38.7513 69.4271 38.8225 69.3834C39.4618 68.989 40.215 68.7613 41.0212 68.7613C43.3268 68.7613 45.2151 70.6496 45.2151 72.9552Z" fill="#FF5757"/>
<path d="M44.6026 75.1385C43.866 76.3441 42.5376 77.1489 41.0212 77.1489C38.7051 77.1489 36.8274 75.2712 36.8274 72.955C36.8274 71.4387 37.6321 70.1102 38.8378 69.3736C38.4492 70.0096 38.2253 70.7571 38.2253 71.5571C38.2253 73.8733 40.103 75.751 42.4191 75.751C43.219 75.7511 43.9665 75.5272 44.6026 75.1385Z" fill="#FF4343"/>
<path d="M48.5701 41.9207C48.5701 41.2259 49.1334 40.6626 49.8282 40.6626H79.1852C79.88 40.6626 80.4433 41.2259 80.4433 41.9207C80.4433 42.6155 79.88 43.1789 79.1852 43.1789H49.8282C49.1334 43.1789 48.5701 42.6155 48.5701 41.9207ZM49.8282 47.7921H65.7648C66.4597 47.7921 67.023 47.2288 67.023 46.5339C67.023 45.8391 66.4597 45.2758 65.7648 45.2758H49.8282C49.1334 45.2758 48.5701 45.8391 48.5701 46.5339C48.5701 47.2288 49.1334 47.7921 49.8282 47.7921ZM79.1852 54.9216H49.8282C49.1334 54.9216 48.5701 55.485 48.5701 56.1798C48.5701 56.8746 49.1334 57.4379 49.8282 57.4379H79.1852C79.88 57.4379 80.4433 56.8746 80.4433 56.1798C80.4433 55.485 79.88 54.9216 79.1852 54.9216ZM49.8282 62.0512H65.7648C66.4597 62.0512 67.023 61.4879 67.023 60.793C67.023 60.0982 66.4597 59.5349 65.7648 59.5349H49.8282C49.1334 59.5349 48.5701 60.0982 48.5701 60.793C48.5701 61.4879 49.1334 62.0512 49.8282 62.0512ZM48.5701 70.4389C48.5701 71.1337 49.1334 71.697 49.8282 71.697H74.8452C75.5769 70.8858 76.2781 70.0463 76.947 69.1807H49.8282C49.1334 69.1807 48.5701 69.7439 48.5701 70.4389ZM65.7648 73.7939H49.8282C49.1334 73.7939 48.5701 74.3573 48.5701 75.0521C48.5701 75.7469 49.1334 76.3103 49.8282 76.3103H65.7648C66.4597 76.3103 67.023 75.7469 67.023 75.0521C67.023 74.3573 66.4597 73.7939 65.7648 73.7939Z" fill="#83BFFF"/>
<path d="M50.849 12.4138V32.5443C50.849 33.9339 49.7223 35.0606 48.3327 35.0606H17.6979C16.3083 35.0606 15.1816 33.9339 15.1816 32.5443V12.4138C15.1816 11.0241 16.3083 9.89748 17.6979 9.89748H48.3327C49.7223 9.89748 50.849 11.0241 50.849 12.4138Z" fill="#A8D3D8"/>
<path d="M82.2835 12.4138V32.5443C82.2835 33.9339 81.1568 35.0606 79.7671 35.0606H47.6689C40.7204 35.0606 35.0874 29.4276 35.0874 22.479C35.0874 15.5305 40.7204 9.89748 47.6689 9.89748H79.7671C81.1568 9.89748 82.2835 11.0241 82.2835 12.4138Z" fill="#DEECF1"/>
<path d="M8 32.8454C5.29077 30.2225 3.60669 26.5476 3.60669 22.479C3.60669 14.5112 10.0659 8.05219 18.0335 8.05219C26.0012 8.05219 32.4604 14.5112 32.4604 22.479C32.4604 26.5476 30.7763 30.2225 28.0671 32.8454C28.012 32.8987 8.05502 32.8987 8 32.8454Z" fill="#FFC143"/>
<path d="M8.00013 32.8454C5.29091 30.2227 3.52295 26.5476 3.52295 22.479C3.52295 14.5112 9.66207 8.03256 18.0337 8.03256C18.8531 8.03256 19.6567 8.12063 20.4389 8.25182C13.616 9.3969 8.41717 15.3309 8.41717 22.479C8.41717 26.5476 10.1013 30.2227 12.8105 32.8454C12.8335 32.8677 8.03217 32.8762 8.00013 32.8454Z" fill="#FFAA00"/>
<path d="M17.718 29.1643C15.279 29.1643 13.3017 31.1417 13.3017 33.5806V34.2C13.3017 35.1516 12.294 35.7534 11.4477 35.3182C10.1774 34.6653 9.01659 33.8294 8 32.8454C8.3501 30.7562 10.1669 29.1643 12.3554 29.1643H17.718Z" fill="#D9E7EC"/>
<path d="M28.0671 32.8454C25.4707 35.3588 21.9326 36.9058 18.0335 36.9058C15.6397 36.9058 13.3822 36.3227 11.395 35.291V33.5806C11.395 31.1415 13.3723 29.1643 15.8113 29.1643H23.7115C25.9002 29.1643 27.717 30.7562 28.0671 32.8454Z" fill="#FFF5F5"/>
<path d="M26.5508 21.2779V21.9088C26.5508 22.78 25.8445 23.486 24.9735 23.486C24.8179 23.486 24.6674 23.4634 24.5253 23.4213C23.7523 25.4612 22.0452 27.0419 19.9263 27.6411V29.7951C19.9263 30.8404 19.0788 31.6879 18.0336 31.6879C16.9883 31.6879 16.1408 30.8405 16.1408 29.7951V27.6411C14.0219 27.0419 12.3148 25.4612 11.5418 23.4213C11.3997 23.4634 11.2493 23.486 11.0936 23.486C10.2224 23.486 9.51636 22.78 9.51636 21.9088V21.2779C9.51636 20.4069 10.2226 19.7007 11.0936 19.7007V18.439C11.0936 14.6062 14.2007 11.499 18.0336 11.499C21.8664 11.499 24.9735 14.6062 24.9735 18.439V19.7007C25.8447 19.7007 26.5508 20.4068 26.5508 21.2779Z" fill="#883F2E"/>
<path d="M24.9735 18.4388V20.9624C24.9735 24.0861 22.9096 26.7277 20.0712 27.5984C17.2328 26.7277 15.1689 24.0861 15.1689 20.9624V18.4388C15.1689 15.3151 17.2328 12.6735 20.0712 11.803C22.9096 12.6735 24.9735 15.3151 24.9735 18.4388Z" fill="#A44F3E"/>
<path d="M16.5216 20.604C16.5216 21.0813 16.1347 21.4681 15.6575 21.4681H14.7935C14.3163 21.4681 13.9294 21.0813 13.9294 20.604C13.9294 20.127 14.3163 19.7401 14.7935 19.7401H15.6575C16.1346 19.7401 16.5216 20.127 16.5216 20.604ZM21.2737 19.7401H20.4098C19.9325 19.7401 19.5457 20.127 19.5457 20.604C19.5457 21.0813 19.9325 21.4681 20.4098 21.4681H21.2737C21.751 21.4681 22.1378 21.0813 22.1378 20.604C22.1376 20.127 21.7508 19.7401 21.2737 19.7401Z" fill="#55271A"/>
<path d="M19.3297 23.7147V23.8011C19.3297 24.5169 18.7494 25.0972 18.0336 25.0972C17.3178 25.0972 16.7375 24.5169 16.7375 23.8011V23.7147C16.7375 23.5238 16.8924 23.369 17.0831 23.369H18.9839C19.1748 23.369 19.3297 23.5238 19.3297 23.7147Z" fill="#FFF5F5"/>
<path d="M19.7643 11.567C22.1064 12.1868 21.8978 15.3866 19.4787 15.5147C19.0569 15.537 18.4659 15.5583 18.0333 15.5583C17.3824 15.5583 16.906 15.5226 16.2809 15.4726C16.1551 15.4625 15.8666 15.6754 15.7419 15.6633C14.42 15.5362 13.1679 15.3008 12.0183 14.9751C13.0331 12.6814 15.4621 11.3393 18.0335 11.3393C18.6228 11.3395 19.2049 11.4188 19.7643 11.567Z" fill="#55271A"/>
<path d="M19.7117 11.5534C21.6161 12.0414 23.2648 13.324 24.0487 14.9752C22.2522 15.4842 20.2054 15.7724 18.0335 15.7724C17.2516 15.7724 16.4858 15.735 15.7422 15.6635C16.3486 13.7298 17.842 12.236 19.7117 11.5534Z" fill="#6D3326"/>
<path d="M39.3384 15.7689C39.3384 14.8424 40.0894 14.0913 41.0159 14.0913H74.5667C75.4932 14.0913 76.2442 14.8424 76.2442 15.7689C76.2442 16.6954 75.4932 17.4464 74.5667 17.4464H41.0159C40.0894 17.4464 39.3384 16.6954 39.3384 15.7689ZM74.5667 20.8015H41.0159C40.0894 20.8015 39.3384 21.5525 39.3384 22.479C39.3384 23.4055 40.0894 24.1566 41.0159 24.1566H74.5667C75.4932 24.1566 76.2442 23.4055 76.2442 22.479C76.2442 21.5525 75.4932 20.8015 74.5667 20.8015ZM74.5667 27.5116H41.0159C40.0894 27.5116 39.3384 28.2627 39.3384 29.1892C39.3384 30.1157 40.0894 30.8667 41.0159 30.8667H74.5667C75.4932 30.8667 76.2442 30.1157 76.2442 29.1892C76.2442 28.2627 75.4932 27.5116 74.5667 27.5116Z" fill="#A8D3D8"/>
<path d="M61.1464 15.7689C61.1464 16.6954 60.3954 17.4464 59.4688 17.4464H41.0159C40.0894 17.4464 39.3384 16.6954 39.3384 15.7689C39.3384 14.8424 40.0894 14.0913 41.0159 14.0913H59.4688C60.3954 14.0913 61.1464 14.8424 61.1464 15.7689Z" fill="#FF5757"/>
<path d="M51.2489 22.479C51.2489 23.4055 50.4979 24.1566 49.5714 24.1566H39.5062C38.5796 24.1566 37.8286 23.4055 37.8286 22.479C37.8286 21.5525 38.5796 20.8015 39.5062 20.8015H49.5714C50.4979 20.8015 51.2489 21.5525 51.2489 22.479Z" fill="#00429C"/>
<path d="M62.9917 29.1892C62.9917 30.1157 62.2407 30.8667 61.3142 30.8667H39.5062C38.5796 30.8667 37.8286 30.1157 37.8286 29.1892C37.8286 28.2627 38.5796 27.5116 39.5062 27.5116H61.3142C62.2407 27.5116 62.9917 28.2627 62.9917 29.1892Z" fill="#FFC143"/>
</svg>
