<svg width="212" height="244" viewBox="0 0 212 244" fill="none" xmlns="http://www.w3.org/2000/svg">
<path d="M90.662 129.843C94.6172 133.796 94.6172 140.206 90.662 144.159C86.7067 148.112 80.2928 148.112 76.3375 144.159C72.3823 140.206 72.3823 133.796 76.3375 129.843C80.2928 125.89 86.7067 125.89 90.662 129.843Z" fill="#6EE8FC"/>
<path opacity="0.5" d="M83.5183 147.124C86.1039 147.119 88.6895 146.132 90.6618 144.159C94.617 140.206 94.617 133.796 90.6618 129.843C87.9242 127.107 84.0101 126.267 80.5483 127.318C80.5465 127.527 80.5322 127.732 80.5322 127.941C80.5322 134.632 81.5854 141.075 83.5183 147.124Z" fill="#161242"/>
<path d="M83.5073 115.082C85.5493 117.123 85.5493 120.429 83.5073 122.469C81.4671 124.508 78.1573 124.508 76.1171 122.469C74.0769 120.43 74.0769 117.123 76.1171 115.082C78.1555 113.041 81.4653 113.041 83.5073 115.082Z" fill="#6EE8FC"/>
<path opacity="0.5" d="M83.5256 115.082C85.5658 117.123 85.5658 120.429 83.5256 122.469C81.4835 124.508 78.1756 124.508 76.1336 122.469C74.0915 120.43 74.0915 117.123 76.1336 115.082C78.1756 113.041 81.4835 113.041 83.5256 115.082Z" fill="#161242"/>
<path d="M64.8616 113.663C66.1633 114.964 66.1633 117.072 64.8616 118.372C63.5599 119.673 61.4499 119.673 60.1482 118.372C58.8464 117.071 58.8464 114.962 60.1482 113.663C61.4499 112.364 63.5599 112.364 64.8616 113.663Z" fill="#6EE8FC"/>
<path d="M148.538 184.525C183.351 184.525 211.572 156.32 211.572 121.528C211.572 86.735 183.351 58.53 148.538 58.53C113.726 58.53 85.5044 86.735 85.5044 121.528C85.5044 156.32 113.726 184.525 148.538 184.525Z" fill="url(#paint0_linear_31_12716)"/>
<path opacity="0.6" d="M148.538 238.171C167.525 238.171 182.916 229.29 182.916 218.335C182.916 207.38 167.525 198.498 148.538 198.498C129.552 198.498 114.16 207.38 114.16 218.335C114.16 229.29 129.552 238.171 148.538 238.171Z" fill="#0C0F38"/>
<path d="M148.539 243.543C137.533 243.543 126.525 241.125 118.145 236.29C109.889 231.525 105.342 225.149 105.342 218.333C105.342 211.519 109.887 205.141 118.143 200.377C134.901 190.705 162.171 190.707 178.931 200.378C187.187 205.143 191.732 211.517 191.732 218.335C191.732 225.151 187.187 231.525 178.931 236.29C170.552 241.125 159.546 243.543 148.539 243.543ZM148.537 194.551C137.79 194.551 127.047 196.91 118.867 201.631C111.078 206.126 106.79 212.057 106.79 218.335C106.79 224.613 111.08 230.544 118.869 235.039C135.232 244.48 161.851 244.48 178.21 235.039C186.001 230.544 190.289 224.613 190.289 218.337C190.289 212.059 186.001 206.127 178.21 201.633C170.028 196.913 159.281 194.551 148.537 194.551Z" fill="url(#paint1_linear_31_12716)"/>
<path d="M87.4465 122.786C87.4465 87.9932 115.668 59.788 150.481 59.788C162.954 59.788 174.548 63.4568 184.335 69.7044C174.164 62.6741 161.842 58.5316 148.539 58.5316C113.726 58.5316 85.5029 86.7369 85.5029 121.529C85.5029 143.859 97.1595 163.425 114.688 174.614C98.2413 163.245 87.4465 144.284 87.4465 122.786Z" fill="#D4088C"/>
<path d="M183.514 69.1273C198.934 80.611 208.966 98.9195 208.966 119.617C208.966 154.41 180.744 182.615 145.932 182.615C132.989 182.615 120.966 178.705 110.957 172.019C121.458 179.84 134.434 184.525 148.539 184.525C183.351 184.525 211.573 156.32 211.573 121.528C211.573 99.67 200.426 80.4251 183.514 69.1273Z" fill="#6EE8FC"/>
<path d="M138.331 111.772C147.514 99.9068 147.484 84.5112 138.265 77.3848C129.046 70.2585 114.129 74.0998 104.946 85.9648C95.764 97.8298 95.7938 113.225 105.013 120.352C114.232 127.478 129.149 123.637 138.331 111.772Z" fill="#6DE0F6"/>
<path d="M114.69 91.3691C121.62 82.4141 131.814 78.0466 140.363 79.5012C139.705 78.7721 139.07 78.0216 138.275 77.4068C129.057 70.28 114.139 74.1204 104.955 85.9847C95.7735 97.849 95.8021 113.245 105.021 120.371C107.282 122.119 109.89 123.19 112.667 123.661C105.692 115.925 106.3 102.209 114.69 91.3691Z" fill="#25BFEC"/>
<path d="M109.39 88.5027C117.278 78.3111 129.376 74.0954 138.481 77.6105C138.404 77.5498 138.354 77.4658 138.277 77.4068C129.06 70.28 114.141 74.1204 104.958 85.9847C95.7759 97.849 95.8045 113.245 105.024 120.371C106.326 121.376 107.758 122.108 109.253 122.686C100.264 115.48 100.284 100.267 109.39 88.5027Z" fill="#267FE5"/>
<path opacity="0.5" d="M180.173 166.848C174.982 172.036 167.227 172.693 162.85 168.32C158.473 163.946 159.132 156.195 164.323 151.007C169.514 145.819 177.269 145.162 181.646 149.535C186.022 153.909 185.364 161.66 180.173 166.848Z" fill="#161242"/>
<path opacity="0.5" d="M164.326 137.349C163.263 138.41 161.676 138.546 160.778 137.651C159.882 136.755 160.016 135.168 161.08 134.105C162.142 133.044 163.73 132.908 164.628 133.803C165.524 134.7 165.388 136.287 164.326 137.349Z" fill="#161242"/>
<path opacity="0.5" d="M159.972 153.582C161.035 152.52 161.171 150.933 160.275 150.037C159.379 149.142 157.791 149.277 156.728 150.339C155.665 151.401 155.53 152.988 156.426 153.884C157.322 154.779 158.91 154.644 159.972 153.582Z" fill="#161242"/>
<path opacity="0.5" d="M160.801 142.665C160.32 143.146 159.601 143.207 159.195 142.801C158.79 142.395 158.85 141.677 159.331 141.196C159.812 140.715 160.531 140.655 160.937 141.06C161.343 141.466 161.282 142.184 160.801 142.665Z" fill="#161242"/>
<path d="M177.373 161.486C177.373 162.9 176.227 164.047 174.81 164.047C173.396 164.047 172.248 162.902 172.248 161.486C172.248 160.073 173.394 158.926 174.81 158.926C176.227 158.927 177.373 160.073 177.373 161.486Z" fill="#6EE8FC"/>
<path d="M185.937 151.42C185.937 152.129 185.361 152.707 184.649 152.707C183.939 152.707 183.362 152.131 183.362 151.42C183.362 150.709 183.938 150.133 184.649 150.133C185.361 150.135 185.937 150.711 185.937 151.42Z" fill="#6EE8FC"/>
<path d="M171.65 138.387C171.65 139.856 170.46 141.046 168.99 141.046C167.52 141.046 166.329 139.856 166.329 138.387C166.329 136.918 167.52 135.728 168.99 135.728C170.46 135.728 171.65 136.918 171.65 138.387Z" fill="#6EE8FC"/>
<path d="M166.802 144.322C166.802 144.947 166.296 145.453 165.67 145.453C165.045 145.453 164.539 144.947 164.539 144.322C164.539 143.696 165.045 143.191 165.67 143.191C166.294 143.191 166.802 143.698 166.802 144.322Z" fill="#6EE8FC"/>
<path d="M171.649 146.674C172.757 146.674 173.654 145.777 173.654 144.67C173.654 143.564 172.757 142.667 171.649 142.667C170.542 142.667 169.645 143.564 169.645 144.67C169.645 145.777 170.542 146.674 171.649 146.674Z" fill="#6EE8FC"/>
<path d="M195.285 190.92C204.296 190.92 211.602 183.619 211.602 174.613C211.602 165.606 204.296 158.306 195.285 158.306C186.274 158.306 178.969 165.606 178.969 174.613C178.969 183.619 186.274 190.92 195.285 190.92Z" fill="#6EE8FC"/>
<path d="M193.381 173.406C190.093 176.693 185.347 177.279 182.783 174.714C180.217 172.152 180.803 167.409 184.092 164.122C187.38 160.836 192.126 160.25 194.69 162.814C197.254 165.379 196.669 170.12 193.381 173.406Z" fill="#3BE1FA"/>
<path d="M191.321 171.348C189.492 173.176 186.851 173.503 185.424 172.077C183.997 170.651 184.323 168.011 186.154 166.183C187.983 164.355 190.624 164.028 192.051 165.456C193.478 166.88 193.152 169.519 191.321 171.348Z" fill="#18D0F7"/>
<path d="M200.312 195.037C203.087 197.81 203.087 202.308 200.312 205.084C197.537 207.857 193.036 207.857 190.259 205.084C187.484 202.31 187.484 197.812 190.259 195.037C193.034 192.262 197.535 192.263 200.312 195.037Z" fill="#6EE8FC"/>
<path d="M180.516 191.389C181.609 192.481 181.609 194.254 180.516 195.346C179.423 196.438 177.65 196.438 176.557 195.346C175.465 194.254 175.465 192.481 176.557 191.389C177.652 190.298 179.423 190.298 180.516 191.389Z" fill="#6EE8FC"/>
<path d="M194.091 198.868C192.948 200.01 191.301 200.214 190.409 199.322C189.519 198.432 189.722 196.785 190.863 195.645C192.006 194.503 193.653 194.299 194.545 195.191C195.437 196.082 195.233 197.726 194.091 198.868Z" fill="#3BE1FA"/>
<path opacity="0.2" d="M138.277 77.4068C138.134 77.296 137.978 77.212 137.834 77.1084L38.6873 0L0 56.3712L106.739 121.529L106.74 121.528C116.01 127.005 129.712 122.95 138.345 111.794C147.525 99.9292 147.496 84.5336 138.277 77.4068Z" fill="url(#paint2_linear_31_12716)"/>
<path opacity="0.25" d="M135.459 79.1313C135.332 79.033 135.195 78.9598 135.066 78.865L47.088 10.4436L12.7583 60.4654L107.472 118.284L107.474 118.282C115.699 123.143 127.858 119.544 135.518 109.645C143.665 99.1161 143.638 85.4557 135.459 79.1313Z" fill="url(#paint3_linear_31_12716)"/>
<path d="M81.9754 49.6322C80.1533 49.4285 78.51 50.7402 78.308 52.5612C78.1041 54.3823 79.4166 56.0246 81.2387 56.2283C83.0608 56.432 84.704 55.1203 84.9079 53.2993C85.1099 51.4765 83.7974 49.836 81.9754 49.6322Z" fill="#6EE8FC"/>
<path opacity="0.8" d="M96.0232 53.2832C94.2763 52.7274 92.4095 53.6942 91.8534 55.4402C91.2973 57.1862 92.2646 59.0519 94.0116 59.6076C95.7586 60.1634 97.6254 59.1966 98.1815 57.4506C98.7376 55.7047 97.7702 53.839 96.0232 53.2832Z" fill="#6EE8FC"/>
<path opacity="0.6" d="M109.087 59.6041C107.481 58.7195 105.463 59.302 104.577 60.9068C103.692 62.5116 104.275 64.5292 105.881 65.4138C107.487 66.2984 109.505 65.7158 110.391 64.111C111.277 62.5063 110.693 60.4887 109.087 59.6041Z" fill="#6EE8FC"/>
<path opacity="0.4" d="M120.668 68.3499C119.266 67.1687 117.173 67.3474 115.991 68.7485C114.809 70.1495 114.987 72.2422 116.389 73.4234C117.791 74.6047 119.885 74.426 121.067 73.0249C122.247 71.6238 122.068 69.5312 120.668 68.3499Z" fill="#6EE8FC"/>
<path opacity="0.2" d="M130.317 79.1849C129.173 77.7535 127.084 77.5194 125.652 78.6631C124.22 79.8068 123.985 81.8941 125.13 83.3256C126.274 84.757 128.363 84.9911 129.795 83.8474C131.227 82.7037 131.461 80.6164 130.317 79.1849Z" fill="#6EE8FC"/>
<path opacity="0.1" d="M138.038 93.2635C138.064 91.4317 136.597 89.9252 134.764 89.9002C132.932 89.8752 131.424 91.3406 131.399 93.1723C131.374 95.0041 132.84 96.5106 134.673 96.5356C136.506 96.5606 138.013 95.097 138.038 93.2635Z" fill="#6EE8FC"/>
<path d="M68.814 57.4059C70.6665 57.6132 72.3384 56.2801 72.5458 54.4269C72.7532 52.5755 71.4193 50.9046 69.565 50.6973C67.7126 50.49 66.0407 51.8231 65.8333 53.6763C65.6258 55.5277 66.9598 57.1986 68.814 57.4059Z" fill="#6EE8FC"/>
<path opacity="0.8" d="M54.7735 53.6978C56.5205 54.2536 58.3872 53.2868 58.9433 51.5408C59.4994 49.7948 58.5321 47.9291 56.7851 47.3733C55.0381 46.8176 53.1714 47.7844 52.6153 49.5303C52.0592 51.2763 53.0247 53.142 54.7735 53.6978Z" fill="#6EE8FC"/>
<path opacity="0.6" d="M41.7082 47.3769C43.3139 48.2615 45.3326 47.6789 46.2178 46.0742C47.1029 44.4694 46.5199 42.4518 44.9142 41.5672C43.3085 40.6826 41.2898 41.2652 40.4029 42.87C39.5195 44.4747 40.1025 46.4923 41.7082 47.3769Z" fill="#6EE8FC"/>
<path opacity="0.4" d="M30.1284 38.631C31.5302 39.8123 33.6241 39.6336 34.806 38.2325C35.988 36.8315 35.8092 34.7388 34.4073 33.5576C33.0054 32.3763 30.9116 32.555 29.7296 33.9561C28.5495 35.3571 28.7265 37.4498 30.1284 38.631Z" fill="#6EE8FC"/>
<path opacity="0.2" d="M20.4794 27.796C21.6238 29.2275 23.7123 29.4616 25.1446 28.3178C26.5768 27.1741 26.8111 25.0868 25.6667 23.6554C24.5223 22.2239 22.4338 21.9898 21.0015 23.1336C19.5675 24.2773 19.335 26.3646 20.4794 27.796Z" fill="#6EE8FC"/>
<path opacity="0.1" d="M12.7586 13.7157C12.7336 15.5475 14.1998 17.0539 16.0326 17.079C17.8654 17.104 19.3728 15.6386 19.3978 13.8069C19.4228 11.9751 17.9566 10.4686 16.1238 10.4436C14.2892 10.4186 12.7836 11.884 12.7586 13.7157Z" fill="#6EE8FC"/>
<path d="M62.7645 73.8398C63.4762 74.8942 63.1973 76.3239 62.1423 77.0333C61.0873 77.7428 59.6568 77.4658 58.947 76.4114C58.2371 75.357 58.5142 73.9274 59.5692 73.2179C60.6224 72.5067 62.0547 72.7855 62.7645 73.8398Z" fill="#6EE8FC"/>
<path opacity="0.8" d="M56.006 66.3842C56.909 67.2795 56.9143 68.736 56.0185 69.6384C55.1227 70.5409 53.6654 70.5463 52.7624 69.6509C51.8594 68.7556 51.854 67.2992 52.7499 66.3967C53.6457 65.496 55.1048 65.4907 56.006 66.3842Z" fill="#6EE8FC"/>
<path opacity="0.6" d="M47.9234 60.3904C48.9837 61.0927 49.2734 62.5188 48.5725 63.5785C47.8697 64.6382 46.4411 64.9277 45.3825 64.2272C44.3222 63.5249 44.0325 62.097 44.7334 61.0391C45.4343 59.9793 46.863 59.6898 47.9234 60.3904Z" fill="#6EE8FC"/>
<path opacity="0.4" d="M38.823 56.0889C39.9996 56.5714 40.5628 57.9135 40.0818 59.0894C39.599 60.2653 38.2562 60.8282 37.0796 60.3475C35.903 59.8667 35.3398 58.5229 35.8208 57.347C36.3018 56.1693 37.6464 55.6064 38.823 56.0889Z" fill="#6EE8FC"/>
<path opacity="0.2" d="M29.0608 53.6424C30.3089 53.8854 31.1243 55.0935 30.8811 56.3409C30.6379 57.5882 29.4291 58.4031 28.181 58.1601C26.9329 57.9171 26.1176 56.709 26.3608 55.4616C26.604 54.2143 27.8127 53.3994 29.0608 53.6424Z" fill="#6EE8FC"/>
<path opacity="0.1" d="M17.9231 53.4244C19.0425 52.8204 20.439 53.2367 21.0434 54.3554C21.6478 55.4741 21.2311 56.8698 20.1118 57.4739C18.9924 58.0779 17.5959 57.6615 16.9916 56.5428C16.3872 55.4241 16.8038 54.0284 17.9231 53.4244Z" fill="#6EE8FC"/>
<path d="M62.2135 84.421C61.4911 83.3488 61.7737 81.8941 62.8465 81.1722C63.9194 80.4502 65.3749 80.7325 66.0973 81.8048C66.8197 82.877 66.5372 84.3317 65.4643 85.0537C64.3915 85.7756 62.9359 85.4933 62.2135 84.421Z" fill="#6EE8FC"/>
<path opacity="0.8" d="M69.005 91.8535C68.1021 90.9581 68.0967 89.5017 68.9925 88.5992C69.8884 87.6967 71.3457 87.6914 72.2486 88.5867C73.1516 89.482 73.157 90.9385 72.2612 91.8409C71.3654 92.7434 69.908 92.7488 69.005 91.8535Z" fill="#6EE8FC"/>
<path opacity="0.6" d="M77.0891 97.8473C76.0287 97.145 75.7391 95.7189 76.4418 94.6592C77.1445 93.5995 78.5715 93.31 79.6318 94.0105C80.6921 94.7128 80.9818 96.1407 80.2791 97.1986C79.5782 98.2601 78.1494 98.5496 77.0891 97.8473Z" fill="#6EE8FC"/>
<path opacity="0.4" d="M86.1865 102.151C85.01 101.668 84.4467 100.326 84.9277 99.1501C85.4087 97.9742 86.7534 97.4113 87.9299 97.892C89.1065 98.3727 89.6698 99.7166 89.1888 100.893C88.7078 102.068 87.3631 102.631 86.1865 102.151Z" fill="#6EE8FC"/>
<path opacity="0.2" d="M95.9516 104.597C94.7035 104.354 93.8881 103.146 94.1313 101.899C94.3745 100.651 95.5832 99.8363 96.8313 100.079C98.0794 100.322 98.8948 101.53 98.6516 102.778C98.4084 104.025 97.1997 104.84 95.9516 104.597Z" fill="#6EE8FC"/>
<path opacity="0.1" d="M107.09 104.815C105.972 105.419 104.574 105.003 103.97 103.884C103.365 102.765 103.782 101.37 104.901 100.766C106.021 100.162 107.417 100.578 108.021 101.697C108.624 102.815 108.207 104.211 107.09 104.815Z" fill="#6EE8FC"/>
<path opacity="0.4" d="M105.995 103.008C105.902 103.008 105.816 102.949 105.787 102.856C105.752 102.742 105.814 102.621 105.929 102.585L129.929 95.0416L96.4375 102.549C96.3373 102.574 96.2318 102.519 96.1907 102.424C96.1496 102.327 96.1818 102.217 96.2676 102.159L125.353 82.5893L87.1483 100.22C87.0518 100.265 86.9373 100.233 86.8766 100.144C86.8176 100.054 86.8318 99.9364 86.9105 99.8649L116.702 72.2797L78.4743 96.1138C78.3831 96.171 78.2633 96.1513 78.1935 96.0727C78.1238 95.9905 78.1238 95.8708 78.1935 95.7886L105.961 63.927L70.755 90.397C70.6692 90.4613 70.5494 90.4524 70.4725 90.3791C70.3956 90.304 70.3849 90.1843 70.4475 90.0968L93.7517 57.8259L64.2964 83.2773C64.216 83.3452 64.098 83.347 64.0157 83.2809C63.9334 83.213 63.912 83.095 63.9656 83.0057L80.468 54.4662L61.0135 75.2748C60.9384 75.3499 60.8239 75.3677 60.7363 75.3088C60.6487 75.2516 60.6147 75.139 60.6559 75.0425C63.8494 67.5904 68.4788 56.4516 68.9634 54.4126C67.3595 55.5653 59.6617 63.0709 54.5406 68.1748C54.4762 68.2392 54.3779 68.257 54.2956 68.2177C54.2134 68.1802 54.1633 68.0944 54.1704 68.0032L55.5061 51.2459L46.8249 62.4437C46.7713 62.5116 46.6819 62.5384 46.6032 62.5223C46.5192 62.5009 46.4566 62.4347 46.4405 62.3508L43.2398 45.261L38.1563 58.2977C38.1205 58.3852 38.0347 58.4263 37.9399 58.4353C37.8451 58.4299 37.7665 58.3638 37.7432 58.2727L32.3038 37.1049L28.8349 55.9405C28.8152 56.0442 28.7258 56.1175 28.6203 56.1175C28.5148 56.1175 28.4254 56.0424 28.4058 55.9388L23.1041 27.0991L19.231 55.4777C19.2167 55.5867 19.113 55.6475 19.0093 55.6635C18.8984 55.66 18.8072 55.5724 18.8001 55.4634L15.8605 13.7782C15.8515 13.6585 15.9427 13.5549 16.0625 13.5459C16.1591 13.5406 16.286 13.6282 16.2932 13.7461L19.0844 53.3368L22.8573 25.6944C22.8716 25.589 22.961 25.5086 23.0665 25.5086H23.0719C23.1774 25.5086 23.2668 25.5818 23.2864 25.6873L28.6203 54.7003L32.0535 36.0541C32.0731 35.954 32.159 35.8807 32.2591 35.8771H32.2663C32.3646 35.8771 32.4522 35.9432 32.4773 36.0397L37.9935 57.5096L43.1075 44.3925C43.1433 44.3014 43.2309 44.2513 43.3292 44.2549C43.4258 44.2638 43.5044 44.3371 43.5223 44.4318L46.7731 61.7932L55.6027 50.4024C55.6617 50.3274 55.7618 50.2934 55.853 50.3327C55.9424 50.3685 55.9979 50.456 55.9907 50.5525L54.6443 67.4493C61.001 61.123 68.4788 53.839 69.2173 53.839C69.2244 53.839 69.2316 53.8407 69.2387 53.8407C69.2995 53.8568 69.3729 53.9176 69.4015 53.973C69.743 54.6646 64.3626 67.4618 61.5392 74.0739L81.4461 52.781C81.523 52.7006 81.6464 52.6935 81.734 52.7542C81.8234 52.8203 81.8484 52.9401 81.793 53.0366L64.9867 82.105L94.8729 56.2801C94.9569 56.2104 95.0803 56.2104 95.1625 56.2837C95.243 56.3587 95.2555 56.482 95.1929 56.5714L71.6401 89.1853L107.354 62.3365C107.441 62.2668 107.567 62.2793 107.643 62.3615C107.719 62.4437 107.72 62.5688 107.649 62.6528L79.4792 94.9772L118.411 70.7035C118.506 70.6427 118.63 70.666 118.699 70.7553C118.767 70.8429 118.757 70.9698 118.674 71.0448L88.2104 99.2519L127.631 81.0578C127.733 81.0131 127.856 81.0524 127.912 81.1489C127.967 81.249 127.937 81.3723 127.844 81.4348L97.4674 101.872L134.871 93.4868C134.985 93.46 135.096 93.5261 135.128 93.6423C135.159 93.7549 135.094 93.8711 134.983 93.9068L106.057 102.999C106.038 103.007 106.016 103.008 105.995 103.008Z" fill="#6EE8FC"/>
<defs>
<linearGradient id="paint0_linear_31_12716" x1="89.7383" y1="97.9231" x2="206.734" y2="144.946" gradientUnits="userSpaceOnUse">
<stop stop-color="#A31FA9"/>
<stop offset="0.0668" stop-color="#8B17A0"/>
<stop offset="0.1494" stop-color="#740F98"/>
<stop offset="0.2393" stop-color="#640A92"/>
<stop offset="0.3408" stop-color="#5B078F"/>
<stop offset="0.4785" stop-color="#58068E"/>
<stop offset="0.6264" stop-color="#4D22A3"/>
<stop offset="0.9436" stop-color="#3168DA"/>
<stop offset="1" stop-color="#2C75E4"/>
</linearGradient>
<linearGradient id="paint1_linear_31_12716" x1="105.343" y1="218.335" x2="191.733" y2="218.335" gradientUnits="userSpaceOnUse">
<stop stop-color="#D4088C"/>
<stop offset="0.2258" stop-color="#D4088C"/>
<stop offset="0.5108" stop-color="#6EE1F8"/>
<stop offset="0.7796" stop-color="#6EE8FC"/>
<stop offset="1" stop-color="#6EE8FC"/>
</linearGradient>
<linearGradient id="paint2_linear_31_12716" x1="141.494" y1="104.635" x2="18.4617" y2="27.5448" gradientUnits="userSpaceOnUse">
<stop offset="0.0108" stop-color="#25BFEC"/>
<stop offset="0.0453" stop-color="#24B4E1"/>
<stop offset="0.2186" stop-color="#1F83B0"/>
<stop offset="0.3902" stop-color="#1B5A86"/>
<stop offset="0.5567" stop-color="#173A66"/>
<stop offset="0.7168" stop-color="#152350"/>
<stop offset="0.8678" stop-color="#131642"/>
<stop offset="1" stop-color="#13113D"/>
</linearGradient>
<linearGradient id="paint3_linear_31_12716" x1="138.313" y1="103.293" x2="29.141" y2="34.8874" gradientUnits="userSpaceOnUse">
<stop offset="0.0108" stop-color="#70E8FC"/>
<stop offset="0.1484" stop-color="#5AB5CF"/>
<stop offset="0.3028" stop-color="#4584A3"/>
<stop offset="0.4559" stop-color="#335A7E"/>
<stop offset="0.6045" stop-color="#253A62"/>
<stop offset="0.7474" stop-color="#1B244D"/>
<stop offset="0.882" stop-color="#151641"/>
<stop offset="1" stop-color="#13113D"/>
</linearGradient>
</defs>
</svg>
