<?xml version="1.0" encoding="UTF-8"?>
<svg version="1.1" xmlns="http://www.w3.org/2000/svg" width="1920" height="1080">
<path d="M0 0 C633.6 0 1267.2 0 1920 0 C1920 356.4 1920 712.8 1920 1080 C1286.4 1080 652.8 1080 0 1080 C0 723.6 0 367.2 0 0 Z " fill="#0C161D" transform="translate(0,0)"/>
<path d="M0 0 C4.29 0 8.58 0 13 0 C12.67 3.96 12.34 7.92 12 12 C8.7 12 5.4 12 2 12 C1.67 12.99 1.34 13.98 1 15 C0.67 15 0.34 15 0 15 C0 10.05 0 5.1 0 0 Z " fill="#010102" transform="translate(0,0)"/>
<path d="M0 0 C0.33 0 0.66 0 1 0 C1 2.64 1 5.28 1 8 C3.31 8.33 5.62 8.66 8 9 C8 9.33 8 9.66 8 10 C5.69 10 3.38 10 1 10 C1 12.64 1 15.28 1 18 C0.67 18 0.34 18 0 18 C0 15.36 0 12.72 0 10 C-1.65 10 -3.3 10 -5 10 C-4.34 9.34 -3.68 8.68 -3 8 C-2.01 8 -1.02 8 0 8 C0 5.36 0 2.72 0 0 Z " fill="#3C3D3D" transform="translate(12,4)"/>
<path d="M0 0 C0.33 0 0.66 0 1 0 C1 2.97 1 5.94 1 9 C3.97 9 6.94 9 10 9 C10 9.33 10 9.66 10 10 C7.03 10 4.06 10 1 10 C1 11.98 1 13.96 1 16 C0.67 16 0.34 16 0 16 C0 14.02 0 12.04 0 10 C-3.63 10 -7.26 10 -11 10 C-11 9.67 -11 9.34 -11 9 C-7.37 9 -3.74 9 0 9 C0 6.03 0 3.06 0 0 Z " fill="#4E5258" transform="translate(94,785)"/>
<path d="M0 0 C0.33 0 0.66 0 1 0 C1 2.97 1 5.94 1 9 C3.31 9 5.62 9 8 9 C8 9.33 8 9.66 8 10 C5.69 10 3.38 10 1 10 C1 12.97 1 15.94 1 19 C0.67 19 0.34 19 0 19 C0 16.03 0 13.06 0 10 C-2.97 10 -5.94 10 -9 10 C-9 9.67 -9 9.34 -9 9 C-6.03 9 -3.06 9 0 9 C0 6.03 0 3.06 0 0 Z " fill="#4A5153" transform="translate(1789,763)"/>
<path d="M0 0 C0.33 0 0.66 0 1 0 C1 1.98 1 3.96 1 6 C3.97 6 6.94 6 10 6 C10 6.33 10 6.66 10 7 C7.03 7 4.06 7 1 7 C1 9.97 1 12.94 1 16 C0.67 16 0.34 16 0 16 C0 13.03 0 10.06 0 7 C-2.97 7 -5.94 7 -9 7 C-9 6.67 -9 6.34 -9 6 C-6.03 6 -3.06 6 0 6 C0 4.02 0 2.04 0 0 Z " fill="#46484B" transform="translate(1594,140)"/>
<path d="M0 0 C0.33 0 0.66 0 1 0 C1 2.97 1 5.94 1 9 C3.31 9 5.62 9 8 9 C8 9.33 8 9.66 8 10 C5.69 10 3.38 10 1 10 C1 11.98 1 13.96 1 16 C0.67 16 0.34 16 0 16 C0 14.02 0 12.04 0 10 C-2.97 10 -5.94 10 -9 10 C-9 9.67 -9 9.34 -9 9 C-6.03 9 -3.06 9 0 9 C0 6.03 0 3.06 0 0 Z " fill="#4E5051" transform="translate(383,83)"/>
<path d="M0 0 C0.33 0 0.66 0 1 0 C1 2.97 1 5.94 1 9 C3.31 9 5.62 9 8 9 C8 9.33 8 9.66 8 10 C5.69 10 3.38 10 1 10 C1 11.98 1 13.96 1 16 C0.67 16 0.34 16 0 16 C0 14.02 0 12.04 0 10 C-2.64 10 -5.28 10 -8 10 C-8 9.67 -8 9.34 -8 9 C-5.36 9 -2.72 9 0 9 C0 6.03 0 3.06 0 0 Z " fill="#56636A" transform="translate(1163,553)"/>
<path d="M0 0 C0.33 0 0.66 0 1 0 C1 2.97 1 5.94 1 9 C2.98 9 4.96 9 7 9 C7 9.33 7 9.66 7 10 C5.02 10 3.04 10 1 10 C1 11.98 1 13.96 1 16 C0.67 16 0.34 16 0 16 C0 14.02 0 12.04 0 10 C-2.97 10 -5.94 10 -9 10 C-9 9.67 -9 9.34 -9 9 C-6.03 9 -3.06 9 0 9 C0 6.03 0 3.06 0 0 Z " fill="#53575B" transform="translate(115,387)"/>
<path d="M0 0 C0.33 0 0.66 0 1 0 C1 1.98 1 3.96 1 6 C3.31 6 5.62 6 8 6 C8 6.33 8 6.66 8 7 C5.69 7 3.38 7 1 7 C1 9.31 1 11.62 1 14 C0.67 14 0.34 14 0 14 C-0.33 12.02 -0.66 10.04 -1 8 C-3.97 7.505 -3.97 7.505 -7 7 C-7 6.67 -7 6.34 -7 6 C-4.69 6 -2.38 6 0 6 C0 4.02 0 2.04 0 0 Z " fill="#454546" transform="translate(1705,48)"/>
</svg>
