<svg width="24" height="24" viewBox="0 0 24 24" fill="none" xmlns="http://www.w3.org/2000/svg">
<path d="M10.8077 16.5384H7.0385C5.78283 16.5384 4.7125 16.0959 3.8275 15.2109C2.9425 14.3261 2.5 13.2559 2.5 12.0004C2.5 10.7449 2.9425 9.67459 3.8275 8.78943C4.7125 7.90409 5.78283 7.46143 7.0385 7.46143H10.8077V8.96143H7.0385C6.19867 8.96143 5.48233 9.25792 4.8895 9.85092C4.2965 10.4439 4 11.1603 4 11.9999C4 12.8396 4.2965 13.5559 4.8895 14.1489C5.48233 14.7419 6.19867 15.0384 7.0385 15.0384H10.8077V16.5384ZM8.25 12.7499V11.2499H15.75V12.7499H8.25ZM13.1923 16.5384V15.0384H16.9615C17.8013 15.0384 18.5177 14.7419 19.1105 14.1489C19.7035 13.5559 20 12.8396 20 11.9999C20 11.1603 19.7035 10.4439 19.1105 9.85092C18.5177 9.25792 17.8013 8.96143 16.9615 8.96143H13.1923V7.46143H16.9615C18.2172 7.46143 19.2875 7.90393 20.1725 8.78893C21.0575 9.67376 21.5 10.7439 21.5 11.9994C21.5 13.2549 21.0575 14.3253 20.1725 15.2104C19.2875 16.0958 18.2172 16.5384 16.9615 16.5384H13.1923Z" fill="white"/>
</svg>
