<svg width="16" height="17" viewBox="0 0 16 17" fill="none" xmlns="http://www.w3.org/2000/svg">
<path d="M3.25 7.75C3.25 5.629 3.25 4.56775 3.90925 3.90925C4.56775 3.25 5.629 3.25 7.75 3.25H10C12.121 3.25 13.1823 3.25 13.8408 3.90925C14.5 4.56775 14.5 5.629 14.5 7.75V11.5C14.5 13.621 14.5 14.6822 13.8408 15.3407C13.1823 16 12.121 16 10 16H7.75C5.629 16 4.56775 16 3.90925 15.3407C3.25 14.6822 3.25 13.621 3.25 11.5V7.75Z" stroke="white" stroke-opacity="0.5" stroke-width="1.125"/>
<path d="M3.25 13.75C2.65326 13.75 2.08097 13.513 1.65901 13.091C1.23705 12.669 1 12.0967 1 11.5V7.00001C1 4.17176 1 2.75726 1.879 1.87901C2.75725 1.00001 4.17175 1.00001 7 1.00001H10C10.5967 1.00001 11.169 1.23706 11.591 1.65902C12.0129 2.08097 12.25 2.65327 12.25 3.25001" stroke="white" stroke-opacity="0.5" stroke-width="1.125"/>
</svg>
