<svg width="32" height="32" viewBox="0 0 32 32" fill="none" xmlns="http://www.w3.org/2000/svg">
<rect width="32" height="32" rx="4" fill="#303030"/>
<path d="M13.0578 21.5C12.5526 21.5 12.125 21.325 11.775 20.975C11.425 20.625 11.25 20.1974 11.25 19.6923V8.30775C11.25 7.80258 11.425 7.375 11.775 7.025C12.125 6.675 12.5526 6.5 13.0578 6.5H21.4423C21.9474 6.5 22.375 6.675 22.725 7.025C23.075 7.375 23.25 7.80258 23.25 8.30775V19.6923C23.25 20.1974 23.075 20.625 22.725 20.975C22.375 21.325 21.9474 21.5 21.4423 21.5H13.0578ZM13.0578 20H21.4423C21.5193 20 21.5898 19.9679 21.6538 19.9038C21.7179 19.8398 21.75 19.7692 21.75 19.6923V8.30775C21.75 8.23075 21.7179 8.16025 21.6538 8.09625C21.5898 8.03208 21.5193 8 21.4423 8H13.0578C12.9808 8 12.9103 8.03208 12.8463 8.09625C12.7821 8.16025 12.75 8.23075 12.75 8.30775V19.6923C12.75 19.7692 12.7821 19.8398 12.8463 19.9038C12.9103 19.9679 12.9808 20 13.0578 20ZM9.55775 25C9.05258 25 8.625 24.825 8.275 24.475C7.925 24.125 7.75 23.6974 7.75 23.1923V10.3077H9.25V23.1923C9.25 23.2693 9.28208 23.3398 9.34625 23.4038C9.41025 23.4679 9.48075 23.5 9.55775 23.5H19.4423V25H9.55775Z" fill="white"/>
</svg>
