<svg width="44" height="44" viewBox="0 0 44 44" fill="none" xmlns="http://www.w3.org/2000/svg">
<path d="M32.4155 6.77315H26.6877C26.3285 6.36931 25.806 6.11111 25.2312 6.11111H24.5781C24.5781 5.01876 23.6964 4.125 22.6187 4.125H20.0062C18.9286 4.125 18.0468 5.01876 18.0468 6.11111H17.3937C16.819 6.11111 16.2965 6.36931 15.9372 6.77315H10.2094C9.13173 6.77315 8.25 7.66691 8.25 8.75926V37.8889C8.25 38.9812 9.13173 39.875 10.2094 39.875H32.4156C33.4933 39.875 34.375 38.9812 34.375 37.8889V8.75926C34.375 7.66691 33.4932 6.77315 32.4155 6.77315ZM21.9655 30.6065C21.6063 30.6065 21.3124 30.3086 21.3124 29.9444C21.3124 29.5803 21.6063 29.2824 21.9655 29.2824H28.2422C28.6014 29.2824 28.8954 29.5803 28.8954 29.9444C28.8954 30.3086 28.6014 30.6065 28.2422 30.6065H21.9655ZM26.2826 32.5926C26.2826 32.9567 25.9887 33.2546 25.6295 33.2546H21.9655C21.6063 33.2546 21.3124 32.9567 21.3124 32.5926C21.3124 32.2285 21.6063 31.9306 21.9655 31.9306H25.6295C25.9887 31.9306 26.2826 32.2285 26.2826 32.5926ZM21.3122 24.6481C21.3122 24.284 21.6061 23.9861 21.9653 23.9861H25.6294C25.9886 23.9861 26.2825 24.284 26.2825 24.6481C26.2825 25.0123 25.9886 25.3102 25.6294 25.3102H21.9653C21.6061 25.3102 21.3122 25.0123 21.3122 24.6481ZM28.2418 22.662H21.9651C21.6059 22.662 21.312 22.3641 21.312 22C21.312 21.6359 21.6059 21.338 21.9651 21.338H28.2418C28.601 21.338 28.8949 21.6359 28.8949 22C28.8949 22.3641 28.601 22.662 28.2418 22.662ZM21.3122 16.7039C21.3122 16.3398 21.6061 16.0419 21.9653 16.0419H25.6294C25.9886 16.0419 26.2825 16.3398 26.2825 16.7039C26.2825 17.068 25.9886 17.366 25.6294 17.366H21.9653C21.6061 17.366 21.3122 17.068 21.3122 16.7039ZM28.2418 14.7178H21.9651C21.6059 14.7178 21.312 14.4199 21.312 14.0558C21.312 13.6916 21.6059 13.3937 21.9651 13.3937H28.2418C28.601 13.3937 28.8949 13.6916 28.8949 14.0558C28.8949 14.4199 28.601 14.7178 28.2418 14.7178ZM19.3526 26.6345H14.1276C13.7684 26.6345 13.4745 26.3366 13.4745 25.9724V20.6761C13.4745 20.312 13.7684 20.0141 14.1276 20.0141H19.3526C19.7118 20.0141 20.0057 20.312 20.0057 20.6761V25.9724C20.0057 26.3366 19.7118 26.6345 19.3526 26.6345ZM20.0057 28.6206V33.9169C20.0057 34.281 19.7118 34.5789 19.3526 34.5789H14.1276C13.7684 34.5789 13.4745 34.281 13.4745 33.9169V28.6206C13.4745 28.2565 13.7684 27.9585 14.1276 27.9585H19.3526C19.7118 27.9585 20.0057 28.2565 20.0057 28.6206ZM19.3526 18.6898H14.1276C13.7684 18.6898 13.4745 18.3919 13.4745 18.0278V12.7315C13.4745 12.3674 13.7684 12.0694 14.1276 12.0694H19.3526C19.7118 12.0694 20.0057 12.3674 20.0057 12.7315V18.0278C20.0057 18.3919 19.7118 18.6898 19.3526 18.6898ZM17.3932 7.4354H18.6995C19.0587 7.4354 19.3526 7.13748 19.3526 6.77336V6.11132C19.3526 5.7472 19.6465 5.44929 20.0057 5.44929H22.6182C22.9775 5.44929 23.2714 5.7472 23.2714 6.11132V6.77336C23.2714 7.13748 23.5653 7.4354 23.9245 7.4354H25.2307C25.59 7.4354 25.8839 7.73331 25.8839 8.09743V9.42151H16.7401V8.09743C16.7401 7.73331 17.034 7.4354 17.3932 7.4354ZM33.0682 37.8891C33.0682 38.2532 32.7743 38.5511 32.4151 38.5511H10.2089C9.84965 38.5511 9.55575 38.2532 9.55575 37.8891V8.75947C9.55575 8.39535 9.84965 8.09743 10.2089 8.09743H15.4339V9.42151H12.1682C11.4498 9.42151 10.862 10.0173 10.862 10.7456V35.903C10.862 36.6313 11.4498 37.2271 12.1682 37.2271H30.4557C31.1742 37.2271 31.762 36.6313 31.762 35.903V10.7456C31.762 10.0173 31.1742 9.42151 30.4557 9.42151H27.1901V8.09743H32.4151C32.7743 8.09743 33.0682 8.39535 33.0682 8.75947V37.8891Z" fill="white"/>
<path d="M15.125 13.75H19.25V17.875H15.125V13.75Z" fill="white"/>
<path d="M15.125 20.625H19.25V24.75H15.125V20.625Z" fill="white"/>
<path d="M15.125 28.875H19.25V33H15.125V28.875Z" fill="white"/>
</svg>
