<svg width="120" height="48" viewBox="0 0 87 24" fill="none" xmlns="http://www.w3.org/2000/svg">
<path d="M35.6425 20H33.8594V24.9019H35.6208C37.3387 24.9019 38.0998 23.9712 38.0998 22.3372C38.1216 20.7446 37.23 20 35.6425 20ZM35.686 24.3435H34.5552V20.5378H35.7078C36.969 20.5378 37.4257 21.241 37.4257 22.4199C37.4257 24.2194 36.1644 24.3435 35.686 24.3435Z" fill="white"/>
<path d="M41.3169 23.351C41.3169 23.9922 40.9472 24.4679 40.2079 24.4679C39.7295 24.4679 39.4468 24.1783 39.4468 23.744V21.3447H38.8379V23.6819C38.8379 24.4472 39.1423 24.985 40.1209 24.985C40.6645 24.985 41.0777 24.7781 41.3387 24.3438H41.3604V24.9022H41.9258V21.3447H41.3169V23.351Z" fill="white"/>
<path d="M44.7095 21.2621C44.1876 21.2621 43.7309 21.4276 43.5134 21.8205H43.4917V19.9797H42.8828V24.8817H43.4917V24.4059H43.5134C43.7961 24.8196 44.3398 24.9644 44.7095 24.9644C45.8403 24.9644 46.4057 24.1164 46.4057 23.1236C46.4274 22.1308 45.8403 21.2621 44.7095 21.2621ZM44.6442 24.468C43.7961 24.468 43.47 23.8268 43.47 23.1236C43.47 22.4617 43.7961 21.7792 44.6007 21.7792C45.4053 21.7792 45.7533 22.4204 45.7533 23.0822C45.775 23.7855 45.4923 24.468 44.6442 24.468Z" fill="white"/>
<path d="M50.0592 24.0747V22.2546C50.0592 21.4273 49.3198 21.2825 48.6674 21.2825C47.8411 21.2825 47.1234 21.5927 47.08 22.4614H47.6888C47.7106 21.9443 48.102 21.7789 48.6239 21.7789C49.0153 21.7789 49.4503 21.8616 49.4503 22.3787C49.4503 22.813 48.8631 22.7717 48.189 22.8958C47.5584 23.0199 46.9277 23.1853 46.9277 23.992C46.9277 24.6952 47.4931 24.9848 48.1673 24.9848C48.6892 24.9848 49.1458 24.8193 49.472 24.4263C49.472 24.8193 49.6677 24.9848 49.9939 24.9848C50.1896 24.9848 50.3201 24.9434 50.4288 24.8814V24.4263C50.3418 24.447 50.2984 24.4677 50.2331 24.4677C50.0591 24.4677 50.0592 24.3436 50.0592 24.0747ZM49.4503 23.661C49.4503 23.992 49.1241 24.4677 48.3195 24.4677C47.9498 24.4677 47.6019 24.3229 47.6019 23.9506C47.6019 23.5163 47.9498 23.3715 48.363 23.3094C48.7761 23.2474 49.2328 23.2267 49.472 23.0612V23.661H49.4503Z" fill="white"/>
<path d="M51.6694 21.3447H51.0605V24.9022H51.6694V21.3447Z" fill="white"/>
<path d="M51.6694 20H51.0605V20.7239H51.6694V20Z" fill="white"/>
<path d="M56.9104 24.4679C55.6709 24.4679 55.149 23.5372 55.149 22.4203C55.149 21.4068 55.6709 20.4347 56.8887 20.4347C57.6063 20.4347 58.1934 20.7863 58.3239 21.4688H59.0198C58.8676 20.4347 57.976 19.8762 56.8887 19.8762C55.3012 19.8762 54.4531 21.0345 54.4531 22.4616C54.4531 23.8888 55.236 25.0057 56.8452 25.0057C58.1499 25.0057 58.9545 24.2611 59.085 23.0408H58.3891C58.3456 23.8681 57.8237 24.4679 56.9104 24.4679Z" fill="white"/>
<path d="M62.3033 23.351C62.3033 23.9922 61.9336 24.4679 61.1942 24.4679C60.7158 24.4679 60.4331 24.1783 60.4331 23.744V21.3447H59.8242V23.6819C59.8242 24.4472 60.1287 24.985 61.1072 24.985C61.6509 24.985 62.0641 24.7781 62.325 24.3438H62.3467V24.9022H62.9339V21.3447H62.325V23.351H62.3033Z" fill="white"/>
<path d="M65.564 22.8546C64.9986 22.7305 64.3463 22.6477 64.3463 22.2341C64.3463 21.8825 64.7812 21.779 65.1509 21.779C65.564 21.779 65.9772 21.9238 66.0207 22.3789H66.6296C66.5861 21.5102 65.912 21.262 65.1074 21.262C64.455 21.262 63.7156 21.5515 63.7156 22.2754C63.7156 22.958 64.3245 23.1441 64.9334 23.2682C65.5423 23.3923 66.1512 23.4751 66.1512 23.9301C66.1512 24.3851 65.6293 24.4679 65.2596 24.4679C64.7594 24.4679 64.281 24.3024 64.2593 23.7853H63.6504C63.6939 24.654 64.3898 24.9849 65.2378 24.9849C65.999 24.9849 66.8253 24.7161 66.8253 23.8681C66.7818 23.1648 66.1729 22.9787 65.564 22.8546Z" fill="white"/>
<path d="M68.304 20.2898H67.6951V21.3446H67.0645V21.8617H67.6951V24.1162C67.6951 24.7781 67.956 24.8815 68.5867 24.8815H69.0651V24.3644H68.7824C68.391 24.3644 68.3257 24.323 68.3257 24.0541V21.841H69.0651V21.324H68.3257V20.2898H68.304Z" fill="white"/>
<path d="M71.3498 21.262C70.1756 21.262 69.5449 22.0686 69.5449 23.1235C69.5449 24.1576 70.1756 24.9849 71.3498 24.9849C72.5241 24.9849 73.1547 24.1783 73.1547 23.1235C73.1547 22.0893 72.5241 21.262 71.3498 21.262ZM71.3498 24.4679C70.6975 24.4679 70.1973 23.9922 70.1973 23.1235C70.1973 22.2548 70.7192 21.779 71.3498 21.779C72.0022 21.779 72.5024 22.2548 72.5024 23.1235C72.5024 23.9922 71.9805 24.4679 71.3498 24.4679Z" fill="white"/>
<path d="M77.8743 21.262C77.3959 21.262 76.961 21.4895 76.7 21.8618C76.5478 21.4274 76.1346 21.262 75.678 21.262C75.1561 21.262 74.7429 21.4688 74.4819 21.8618H74.4602V21.3447H73.873V24.9022H74.4819V22.6891C74.4819 22.4202 74.7429 21.779 75.4822 21.779C76.0259 21.779 76.1781 22.11 76.1781 22.565V24.8815H76.787V22.6684C76.787 22.11 77.1784 21.7584 77.7656 21.7584C78.3745 21.7584 78.4832 22.11 78.4832 22.5443V24.8608H79.0921V22.2548C79.1138 21.5515 78.6137 21.262 77.8743 21.262Z" fill="white"/>
<path d="M81.7418 22.8546C81.1764 22.7305 80.524 22.6477 80.524 22.2341C80.524 21.8825 80.9589 21.779 81.3286 21.779C81.7418 21.779 82.1549 21.9238 82.1984 22.3789H82.8073C82.7638 21.5102 82.0897 21.262 81.2851 21.262C80.6327 21.262 79.8934 21.5515 79.8934 22.2754C79.8934 22.958 80.5022 23.1441 81.1111 23.2682C81.72 23.3923 82.3289 23.4751 82.3289 23.9301C82.3289 24.3851 81.807 24.4679 81.4373 24.4679C80.9372 24.4679 80.4588 24.3024 80.437 23.7853H79.8281C79.8716 24.654 80.5675 24.9849 81.4156 24.9849C82.1767 24.9849 83.003 24.7161 83.003 23.8681C82.9595 23.1648 82.3507 22.9787 81.7418 22.8546Z" fill="white"/>
<path d="M36.4249 19.0491C36.4249 18.8216 36.2944 18.6975 36.0552 18.6975C35.816 18.6975 35.6855 18.8216 35.6855 19.0491C35.6855 19.2766 35.7943 19.4007 36.0552 19.4007C36.3162 19.4007 36.4249 19.2766 36.4249 19.0491Z" fill="white"/>
<path d="M35.2296 19.0491C35.2296 18.8216 35.1209 18.6975 34.8599 18.6975C34.6207 18.6975 34.4902 18.8216 34.4902 19.0491C34.4902 19.2766 34.6207 19.4007 34.8599 19.4007C35.1209 19.4007 35.2296 19.2766 35.2296 19.0491Z" fill="white"/>
<path d="M48.0158 14.5401V12.2029L47.4069 12.4097V14.478C47.4069 15.1399 47.1024 15.4501 46.4718 15.4501H46.1891H46.0369H44.7539H44.5364H43.3186H43.1012H41.9269H41.7094H40.4917H40.2742H39.0564H38.839H37.5125H37.4037H37.0123C36.5774 15.4501 36.2729 15.202 36.0772 14.7056L35.838 15.3054C35.9903 15.719 36.3164 15.9879 36.9471 15.9879C36.9036 16.6911 36.2295 17.0221 35.3596 17.0221C34.2941 17.0221 33.8157 16.2568 33.8157 15.2433C33.8157 14.7883 33.9244 14.1264 34.2288 13.3611L33.5765 13.7955C33.359 14.3746 33.2285 14.9124 33.2285 15.3881C33.2285 16.6498 33.9896 17.5805 35.3596 17.5805C36.7296 17.5805 37.556 16.8773 37.556 15.9672H38.8825H39.0999H40.3177H40.5352H41.7094H41.9269H43.1447H43.3621H44.5799H44.7974H46.0804H46.2326H46.5588C47.4286 15.9879 48.0158 15.4088 48.0158 14.5401Z" fill="white"/>
<path d="M47.4718 17.4356C47.4718 17.2081 47.3631 17.084 47.1021 17.084C46.8629 17.084 46.7324 17.2081 46.7324 17.4356C46.7324 17.6631 46.8629 17.7872 47.1021 17.7872C47.3413 17.7872 47.4718 17.6631 47.4718 17.4356Z" fill="white"/>
<path d="M50.4083 12.3892C49.9516 12.4099 49.5385 12.596 49.234 12.927V13.6302C49.5385 13.2165 49.9516 12.927 50.4083 12.927C50.9519 12.927 51.3651 13.2372 51.3651 13.8991V15.4503H49.147L48.7773 15.9881H51.974V13.8577C51.974 12.9477 51.3434 12.3685 50.4083 12.3892Z" fill="white"/>
<path d="M58.2574 13.1338H56.8874V12.8443C56.8874 12.534 57.1049 12.2651 57.4093 12.2651C57.5616 12.2651 57.692 12.3479 57.8443 12.472L58.1487 12.1824C57.9312 11.9756 57.7138 11.8928 57.4746 11.8928C56.8439 11.8928 56.4743 12.3479 56.4743 12.927V13.1338H56.0611L55.6914 13.5061H58.2357V13.1338H58.2574Z" fill="white"/>
<path d="M60.1085 10.6104L59.5214 10.7965V14.4781C59.5214 15.14 59.1952 15.4502 58.5863 15.4502H55.7158C55.0852 15.4502 54.759 15.14 54.759 14.4781V12.7407L54.1719 13.444V14.5402C54.1719 15.4295 54.7373 15.988 55.6071 15.988H58.6298C59.4996 15.988 60.1303 15.4295 60.1303 14.5402V10.6104H60.1085Z" fill="white"/>
<path d="M62.5428 15.7607C62.5428 16.4639 62.1731 17.0844 61.412 17.0844C61.1076 17.0844 60.7162 17.0431 60.2812 16.7949L60.5639 17.3947C60.8466 17.5188 61.2381 17.5808 61.4773 17.5808C62.695 17.5808 63.1735 16.7121 63.1517 15.6366V12.2239L62.5646 12.41V15.7607H62.5428Z" fill="white"/>
<path d="M81.7882 17.4356C81.7882 17.2081 81.6795 17.084 81.4185 17.084C81.1793 17.084 81.0488 17.2081 81.0488 17.4356C81.0488 17.6631 81.1793 17.7872 81.4185 17.7872C81.6795 17.7872 81.7882 17.6631 81.7882 17.4356Z" fill="white"/>
<path d="M81.3293 12.1616C80.7422 12.1616 80.1768 12.4098 79.6114 12.9062L80.0028 13.2992C80.4377 12.9062 80.9161 12.6994 81.3293 12.6994C82.6558 12.6994 82.721 13.8163 82.7428 14.9125V15.4709H78.959H78.872H78.4588C77.8065 15.4709 77.502 15.14 77.502 14.4781C77.415 13.5267 76.9366 12.9476 75.9581 12.9476C74.8708 12.9476 74.4141 13.6715 74.3923 14.6643C74.3271 15.1813 74.0009 15.4709 73.4573 15.4709H73.1963H73.0441H71.7611H71.5436H70.3259H70.1084H68.8906H68.6732H67.4554H67.2379H65.9549H65.8027H65.1068C64.7806 15.4709 64.6284 15.3054 64.6284 14.9538V10.6104L64.0195 10.7758V14.9538C64.0195 15.6364 64.3675 15.988 65.0198 15.988H65.8027H65.9549H67.2379H67.4554H68.6732H68.8906H70.1084H70.3259H71.5436H71.7611H73.0441H73.1963H73.5225C73.9357 15.988 74.3054 15.8639 74.5663 15.6364C74.8055 16.2155 75.2404 16.5258 75.9798 16.5258C76.6974 16.5258 77.1976 16.1741 77.3933 15.5536C77.6977 15.8432 78.0457 15.9673 78.5241 15.9673H78.872H78.959H83.3734V14.7056C83.3734 13.4646 83.1125 12.1616 81.3293 12.1616ZM75.9581 16.0087C75.2839 16.0087 75.023 15.595 75.023 14.7263C75.023 13.8576 75.3057 13.4646 75.9581 13.4646C76.6322 13.4646 76.8714 13.8576 76.8714 14.7263C76.8714 15.595 76.6104 16.0087 75.9581 16.0087Z" fill="white"/>
<path d="M25.2139 22.0276C25.2139 22.0276 26.2359 20.4764 22.9088 19.8559C19.3425 19.194 15.7326 19.5456 12.9492 20.7246C10.1657 21.9242 9.38281 21.5519 9.38281 21.5519C9.38281 21.5519 11.079 20.8073 16.1893 22.1724C19.7556 23.1238 23.4959 22.9377 24.1048 22.6688C24.7137 22.3999 25.2139 22.0276 25.2139 22.0276Z" fill="#82602B"/>
<path d="M6.07616 15.3263C5.40203 14.7678 4.03204 13.4855 3.31442 11.3965C3.09696 10.7553 2.68379 9.53498 2.90125 8.02511C3.24918 5.52243 4.96711 3.24728 4.96711 3.26796C4.4887 3.61958 0.4657 6.76343 0.574429 11.2724C0.617921 13.6509 1.85745 15.74 2.0749 16.0916C2.72728 17.1671 3.40141 17.8496 4.03204 18.4701C6.55457 20.9935 9.22932 22.2552 10.5558 22.855C12.0345 23.5375 13.3176 23.9305 13.9482 24.1167C15.0137 24.4476 15.7096 24.5924 17.0361 24.8819C18.928 25.2956 19.7978 25.399 20.7547 25.2542C20.9939 25.2129 21.3201 25.1301 21.5593 24.9854C22.8205 24.2201 24.234 23.1652 25.1908 22.007V21.9863C22.1899 21.7174 19.5804 21.2831 17.7537 20.8487C15.8183 20.3937 14.1439 19.98 12.0998 19.07C9.42503 17.9531 7.44615 16.5052 6.07616 15.3263Z" fill="#BB9753"/>
<path d="M11.1016 13.5889C10.4275 14.0232 11.0798 14.9953 11.7757 14.623C11.9279 14.5403 12.1019 14.4576 12.2324 14.3748C13.8198 13.5682 17.0382 12.8856 20.6915 13.5682C24.1709 14.2301 25.8888 14.1887 27.0631 13.7957C27.759 13.5475 28.3026 12.7409 28.3026 12.7409C28.3026 12.7409 28.4766 11.293 24.4536 10.9001C21.3439 10.6105 15.4508 10.8587 11.1016 13.5889Z" fill="#236993"/>
<path d="M26.0582 6.47378C26.1234 6.30831 26.08 6.14285 25.9712 5.99806C25.645 5.66713 24.7969 5.06732 23.34 4.90185C21.7743 4.7157 17.8165 4.19862 13.2716 5.89465C12.6845 6.12216 13.6413 6.92881 14.2284 6.74266L13.6413 6.88744C13.6413 6.88744 12.5757 6.74266 16.0551 6.99086C18.882 7.19769 21.9482 8.02502 23.5357 7.85955C24.9492 7.71477 25.7755 7.19769 26.0582 6.47378Z" fill="#77787B"/>
<path d="M12.2946 25.6057C14.8388 24.8611 16.5785 25.13 17.5571 25.4196C17.7528 25.4816 18.8836 25.7919 18.8401 26.1021C18.8183 26.371 17.8833 26.5571 16.8395 26.7433C16.4263 26.826 16.1218 26.8674 15.6434 26.9294C13.5123 27.1363 11.7292 26.826 11.49 26.7847C11.3377 26.764 10.0112 26.4951 8.64123 25.9366C6.83632 25.192 2.9003 23.041 1.0084 18.5941C-0.165879 15.8432 -0.0788936 13.3405 0.11682 11.9341C0.0515821 13.2578 0.0298355 17.6633 3.20474 21.2002C5.20537 23.434 7.85838 24.6129 8.8152 25.0473C9.29361 25.2541 10.4244 25.7298 11.9249 26.0814C13.5341 26.4537 14.6214 26.4537 15.252 26.4124C15.8826 26.371 16.9047 26.2469 16.9047 26.0814C16.9047 25.8953 15.6434 25.7091 15.3607 25.6884C14.5779 25.5643 13.5558 25.5023 12.2946 25.6057Z" fill="#BB9753"/>
<path d="M17.6243 1.59288C17.5591 1.63425 17.1677 1.84108 17.1024 2.23407C17.0589 2.48226 17.1459 2.6891 17.1894 2.77183C17.3634 3.14413 17.7113 3.39233 18.168 3.57848C18.3419 3.66121 19.0378 3.95077 20.7122 4.09556C21.1472 4.13692 21.7343 4.13692 22.4302 4.09556C23.2348 4.05419 23.6262 4.01282 23.7132 3.84736C23.9524 3.33028 21.843 1.98587 21.7126 1.90313C21.3646 1.67562 20.0164 0.868971 18.2767 0.517356C17.6678 0.393256 16.9285 0.269157 16.6458 0.227791C16.5805 0.227791 15.9499 0.124374 15.1453 0.0830078C15.1018 0.0830078 16.9502 0.517356 17.7548 0.724188C18.1027 0.806921 18.5377 0.931021 18.9943 1.09649C19.2988 1.1999 19.4945 1.30332 19.9294 1.48947C20.5818 1.79972 20.908 1.98587 21.2124 2.25475C21.4081 2.4409 21.5168 2.54431 21.4951 2.64773C21.4516 2.9373 20.6035 3.08208 20.0164 3.10276C19.364 3.10276 17.9505 2.95798 17.7983 2.25475C17.6896 1.77903 18.6029 1.34469 18.8638 1.34469C19.7554 1.36537 18.2985 1.26195 17.6243 1.59288Z" fill="#BCBEC0"/>
<path d="M23.9505 7.19778C23.5808 7.25983 23.2329 7.34256 22.8415 7.34256C22.2761 7.36324 21.6889 7.40461 20.7756 7.34256C19.3839 7.23914 18.2966 7.05299 17.9704 6.99094C15.3826 6.51523 14.0996 6.24635 12.8383 5.33628C11.8163 4.59169 11.6206 3.99187 11.5771 3.61958C11.4901 2.9784 11.7945 2.44063 11.9468 2.19243C12.4469 1.32374 13.3168 0.910071 13.6864 0.744605C13.9256 0.641189 14.1214 0.57914 14.2518 0.51709C13.7082 0.558456 13.2515 0.661873 12.9253 0.765289C12.6861 0.827338 12.2947 0.951438 11.8163 1.17895C11.3596 1.40647 11.0117 1.65467 10.7507 1.8615C10.4463 2.1097 9.85915 2.62678 9.66344 3.43343C9.40248 4.46759 9.90264 5.35697 10.1201 5.74995C12.099 9.28678 19.4491 10.1555 20.2755 10.2589C21.341 10.4037 22.2543 10.4657 22.9285 10.5071C25.5162 10.6519 26.6688 10.445 27.2559 10.3003C27.5169 10.2382 27.7561 10.1555 27.8865 10.0727C27.8865 10.0727 27.4516 8.14921 25.9946 6.03952C26.2556 6.4325 24.9726 7.01163 23.9505 7.19778Z" fill="#BCBEC0"/>
<path d="M20.7968 12.9684C13.7076 11.231 9.79336 8.79038 8.27115 6.72205C6.77068 4.67441 6.90115 0.889379 13.5554 0.0206832C13.5772 0.0206832 13.5772 0 13.5554 0C12.3594 0.0206832 6.48798 0.392982 4.94401 4.96398C2.83466 11.2103 13.6206 16.4018 15.5125 17.1464C17.4262 17.9117 22.2755 20.0007 26.9509 18.7804C27.1249 18.739 27.2771 18.5736 27.3641 18.4288C28.5166 16.0709 28.2992 12.8029 28.2992 12.6995C28.2992 12.6168 25.4504 14.106 20.7968 12.9684Z" fill="#4485B7"/>
</svg>
