<svg width="38" height="41" viewBox="0 0 38 41" fill="none" xmlns="http://www.w3.org/2000/svg">
<path d="M29.3545 35.2305L29.833 35.9252V40.3376C29.833 40.702 29.5367 40.9983 29.1723 40.9983H0.660704C0.296325 40.9983 0 40.702 0 40.3376V3.88156C0 3.5192 0.296304 3.22289 0.660704 3.22289H7.55784V4.77845H2.13628C1.81595 4.77845 1.55769 5.0367 1.55769 5.35701V38.8641C1.55769 39.1844 1.81596 39.4427 2.13628 39.4427H27.6967C28.0171 39.4427 28.2753 39.1844 28.2753 38.8641V35.7951C28.6457 35.6349 29.0062 35.4468 29.3545 35.2305ZM2.71468 38.2835H5.07914L2.71468 35.9192V38.2835ZM21.1197 2.28823H17.2076C16.8873 2.28823 16.629 2.02998 16.629 1.70967C16.629 0.766759 15.8602 0 14.9173 0C13.9723 0 13.2075 0.766759 13.2075 1.70967C13.2075 2.02998 12.9493 2.28823 12.6289 2.28823H8.71488V5.70962H21.1197V2.28823ZM5.89801 35.1024H3.53355L5.89801 37.4668V35.1024ZM10.6489 17.217C10.5208 16.9948 10.5208 16.7505 10.6489 16.5303L12.4868 13.3472L14.3267 10.1641C14.4528 9.94389 14.663 9.82177 14.9173 9.82177C15.1756 9.82177 15.3818 9.93989 15.5119 10.1661L19.1857 16.5304C19.3159 16.7546 19.3159 16.9909 19.1857 17.2151C19.0556 17.4393 18.8494 17.5594 18.5911 17.5594H11.2414C10.9831 17.5594 10.7769 17.4413 10.6468 17.2171L10.6489 17.217ZM15.548 16.188C15.548 15.8417 15.2657 15.5614 14.9173 15.5614C14.569 15.5614 14.2907 15.8416 14.2907 16.188C14.2907 16.5343 14.571 16.8186 14.9173 16.8186C15.2637 16.8186 15.548 16.5364 15.548 16.188ZM14.1786 12.4243L14.2907 14.5243C14.3107 14.8687 14.573 15.151 14.9174 15.151C15.2617 15.151 15.528 14.8687 15.544 14.5243L15.6582 12.4243C15.6782 12.0179 15.3238 11.6835 14.9174 11.6835C14.511 11.6835 14.1565 12.0179 14.1786 12.4243ZM7.55769 6.28803C7.55769 6.60835 7.81596 6.8666 8.13629 6.8666H21.6984C22.0187 6.8666 22.277 6.60834 22.277 6.28803V5.93368H27.12V19.7114C24.255 18.9326 21.0639 19.6653 18.8175 21.9095C15.486 25.2448 15.486 30.6683 18.8175 34.0016C20.4852 35.6692 22.6735 36.5021 24.8638 36.5021C25.6226 36.5021 26.3834 36.402 27.1201 36.2018V38.2858L7.05556 38.2838V34.5241C7.05556 34.2038 6.79729 33.9456 6.47697 33.9456H2.71509V5.93612H7.5581V6.29047L7.55769 6.28803ZM6.31239 26.8923C6.31239 27.2126 6.57066 27.4708 6.89099 27.4708H14.6733C14.9936 27.4708 15.2519 27.2126 15.2519 26.8923C15.2519 26.572 14.9936 26.3137 14.6733 26.3137H6.89099C6.57066 26.3137 6.31239 26.572 6.31239 26.8923ZM6.89099 24.7422H15.3437C15.664 24.7422 15.9223 24.4839 15.9223 24.1636C15.9223 23.8433 15.664 23.585 15.3437 23.585H6.89099C6.57066 23.585 6.31239 23.8433 6.31239 24.1636C6.31239 24.4839 6.57066 24.7422 6.89099 24.7422ZM6.31239 29.625C6.31239 29.9453 6.57066 30.2035 6.89099 30.2035H14.7532C15.0736 30.2035 15.3318 29.9453 15.3318 29.625C15.3318 29.3046 15.0735 29.0464 14.7532 29.0464H6.89099C6.57066 29.0464 6.31239 29.3046 6.31239 29.625ZM16.1868 32.3576C16.1868 32.0373 15.9286 31.7791 15.6082 31.7791H6.89109C6.57076 31.7791 6.3125 32.0373 6.3125 32.3576C6.3125 32.6779 6.57076 32.9362 6.89109 32.9362H15.6082C15.9286 32.9362 16.1868 32.6779 16.1868 32.3576ZM9.6459 17.7953C9.98024 18.3719 10.5769 18.7162 11.2416 18.7162H18.5913C19.266 18.7162 19.8486 18.3799 20.1869 17.7953C20.5213 17.2167 20.5213 16.528 20.1869 15.9515L16.5131 9.58718V9.58518C16.1788 9.00861 15.5821 8.66426 14.9154 8.66426C14.2507 8.66426 13.6521 9.0086 13.3218 9.58518L11.4819 12.7663L9.644 15.9514C9.31366 16.528 9.31355 17.2167 9.6459 17.7953ZM6.89104 20.8523C6.57071 20.8523 6.31244 21.1106 6.31244 21.4309C6.31244 21.7512 6.57071 22.0094 6.89104 22.0094H16.9633C17.2836 22.0094 17.5419 21.7512 17.5419 21.4309C17.5419 21.1106 17.2836 20.8523 16.9633 20.8523H6.89104ZM30.0913 33.1827C27.2083 36.0655 22.5197 36.0655 19.6367 33.1827C16.7557 30.3018 16.7557 25.6114 19.6367 22.7286C21.0782 21.2892 22.9721 20.5685 24.864 20.5685C26.7579 20.5685 28.6499 21.2892 30.0913 22.7286C32.9723 25.6134 32.9723 30.3019 30.0913 33.1827ZM29.1964 23.6234C28.0392 22.4663 26.4996 21.8277 24.8639 21.8277C23.2282 21.8277 21.6886 22.4643 20.5314 23.6214C19.3722 24.7786 18.7335 26.3181 18.7335 27.9537C18.7335 29.5913 19.3722 31.1288 20.5294 32.2879C21.6866 33.4451 23.2262 34.0837 24.8619 34.0837C26.4976 34.0837 28.0372 33.4471 29.1944 32.2879C31.5829 29.8976 31.5829 26.0097 29.1944 23.6215L29.1964 23.6234ZM33.641 34.8745L31.8591 36.6562L35.8332 40.6321C36.3257 41.1226 37.1245 41.1226 37.6151 40.6321C37.6231 40.6241 37.6311 40.6161 37.6411 40.6081C37.8613 40.4119 37.9895 40.1296 37.9995 39.8153C38.0095 39.455 37.8714 39.1026 37.6171 38.8484L33.643 34.8745L33.641 34.8745ZM31.5328 33.3049C31.3386 33.5451 31.1324 33.7774 30.9081 34.0016C30.7099 34.1998 30.5057 34.384 30.2955 34.5581L31.1223 35.7573L32.74 34.1397L31.5327 33.3069L31.5328 33.3049ZM28.3775 31.4711C27.4386 32.41 26.1913 32.9265 24.8639 32.9265C23.5365 32.9265 22.2892 32.41 21.3502 31.4711C20.4093 30.5302 19.8927 29.283 19.8927 27.9556C19.8927 26.6283 20.4112 25.3811 21.3502 24.4421C22.2892 23.5032 23.5365 22.9867 24.8639 22.9867C26.1913 22.9867 27.4385 23.5032 28.3775 24.4421C30.3155 26.38 30.3155 29.5332 28.3775 31.4732V31.4711ZM25.5866 30.9065C25.5866 30.7544 25.5246 30.6042 25.4165 30.4981C25.3884 30.4721 25.3604 30.4461 25.3284 30.4261C25.2963 30.404 25.2643 30.388 25.2283 30.372C25.1942 30.358 25.1562 30.346 25.1202 30.34C24.932 30.3019 24.7318 30.364 24.5976 30.4981C24.4895 30.6062 24.4275 30.7544 24.4275 30.9065C24.4275 30.9446 24.4315 30.9826 24.4375 31.0186C24.4455 31.0547 24.4555 31.0927 24.4695 31.1267C24.4835 31.1628 24.5015 31.1948 24.5236 31.2268C24.5436 31.2589 24.5676 31.2869 24.5956 31.3149C24.7037 31.423 24.8519 31.4851 25.0041 31.4851C25.0401 31.4851 25.0801 31.4811 25.1162 31.4731C25.1522 31.4651 25.1903 31.4551 25.2243 31.4411C25.2603 31.427 25.2924 31.409 25.3244 31.389C25.3564 31.367 25.3845 31.343 25.4125 31.3169C25.4385 31.2889 25.4625 31.2609 25.4846 31.2288C25.5046 31.1968 25.5226 31.1648 25.5366 31.1287C25.5506 31.0947 25.5626 31.0567 25.5686 31.0206C25.5767 30.9846 25.5807 30.9446 25.5807 30.9085L25.5866 30.9065ZM27.0142 26.6283C27.0142 25.4131 26.0271 24.4261 24.8139 24.4261C23.8889 24.4261 23.056 25.0107 22.7417 25.8815C22.6336 26.1818 22.7897 26.5142 23.09 26.6222C23.3904 26.7303 23.7227 26.5742 23.8308 26.2739C23.979 25.8595 24.3754 25.5832 24.8138 25.5832C25.3884 25.5832 25.857 26.0517 25.857 26.6282C25.857 26.9686 25.6908 27.2889 25.4125 27.4831C24.7598 27.9395 24.4275 28.4961 24.4275 29.1408C24.4275 29.4611 24.6857 29.7193 25.0061 29.7193C25.3264 29.7193 25.5846 29.4611 25.5846 29.1408C25.5846 28.9706 25.6407 28.7343 26.0732 28.4321C26.6617 28.0217 27.0121 27.347 27.0121 26.6283L27.0142 26.6283ZM28.2774 5.35727V20.1179C28.82 20.3542 29.3425 20.6464 29.8351 21.0008V3.88213C29.8351 3.51977 29.5388 3.22345 29.1744 3.22345H22.2772V4.77901H27.6988C28.0191 4.77901 28.2774 5.03696 28.2774 5.35727Z" fill="white"/>
</svg>
