<svg width="229" height="203" viewBox="0 0 229 203" fill="none" xmlns="http://www.w3.org/2000/svg">
<path opacity="0.6" d="M69.9708 182.638C77.8058 173.849 71.8042 155.733 56.566 142.175C41.3277 128.616 22.6231 124.75 14.7881 133.539C6.95309 142.328 12.9546 160.445 28.1929 174.003C43.4312 187.561 62.1358 191.427 69.9708 182.638Z" fill="#0C0F38"/>
<path d="M151.135 127.477L163.7 113.381L156.058 106.583C155.684 104.053 155.086 101.414 154.167 98.6421C145.977 73.9154 118.642 49.5939 93.1127 44.3173C90.2499 43.7265 87.5567 43.4362 84.9978 43.3566L77.3564 36.5579L64.7711 50.6755C59.0898 57.0483 57.6238 67.1712 61.7195 79.5353C69.9096 104.262 97.2453 128.583 122.774 133.86C135.556 136.501 145.458 133.866 151.135 127.477Z" fill="url(#paint0_linear_23_663)"/>
<path d="M65.4944 50.6622L77.7537 36.9101L77.3569 36.5564L64.7717 50.674C59.6862 56.3793 58.0137 65.1054 60.6493 75.7366C58.4326 65.1496 60.3307 56.4559 65.4944 50.6622Z" fill="#D4088C"/>
<path d="M163.02 112.776L150.86 126.417C145.183 132.806 135.28 135.441 122.5 132.799C96.9713 127.523 69.6371 103.201 61.4456 78.4744C61.0282 77.216 60.7081 75.9989 60.4058 74.7877C60.7553 76.3304 61.1845 77.91 61.7228 79.5323C69.9129 104.259 97.2486 128.58 122.778 133.857C135.557 136.498 145.46 133.864 151.137 127.475L163.701 113.38L163.02 112.776Z" fill="#6EE8FC"/>
<path d="M135.36 119.741C109.831 114.464 82.4971 90.143 74.3055 65.4163C66.1139 40.6896 80.1697 24.9232 105.699 30.1983C131.228 35.4749 158.562 59.7964 166.753 84.5231C174.943 109.25 160.889 125.018 135.36 119.741Z" fill="url(#paint1_linear_23_663)"/>
<path d="M106.636 31.495C119.603 34.1753 133.013 41.6341 144.302 51.5478C132.942 40.9961 119.085 32.967 105.699 30.1998C85.8104 26.0888 72.6455 34.7868 72.0776 50.506C73.8755 35.5044 86.9416 27.4237 106.636 31.495Z" fill="#D4088C"/>
<path d="M166.754 84.5231C164.579 77.9542 161.021 71.4266 156.536 65.2645C160.45 70.9257 163.565 76.8653 165.543 82.8359C173.735 107.563 159.679 123.329 134.15 118.054C115.403 114.179 95.7114 100.021 83.3135 82.9877C95.6126 100.771 115.997 115.739 135.362 119.741C160.89 125.018 174.944 109.25 166.754 84.5231Z" fill="#6EE8FC"/>
<path d="M129.799 103.396C113.486 100.024 96.0155 84.4804 90.7811 68.6786C85.5467 52.8769 94.5288 42.8011 110.843 46.1725C127.156 49.5438 144.625 65.0877 149.861 80.8895C155.095 96.6912 146.113 106.767 129.799 103.396Z" fill="#6DE0F6"/>
<path d="M103.239 54.7025C119.553 58.0739 137.022 73.6177 142.256 89.4195C143.951 94.534 144.135 99.034 143.084 102.687C150.42 99.6264 153.399 91.5767 149.859 80.8894C144.625 65.0877 127.156 49.5453 110.841 46.1724C99.8074 43.8915 92.1483 47.7771 89.9521 55.4113C93.4639 53.9466 97.9594 53.6121 103.239 54.7025Z" fill="#18D0F7"/>
<path d="M105.925 51.6892C122.239 55.0605 139.707 70.6044 144.942 86.4062C146.965 92.5153 146.844 97.7535 145.016 101.704C150.914 98.1028 153.07 90.582 149.859 80.8894C144.625 65.0877 127.156 49.5453 110.841 46.1724C100.834 44.1036 93.6052 47.1111 90.7056 53.3808C94.4252 51.1116 99.6184 50.3866 105.925 51.6892Z" fill="#25BFEC"/>
<path d="M108.317 49.0075C124.63 52.3789 142.101 67.9227 147.335 83.7245C149.649 90.7088 149.176 96.566 146.53 100.648C151.267 96.7369 152.782 89.7098 149.86 80.8909C144.626 65.0892 127.157 49.5468 110.842 46.174C101.737 44.2923 94.9261 46.6057 91.5854 51.7585C95.3376 48.6612 101.107 47.5163 108.317 49.0075Z" fill="#267FE5"/>
<path d="M160.014 75.6158C159.42 74.5328 158.139 73.6737 157.156 73.6988C156.172 73.7238 155.856 74.6227 156.452 75.7071C157.047 76.7902 158.327 77.6492 159.31 77.6241C160.294 77.5991 160.608 76.7003 160.014 75.6158Z" fill="#6EE8FC"/>
<path opacity="0.8" d="M163.473 83.9926C163.088 82.9435 161.914 81.943 160.852 81.7588C159.79 81.5746 159.24 82.2775 159.625 83.3266C160.01 84.3757 161.184 85.3762 162.246 85.5604C163.308 85.7446 163.858 85.0432 163.473 83.9926Z" fill="#6EE8FC"/>
<path opacity="0.6" d="M165.29 92.0114C165.121 91.0182 164.076 89.8998 162.96 89.5153C161.843 89.1307 161.075 89.6243 161.245 90.6174C161.414 91.6106 162.458 92.7289 163.575 93.1135C164.693 93.4981 165.461 93.0045 165.29 92.0114Z" fill="#6EE8FC"/>
<path opacity="0.4" d="M165.365 99.3641C165.417 98.4638 164.542 97.2717 163.414 96.7C162.285 96.1283 161.328 96.395 161.277 97.2938C161.225 98.1941 162.1 99.3862 163.228 99.9564C164.358 100.53 165.313 100.263 165.365 99.3641Z" fill="#6EE8FC"/>
<path opacity="0.2" d="M163.691 105.766C163.961 104.996 163.291 103.774 162.194 103.039C161.096 102.304 159.987 102.332 159.717 103.102C159.448 103.873 160.117 105.094 161.214 105.83C162.312 106.567 163.421 106.539 163.691 105.766Z" fill="#6EE8FC"/>
<path opacity="0.1" d="M159.706 111.313C160.611 111.184 160.797 110.222 160.12 109.164C159.445 108.106 158.162 107.353 157.256 107.482C156.35 107.61 156.165 108.572 156.842 109.63C157.519 110.688 158.8 111.441 159.706 111.313Z" fill="#6EE8FC"/>
<path d="M158.481 73.1147C178.691 73.1147 195.073 56.7474 195.073 36.5574C195.073 16.3673 178.691 0 158.481 0C138.272 0 121.889 16.3673 121.889 36.5574C121.889 56.7474 138.272 73.1147 158.481 73.1147Z" fill="url(#paint2_linear_23_663)"/>
<path d="M159.686 1.13958C179.865 2.24028 195.33 19.4757 194.228 39.6361C193.833 46.8591 191.338 53.4574 187.405 58.927C191.805 53.26 194.597 46.255 195.018 38.5516C196.12 18.3912 180.654 1.1558 160.476 0.0551023C147.527 -0.650701 135.809 5.47902 128.765 15.2763C135.878 6.11115 147.217 0.460302 159.686 1.13958Z" fill="#D4088C"/>
<path d="M187.768 58.4703C180.619 67.0372 169.682 72.2666 157.678 71.6124C137.499 70.5117 122.033 53.2762 123.136 33.1159C123.546 25.6203 126.194 18.7818 130.388 13.1972C125.52 19.0308 122.391 26.3982 121.946 34.5658C120.844 54.7262 136.309 71.9616 156.49 73.0623C169.165 73.7519 180.679 67.9066 187.768 58.4703Z" fill="#6EE8FC"/>
<path d="M164.45 30.9616C157.859 25.268 156.103 16.5081 160.53 11.3951C164.954 6.28206 173.885 6.75211 180.476 12.4442C187.066 18.1378 188.822 26.8977 184.396 32.0107C179.97 37.1237 171.041 36.6552 164.45 30.9616Z" fill="#6DE0F6"/>
<path d="M177.045 17.9109C182.02 22.2076 184.229 28.2489 183.116 33.1542C183.56 32.7961 184.015 32.4528 184.397 32.0108C188.824 26.8977 187.067 18.1378 180.477 12.4442C173.887 6.75067 164.957 6.2821 160.531 11.3936C159.445 12.6476 158.742 14.124 158.38 15.7169C163.088 11.9226 171.023 12.708 177.045 17.9109Z" fill="#25BFEC"/>
<path d="M178.874 14.9315C184.535 19.8205 186.597 26.9611 184.271 32.1227C184.309 32.08 184.358 32.0535 184.396 32.0108C188.822 26.8977 187.066 18.1378 180.476 12.4442C173.886 6.75067 164.956 6.2821 160.53 11.3936C159.906 12.1157 159.435 12.9217 159.053 13.7689C163.516 8.79293 172.339 9.28654 178.874 14.9315Z" fill="#267FE5"/>
<path d="M164.288 117.149C160.736 117.149 157.856 114.273 157.856 110.723C157.856 107.174 160.735 104.297 164.288 104.297C167.84 104.297 170.72 107.174 170.72 110.723C170.72 114.273 167.84 117.149 164.288 117.149Z" fill="#6EE8FC"/>
<path d="M189.577 138.633C191.361 138.633 192.808 137.187 192.808 135.404C192.808 133.621 191.361 132.176 189.577 132.176C187.792 132.176 186.345 133.621 186.345 135.404C186.345 137.187 187.792 138.633 189.577 138.633Z" fill="#6EE8FC"/>
<path d="M222.319 102.794C218.629 102.794 215.638 99.8061 215.638 96.1195C215.638 92.4328 218.629 89.4445 222.319 89.4445C226.009 89.4445 229 92.4328 229 96.1195C229 99.8061 226.009 102.794 222.319 102.794Z" fill="#6EE8FC"/>
<path d="M207.41 90.6351C205.84 90.6351 204.567 89.3635 204.567 87.7957C204.567 86.2279 205.84 84.9563 207.41 84.9563C208.979 84.9563 210.252 86.2279 210.252 87.7957C210.252 89.3635 208.979 90.6351 207.41 90.6351Z" fill="#6EE8FC"/>
<path d="M206.534 107.822C203.756 107.822 201.502 105.57 201.502 102.794C201.502 100.018 203.756 97.7668 206.534 97.7668C209.313 97.7668 211.567 100.018 211.567 102.794C211.565 105.572 209.313 107.822 206.534 107.822Z" fill="#6EE8FC"/>
<path d="M131.313 203.008C153.939 203.008 172.28 184.684 172.28 162.08C172.28 139.477 153.939 121.153 131.313 121.153C108.688 121.153 90.3467 139.477 90.3467 162.08C90.3467 184.684 108.688 203.008 131.313 203.008Z" fill="#6EE8FC"/>
<path d="M129.557 162.441C119.347 152.242 117.527 137.522 125.492 129.565C133.456 121.608 148.189 123.426 158.4 133.626C168.609 143.825 170.429 158.545 162.465 166.502C154.5 174.459 139.766 172.641 129.557 162.441Z" fill="#3BE1FA"/>
<path d="M135.953 156.051C130.271 150.375 129.258 142.185 133.69 137.757C138.122 133.33 146.32 134.342 152.001 140.018C157.682 145.694 158.695 153.883 154.263 158.311C149.831 162.738 141.634 161.727 135.953 156.051Z" fill="#18D0F7"/>
<path d="M152.003 140.016C146.322 134.34 138.124 133.328 133.692 137.756C133.606 137.841 133.537 137.937 133.456 138.024C137.943 133.887 145.926 134.953 151.498 140.52C157.071 146.087 158.138 154.063 153.997 158.545C154.085 158.464 154.18 158.395 154.265 158.31C158.696 153.883 157.683 145.692 152.003 140.016Z" fill="#267FE5"/>
<path d="M141.052 150.956C138.981 148.887 138.613 145.901 140.228 144.288C141.843 142.674 144.831 143.043 146.902 145.112C148.972 147.18 149.341 150.166 147.726 151.779C146.11 153.393 143.123 153.024 141.052 150.956Z" fill="#267FE5"/>
<path d="M67.3863 179.91C77.2424 179.91 85.2325 171.927 85.2325 162.08C85.2325 152.234 77.2424 144.251 67.3863 144.251C57.5301 144.251 49.54 152.234 49.54 162.08C49.54 171.927 57.5301 179.91 67.3863 179.91Z" fill="#6EE8FC"/>
<path d="M89.1678 125.035C86.423 127.777 81.9733 127.777 79.2285 125.035C76.4837 122.293 76.4837 117.848 79.2285 115.105C81.9733 112.363 86.423 112.363 89.1678 115.105C91.9126 117.848 91.9126 122.293 89.1678 125.035Z" fill="#6EE8FC"/>
<path d="M70.3835 159.086C67.5163 156.222 67.006 152.089 69.2419 149.853C71.4793 147.618 75.6164 148.129 78.4836 150.994C81.3508 153.858 81.8611 157.991 79.6252 160.227C77.3878 162.462 73.2507 161.951 70.3835 159.086Z" fill="#3BE1FA"/>
<path d="M90.3893 17.6029C91.9748 18.4207 92.5972 20.3687 91.7771 21.9527C90.9586 23.5367 89.0088 24.1585 87.4232 23.3392C85.8377 22.5214 85.2153 20.5735 86.0339 18.9895C86.8554 17.4055 88.8037 16.7851 90.3893 17.6029Z" fill="#6EE8FC"/>
<path d="M44.8385 34.4376C48.1172 36.1291 49.4033 40.1547 47.7101 43.4303C46.017 46.7059 41.9876 47.9893 38.7089 46.2992C35.4302 44.6076 34.1455 40.582 35.8373 37.3064C37.529 34.0294 41.5598 32.746 44.8385 34.4376Z" fill="#6EE8FC"/>
<path d="M52.5018 52.0768C53.8971 52.7958 54.4428 54.508 53.7231 55.902C53.0033 57.2944 51.2895 57.8411 49.8942 57.122C48.5005 56.4029 47.9533 54.6908 48.673 53.2968C49.3928 51.9029 51.1066 51.3562 52.5018 52.0768Z" fill="#6EE8FC"/>
<path d="M61.1739 37.2063C63.6428 38.4808 64.6118 41.5133 63.3361 43.9799C62.0603 46.4465 59.0249 47.4146 56.556 46.14C54.087 44.8655 53.118 41.833 54.3938 39.3664C55.6681 36.8998 58.7034 35.9317 61.1739 37.2063Z" fill="#6EE8FC"/>
<defs>
<linearGradient id="paint0_linear_23_663" x1="64.7725" y1="50.6753" x2="151.043" y2="127.581" gradientUnits="userSpaceOnUse">
<stop stop-color="#A31FA9"/>
<stop offset="0.0668" stop-color="#8B17A0"/>
<stop offset="0.1494" stop-color="#740F98"/>
<stop offset="0.2393" stop-color="#640A92"/>
<stop offset="0.3408" stop-color="#5B078F"/>
<stop offset="0.4785" stop-color="#58068E"/>
<stop offset="0.6264" stop-color="#4D22A3"/>
<stop offset="0.9436" stop-color="#3168DA"/>
<stop offset="1" stop-color="#2C75E4"/>
</linearGradient>
<linearGradient id="paint1_linear_23_663" x1="105.698" y1="30.1994" x2="89.1635" y2="110.192" gradientUnits="userSpaceOnUse">
<stop stop-color="#8D139B"/>
<stop offset="0.1651" stop-color="#851BA1"/>
<stop offset="0.4284" stop-color="#6E33B2"/>
<stop offset="0.7551" stop-color="#4958CD"/>
<stop offset="1" stop-color="#2979E4"/>
</linearGradient>
<linearGradient id="paint2_linear_23_663" x1="185.752" y1="11.8941" x2="131.528" y2="61.0262" gradientUnits="userSpaceOnUse">
<stop stop-color="#A31FA9"/>
<stop offset="0.0668" stop-color="#8B17A0"/>
<stop offset="0.1494" stop-color="#740F98"/>
<stop offset="0.2393" stop-color="#640A92"/>
<stop offset="0.3408" stop-color="#5B078F"/>
<stop offset="0.4785" stop-color="#58068E"/>
<stop offset="0.5586" stop-color="#54229C"/>
<stop offset="0.7318" stop-color="#4B69BF"/>
<stop offset="0.9831" stop-color="#3CD9F6"/>
<stop offset="1" stop-color="#3BE1FA"/>
</linearGradient>
</defs>
</svg>
