<svg width="103" height="100" viewBox="0 0 103 100" fill="none" xmlns="http://www.w3.org/2000/svg">
<ellipse cx="51.5" cy="50" rx="51.5" ry="50" fill="url(#paint0_linear_2035_933)"/>
<path d="M49.543 11.0963C50.758 10.4153 52.2397 10.4153 53.4547 11.0963L85.1349 28.8542C86.3973 29.5618 87.1791 30.8962 87.1791 32.3434V67.6566C87.1791 69.1038 86.3973 70.4382 85.1349 71.1458L53.4547 88.9037C52.2397 89.5847 50.758 89.5847 49.543 88.9037L17.8627 71.1458C16.6003 70.4382 15.8186 69.1038 15.8186 67.6566V32.3434C15.8186 30.8962 16.6003 29.5618 17.8627 28.8542L49.543 11.0963Z" fill="url(#paint1_linear_2035_933)"/>
<path d="M48.7351 19.6447C50.2816 18.1654 52.7184 18.1654 54.2649 19.6447L82.978 47.1094C84.6249 48.6846 84.6249 51.3154 82.978 52.8906L54.2649 80.3553C52.7184 81.8346 50.2816 81.8346 48.7351 80.3553L20.022 52.8906C18.3751 51.3154 18.3751 48.6846 20.022 47.1094L48.7351 19.6447Z" fill="#EAEAEA"/>
<path d="M67.8055 62.3062C67.8055 62.3062 69.3016 60.1015 64.4311 59.2197C59.2105 58.279 53.9262 58.7787 49.8515 60.4543C45.7769 62.1592 44.6309 61.6301 44.6309 61.6301C44.6309 61.6301 47.1139 60.5719 54.5947 62.512C59.8153 63.8642 65.2906 63.5996 66.182 63.2175C67.0733 62.8353 67.8055 62.3062 67.8055 62.3062Z" fill="#82602B"/>
<path d="M39.7894 52.7822C38.8026 51.9885 36.7971 50.166 35.7466 47.197C35.4282 46.2857 34.8234 44.5514 35.1417 42.4055C35.6511 38.8486 38.1659 35.6151 38.1659 35.6445C37.4656 36.1442 31.5764 40.6124 31.7356 47.0206C31.7993 50.4011 33.6138 53.3701 33.9321 53.8698C34.8871 55.3984 35.8739 56.3684 36.7971 57.2503C40.4897 60.8366 44.4052 62.6297 46.347 63.4822C48.5117 64.4523 50.3899 65.0108 51.313 65.2753C52.8728 65.7457 53.8915 65.9514 55.8333 66.363C58.6028 66.9509 59.8762 67.0979 61.2768 66.8921C61.627 66.8333 62.1045 66.7157 62.4546 66.51C64.301 65.4223 66.3701 63.9231 67.7708 62.277V62.2476C63.3778 61.8654 59.5578 61.2481 56.8838 60.6308C54.0507 59.9841 51.5995 59.3962 48.6072 58.1028C44.6917 56.5154 41.7949 54.4577 39.7894 52.7822Z" fill="#BB9753"/>
<path d="M47.1451 50.313C46.1583 50.9303 47.1132 52.3119 48.1319 51.7827C48.3547 51.6652 48.6094 51.5476 48.8004 51.43C51.1242 50.2836 55.8355 49.3135 61.1835 50.2836C66.2768 51.2242 68.7917 51.1654 70.5107 50.6069C71.5293 50.2542 72.3252 49.1077 72.3252 49.1077C72.3252 49.1077 72.5798 47.05 66.6907 46.4915C62.1385 46.08 53.5117 46.4327 47.1451 50.313Z" fill="#236993"/>
<path d="M69.0435 40.2011C69.139 39.966 69.0753 39.7308 68.9162 39.525C68.4387 39.0547 67.1972 38.2022 65.0643 37.967C62.7724 37.7025 56.9787 36.9676 50.3256 39.378C49.4661 39.7014 50.8667 40.8478 51.7262 40.5833L50.8667 40.789C50.8667 40.789 49.3069 40.5833 54.4002 40.936C58.5385 41.23 63.027 42.4058 65.3508 42.1706C67.42 41.9649 68.6297 41.23 69.0435 40.2011Z" fill="#77787B"/>
<path d="M48.8941 67.3917C52.6186 66.3335 55.1652 66.7156 56.5977 67.1272C56.8842 67.2154 58.5396 67.6563 58.4759 68.0972C58.4441 68.4794 57.0752 68.7439 55.5472 69.0085C54.9424 69.1261 54.4967 69.1849 53.7964 69.2731C50.6768 69.567 48.0664 69.1261 47.7163 69.0673C47.4934 69.0379 45.5516 68.6557 43.5461 67.8621C40.904 66.8038 35.1421 63.7467 32.3727 57.4266C30.6537 53.517 30.781 49.9601 31.0675 47.9612C30.972 49.8425 30.9402 56.1038 35.5878 61.1305C38.5165 64.3052 42.4001 65.9807 43.8008 66.5981C44.5011 66.892 46.1564 67.5681 48.3529 68.0678C50.7086 68.597 52.3003 68.597 53.2234 68.5382C54.1466 68.4794 55.6427 68.303 55.6427 68.0678C55.6427 67.8033 53.7964 67.5387 53.3826 67.5093C52.2366 67.3329 50.7404 67.2448 48.8941 67.3917Z" fill="#BB9753"/>
<path d="M56.6926 33.2638C56.5971 33.3226 56.0241 33.6166 55.9286 34.1751C55.8649 34.5278 55.9923 34.8218 56.0559 34.9394C56.3106 35.4685 56.8199 35.8212 57.4884 36.0858C57.7431 36.2034 58.7618 36.6149 61.2129 36.8207C61.8496 36.8795 62.7091 36.8795 63.7277 36.8207C64.9056 36.7619 65.4786 36.7031 65.6059 36.4679C65.9561 35.733 62.8682 33.8223 62.6772 33.7047C62.1679 33.3814 60.1943 32.235 57.6476 31.7352C56.7563 31.5589 55.6739 31.3825 55.2601 31.3237C55.1646 31.3237 54.2414 31.1767 53.0636 31.1179C52.9999 31.1179 55.7058 31.7352 56.8836 32.0292C57.3929 32.1468 58.0296 32.3231 58.6981 32.5583C59.1438 32.7053 59.4302 32.8523 60.0669 33.1168C61.0219 33.5578 61.4994 33.8223 61.9451 34.2045C62.2316 34.469 62.3907 34.616 62.3589 34.763C62.2952 35.1745 61.0538 35.3803 60.1943 35.4097C59.2393 35.4097 57.1701 35.2039 56.9473 34.2045C56.7881 33.5284 58.1251 32.9111 58.5071 32.9111C59.8122 32.9405 57.6794 32.7935 56.6926 33.2638Z" fill="#BCBEC0"/>
<path d="M65.9577 41.2299C65.4165 41.3181 64.9072 41.4357 64.3342 41.4357C63.5065 41.4651 62.6471 41.5239 61.3101 41.4357C59.2727 41.2887 57.6811 41.0241 57.2036 40.936C53.4154 40.2599 51.5373 39.8777 49.6909 38.5843C48.1948 37.5261 47.9083 36.6736 47.8446 36.1445C47.7173 35.2332 48.1629 34.4689 48.3858 34.1162C49.1179 32.8815 50.3913 32.2936 50.9324 32.0585C51.2826 31.9115 51.5691 31.8233 51.7601 31.7351C50.9643 31.7939 50.2958 31.9409 49.8183 32.0879C49.4681 32.176 48.8951 32.3524 48.1948 32.6758C47.5263 32.9991 47.0169 33.3519 46.6349 33.6458C46.1893 33.9986 45.3298 34.7335 45.0433 35.8799C44.6613 37.3497 45.3934 38.6137 45.7118 39.1722C48.6086 44.1989 59.3682 45.4335 60.5779 45.5805C62.1377 45.7862 63.4747 45.8744 64.4615 45.9332C68.2497 46.139 69.9369 45.845 70.7964 45.6393C71.1784 45.5511 71.5285 45.4335 71.7195 45.3159C71.7195 45.3159 71.0829 42.5821 68.95 39.5838C69.332 40.1423 67.4539 40.9654 65.9577 41.2299Z" fill="#BCBEC0"/>
<path d="M61.3411 49.4311C50.9635 46.9619 45.2335 43.4932 43.0052 40.5536C40.8087 37.6434 40.9997 32.264 50.7407 31.0294C50.7725 31.0294 50.7725 31 50.7407 31C48.9898 31.0294 40.3949 31.5585 38.1347 38.055C35.0469 46.9325 50.8362 54.3108 53.6057 55.369C56.407 56.4567 63.5058 59.4256 70.3499 57.6913C70.6046 57.6325 70.8274 57.3973 70.9548 57.1916C72.6419 53.8405 72.3236 49.1959 72.3236 49.049C72.3236 48.9314 68.1534 51.0479 61.3411 49.4311Z" fill="#4485B7"/>
<defs>
<linearGradient id="paint0_linear_2035_933" x1="21.63" y1="15.5" x2="76.0841" y2="94.0228" gradientUnits="userSpaceOnUse">
<stop stop-color="#4485B7"/>
<stop offset="1" stop-color="#86642E"/>
</linearGradient>
<linearGradient id="paint1_linear_2035_933" x1="16.9938" y1="47" x2="60.6315" y2="86.7805" gradientUnits="userSpaceOnUse">
<stop stop-color="white"/>
<stop offset="1" stop-color="#BABABA"/>
</linearGradient>
</defs>
</svg>
