<svg width="143" height="46" viewBox="0 0 143 46" fill="none" xmlns="http://www.w3.org/2000/svg">
<path d="M60.7236 34.0752H57.6855V42.4267H60.6865C63.6134 42.4267 64.9101 40.8409 64.9101 38.0571C64.9471 35.3438 63.4281 34.0752 60.7236 34.0752ZM60.7976 41.4752H58.8711V34.9914H60.8347C62.9835 34.9914 63.7616 36.1895 63.7616 38.1981C63.7616 41.2638 61.6127 41.4752 60.7976 41.4752Z" fill="white"/>
<path d="M70.3935 39.7838C70.3935 40.8762 69.7637 41.6867 68.504 41.6867C67.6889 41.6867 67.2073 41.1934 67.2073 40.4534V36.3657H66.1699V40.3477C66.1699 41.6515 66.6886 42.5677 68.3558 42.5677C69.282 42.5677 69.986 42.2153 70.4305 41.4753H70.4676V42.4267H71.4309V36.3657H70.3935V39.7838Z" fill="white"/>
<path d="M76.1726 36.2248C75.2835 36.2248 74.5055 36.5067 74.135 37.1762H74.0979V34.04H73.0605V42.3915H74.0979V41.581H74.135C74.6166 42.2858 75.5428 42.5325 76.1726 42.5325C78.0992 42.5325 79.0625 41.0877 79.0625 39.3963C79.0995 37.7048 78.0992 36.2248 76.1726 36.2248ZM76.0615 41.6867C74.6166 41.6867 74.0609 40.5944 74.0609 39.3963C74.0609 38.2686 74.6166 37.1058 75.9874 37.1058C77.3582 37.1058 77.951 38.1982 77.951 39.3258C77.988 40.5239 77.5064 41.6867 76.0615 41.6867Z" fill="white"/>
<path d="M85.2862 41.0169V37.916C85.2862 36.5064 84.0265 36.2598 82.9151 36.2598C81.5072 36.2598 80.2846 36.7883 80.2105 38.2683H81.2479C81.2849 37.3874 81.9518 37.1055 82.841 37.1055C83.5079 37.1055 84.2488 37.2464 84.2488 38.1274C84.2488 38.8674 83.2485 38.7969 82.1 39.0084C81.0256 39.2198 79.9512 39.5017 79.9512 40.876C79.9512 42.0741 80.9144 42.5674 82.063 42.5674C82.9521 42.5674 83.7302 42.2855 84.2859 41.616C84.2859 42.2855 84.6193 42.5674 85.1751 42.5674C85.5085 42.5674 85.7308 42.4969 85.916 42.3912V41.616C85.7678 41.6512 85.6937 41.6865 85.5826 41.6865C85.2862 41.6865 85.2862 41.475 85.2862 41.0169ZM84.2488 40.3122C84.2488 40.876 83.6931 41.6865 82.3223 41.6865C81.6925 41.6865 81.0997 41.4398 81.0997 40.8055C81.0997 40.0655 81.6925 39.8188 82.3964 39.7131C83.1003 39.6074 83.8783 39.5722 84.2859 39.2903V40.3122H84.2488Z" fill="white"/>
<path d="M88.0296 36.3657H86.9922V42.4267H88.0296V36.3657Z" fill="white"/>
<path d="M88.0296 34.0752H86.9922V35.3085H88.0296V34.0752Z" fill="white"/>
<path d="M96.958 41.6867C94.8462 41.6867 93.957 40.1009 93.957 38.1981C93.957 36.4714 94.8462 34.8152 96.921 34.8152C98.1436 34.8152 99.1439 35.4143 99.3662 36.5771H100.552C100.292 34.8152 98.7734 33.8638 96.921 33.8638C94.2164 33.8638 92.7715 35.8371 92.7715 38.2686C92.7715 40.7 94.1052 42.6029 96.8469 42.6029C99.0698 42.6029 100.441 41.3343 100.663 39.2552H99.4773C99.4032 40.6648 98.5141 41.6867 96.958 41.6867Z" fill="white"/>
<path d="M106.145 39.7838C106.145 40.8762 105.516 41.6867 104.256 41.6867C103.441 41.6867 102.959 41.1934 102.959 40.4534V36.3657H101.922V40.3477C101.922 41.6515 102.441 42.5677 104.108 42.5677C105.034 42.5677 105.738 42.2153 106.182 41.4753H106.22V42.4267H107.22V36.3657H106.182V39.7838H106.145Z" fill="white"/>
<path d="M111.702 38.9384C110.738 38.727 109.627 38.5861 109.627 37.8813C109.627 37.2822 110.368 37.1061 110.998 37.1061C111.702 37.1061 112.406 37.3527 112.48 38.128H113.517C113.443 36.648 112.294 36.2251 110.924 36.2251C109.812 36.2251 108.553 36.7184 108.553 37.9518C108.553 39.1146 109.59 39.4318 110.627 39.6432C111.665 39.8546 112.702 39.9956 112.702 40.7708C112.702 41.5461 111.813 41.687 111.183 41.687C110.331 41.687 109.516 41.4051 109.479 40.5242H108.441C108.516 42.0042 109.701 42.568 111.146 42.568C112.443 42.568 113.851 42.1099 113.851 40.6651C113.776 39.467 112.739 39.1499 111.702 38.9384Z" fill="white"/>
<path d="M116.37 34.5684H115.332V36.3655H114.258V37.2465H115.332V41.0874C115.332 42.2151 115.777 42.3913 116.851 42.3913H117.666V41.5103H117.185C116.518 41.5103 116.407 41.4398 116.407 40.9817V37.2112H117.666V36.3303H116.407V34.5684H116.37Z" fill="white"/>
<path d="M121.557 36.2251C119.557 36.2251 118.482 37.5994 118.482 39.3965C118.482 41.1585 119.557 42.568 121.557 42.568C123.558 42.568 124.633 41.1937 124.633 39.3965C124.633 37.6346 123.558 36.2251 121.557 36.2251ZM121.557 41.687C120.446 41.687 119.594 40.8766 119.594 39.3965C119.594 37.9165 120.483 37.1061 121.557 37.1061C122.669 37.1061 123.521 37.9165 123.521 39.3965C123.521 40.8766 122.632 41.687 121.557 41.687Z" fill="white"/>
<path d="M132.672 36.2251C131.857 36.2251 131.116 36.6127 130.672 37.247C130.412 36.507 129.709 36.2251 128.931 36.2251C128.041 36.2251 127.337 36.5775 126.893 37.247H126.856V36.366H125.855V42.427H126.893V38.6565C126.893 38.1984 127.337 37.1061 128.597 37.1061C129.523 37.1061 129.783 37.6699 129.783 38.4451V42.3918H130.82V38.6213C130.82 37.6699 131.487 37.0708 132.487 37.0708C133.525 37.0708 133.71 37.6699 133.71 38.4099V42.3566H134.747V37.9165C134.784 36.7184 133.932 36.2251 132.672 36.2251Z" fill="white"/>
<path d="M139.266 38.9384C138.303 38.727 137.191 38.5861 137.191 37.8813C137.191 37.2822 137.932 37.1061 138.562 37.1061C139.266 37.1061 139.97 37.3527 140.044 38.128H141.082C141.007 36.648 139.859 36.2251 138.488 36.2251C137.377 36.2251 136.117 36.7184 136.117 37.9518C136.117 39.1146 137.154 39.4318 138.192 39.6432C139.229 39.8546 140.266 39.9956 140.266 40.7708C140.266 41.5461 139.377 41.687 138.747 41.687C137.895 41.687 137.08 41.4051 137.043 40.5242H136.006C136.08 42.0042 137.266 42.568 138.71 42.568C140.007 42.568 141.415 42.1099 141.415 40.6651C141.341 39.467 140.304 39.1499 139.266 38.9384Z" fill="white"/>
<path d="M62.0565 32.4545C62.0565 32.0669 61.8342 31.8555 61.4267 31.8555C61.0192 31.8555 60.7969 32.0669 60.7969 32.4545C60.7969 32.8421 60.9821 33.0536 61.4267 33.0536C61.8713 33.0536 62.0565 32.8421 62.0565 32.4545Z" fill="white"/>
<path d="M60.0194 32.4545C60.0194 32.0669 59.8342 31.8555 59.3896 31.8555C58.9821 31.8555 58.7598 32.0669 58.7598 32.4545C58.7598 32.8421 58.9821 33.0536 59.3896 33.0536C59.8342 33.0536 60.0194 32.8421 60.0194 32.4545Z" fill="white"/>
<path d="M81.8045 24.7725V20.7905L80.7672 21.1429V24.6667C80.7672 25.7944 80.2485 26.3229 79.1741 26.3229H78.6924H78.4331H76.2472H75.8767H73.802H73.4315H71.4309H71.0604H68.9856H68.6152H66.5404H66.1699H63.9099H63.7247H63.0578C62.3168 26.3229 61.7982 25.9001 61.4647 25.0544L61.0572 26.0763C61.3165 26.781 61.8723 27.2391 62.9467 27.2391C62.8726 28.4372 61.7241 29.0011 60.2421 29.0011C58.4267 29.0011 57.6116 27.6972 57.6116 25.9706C57.6116 25.1953 57.7969 24.0677 58.3156 22.7639L57.2041 23.5039C56.8336 24.4905 56.6113 25.4067 56.6113 26.2172C56.6113 28.3668 57.908 29.9525 60.2421 29.9525C62.5762 29.9525 63.984 28.7544 63.984 27.2039H66.244H66.6145H68.6892H69.0597H71.0604H71.4309H73.5056H73.8761H75.9508H76.3213H78.5072H78.7665H79.3223C80.8042 27.2391 81.8045 26.2525 81.8045 24.7725Z" fill="white"/>
<path d="M80.8788 29.706C80.8788 29.3184 80.6936 29.1069 80.249 29.1069C79.8414 29.1069 79.6191 29.3184 79.6191 29.706C79.6191 30.0936 79.8414 30.305 80.249 30.305C80.6565 30.305 80.8788 30.0936 80.8788 29.706Z" fill="white"/>
<path d="M85.8802 21.1074C85.1022 21.1426 84.3983 21.4597 83.8796 22.0236V23.2217C84.3983 22.5169 85.1022 22.0236 85.8802 22.0236C86.8064 22.0236 87.5104 22.5521 87.5104 23.6798V26.3226H83.7314L83.1016 27.2388H88.5477V23.6093C88.5477 22.0588 87.4733 21.0721 85.8802 21.1074Z" fill="white"/>
<path d="M99.2546 22.3765H96.9205V21.8832C96.9205 21.3546 97.291 20.8965 97.8097 20.8965C98.069 20.8965 98.2913 21.0374 98.5506 21.2489L99.0693 20.7555C98.6988 20.4032 98.3284 20.2622 97.9208 20.2622C96.8464 20.2622 96.2166 21.0374 96.2166 22.0241V22.3765H95.5126L94.8828 23.0108H99.2175V22.3765H99.2546Z" fill="white"/>
<path d="M102.403 18.0771L101.403 18.3943V24.6667C101.403 25.7943 100.847 26.3229 99.81 26.3229H94.9195C93.8451 26.3229 93.2894 25.7943 93.2894 24.6667V21.7067L92.2891 22.9048V24.7724C92.2891 26.2877 93.2523 27.2391 94.7343 27.2391H99.8841C101.366 27.2391 102.44 26.2877 102.44 24.7724V18.0771H102.403Z" fill="white"/>
<path d="M106.552 26.8514C106.552 28.0495 105.922 29.1067 104.626 29.1067C104.107 29.1067 103.44 29.0362 102.699 28.6133L103.181 29.6353C103.662 29.8467 104.329 29.9524 104.737 29.9524C106.812 29.9524 107.627 28.4724 107.59 26.64V20.8257L106.589 21.1428V26.8514H106.552Z" fill="white"/>
<path d="M139.342 29.706C139.342 29.3184 139.156 29.1069 138.712 29.1069C138.304 29.1069 138.082 29.3184 138.082 29.706C138.082 30.0936 138.304 30.305 138.712 30.305C139.156 30.305 139.342 30.0936 139.342 29.706Z" fill="white"/>
<path d="M138.563 20.72C137.563 20.72 136.6 21.1429 135.636 21.9886L136.303 22.6581C137.044 21.9886 137.859 21.6362 138.563 21.6362C140.823 21.6362 140.934 23.5391 140.971 25.4067V26.3581H134.525H134.377H133.673C132.561 26.3581 132.043 25.7943 132.043 24.6667C131.894 23.0457 131.079 22.0591 129.412 22.0591C127.56 22.0591 126.782 23.2924 126.745 24.9839C126.633 25.8648 126.078 26.3581 125.151 26.3581H124.707H124.448H122.262H121.891H119.816H119.446H117.371H117.001H114.926H114.555H112.37H112.11H110.925C110.369 26.3581 110.11 26.0762 110.11 25.4772V18.0771L109.072 18.3591V25.4772C109.072 26.6401 109.665 27.2391 110.777 27.2391H112.11H112.37H114.555H114.926H117.001H117.371H119.446H119.816H121.891H122.262H124.448H124.707H125.263C125.967 27.2391 126.596 27.0277 127.041 26.6401C127.448 27.6267 128.189 28.1553 129.449 28.1553C130.672 28.1553 131.524 27.5562 131.857 26.4991C132.376 26.9924 132.969 27.2039 133.784 27.2039H134.377H134.525H142.046V25.0543C142.046 22.94 141.601 20.72 138.563 20.72ZM129.412 27.2743C128.264 27.2743 127.819 26.5696 127.819 25.0896C127.819 23.6096 128.301 22.94 129.412 22.94C130.561 22.94 130.968 23.6096 130.968 25.0896C130.968 26.5696 130.524 27.2743 129.412 27.2743Z" fill="white"/>
<path d="M42.9559 37.5285C42.9559 37.5285 44.6972 34.8857 39.0288 33.8285C32.9527 32.7009 26.8026 33.2999 22.0604 35.3085C17.3181 37.3524 15.9844 36.7181 15.9844 36.7181C15.9844 36.7181 18.8742 35.4495 27.5807 37.7752C33.6567 39.3962 40.0291 39.079 41.0664 38.6209C42.1038 38.1628 42.9559 37.5285 42.9559 37.5285Z" fill="#82602B"/>
<path d="M10.3517 26.1115C9.20314 25.1601 6.86906 22.9753 5.64645 19.4163C5.27596 18.3239 4.57204 16.2448 4.94253 13.6724C5.53531 9.40859 8.46216 5.53238 8.46216 5.56762C7.64709 6.16667 0.793052 11.5229 0.978296 19.2048C1.05239 23.2572 3.16419 26.8163 3.53467 27.4154C4.64614 29.2478 5.79465 30.4106 6.86907 31.4678C11.1667 35.7668 15.7237 37.9164 17.9837 38.9383C20.503 40.1011 22.6889 40.7707 23.7633 41.0878C25.5787 41.6516 26.7643 41.8983 29.0243 42.3916C32.2475 43.0964 33.7295 43.2726 35.3596 43.0259C35.7672 42.9554 36.3229 42.8145 36.7304 42.5678C38.8792 41.264 41.2874 39.4669 42.9176 37.4935V37.4583C37.8048 37.0002 33.359 36.2602 30.2469 35.5202C26.9495 34.7449 24.0968 34.0402 20.6142 32.4897C16.0572 30.5868 12.6857 28.1201 10.3517 26.1115Z" fill="#BB9753"/>
<path d="M18.9103 23.1517C17.7618 23.8917 18.8732 25.5479 20.0588 24.9136C20.3181 24.7726 20.6145 24.6317 20.8368 24.4907C23.5414 23.1164 29.0246 21.9536 35.2488 23.1164C41.1766 24.2441 44.1035 24.1736 46.1041 23.5041C47.2897 23.0812 48.2159 21.7069 48.2159 21.7069C48.2159 21.7069 48.5123 19.2402 41.6583 18.5707C36.3603 18.0774 26.32 18.5002 18.9103 23.1517Z" fill="#236993"/>
<path d="M44.3985 11.03C44.5096 10.7481 44.4355 10.4662 44.2503 10.2195C43.6945 9.65568 42.2496 8.63377 39.7674 8.35187C37.0999 8.03472 30.357 7.15376 22.6138 10.0433C21.6134 10.4309 23.2436 11.8052 24.2439 11.4881L23.2436 11.7347C23.2436 11.7347 21.4282 11.4881 27.356 11.9109C32.1724 12.2633 37.3962 13.6728 40.1008 13.3909C42.509 13.1443 43.9168 12.2633 44.3985 11.03Z" fill="#77787B"/>
<path d="M20.9464 43.625C25.2811 42.3565 28.245 42.8145 29.9122 43.3079C30.2456 43.4136 32.1722 43.9422 32.0981 44.4708C32.061 44.9288 30.4679 45.246 28.6896 45.5631C27.9857 45.7041 27.467 45.7746 26.6519 45.8803C23.0211 46.2327 19.9831 45.7041 19.5756 45.6336C19.3162 45.5984 17.0562 45.1403 14.7222 44.1888C11.6471 42.9203 4.94128 39.2555 1.71803 31.6792C-0.282611 26.9926 -0.134412 22.7287 0.199028 20.3325C0.0878811 22.5878 0.0508311 30.0935 5.45996 36.1193C8.86845 39.925 13.3884 41.9336 15.0186 42.6736C15.8336 43.026 17.7602 43.8365 20.3165 44.4355C23.0582 45.0698 24.9106 45.0698 25.985 44.9993C27.0594 44.9288 28.8007 44.7174 28.8007 44.4355C28.8007 44.1184 26.6519 43.8012 26.1703 43.766C24.8365 43.5546 23.0952 43.4488 20.9464 43.625Z" fill="#BB9753"/>
<path d="M30.0237 2.71351C29.9125 2.78398 29.2457 3.13637 29.1345 3.8059C29.0604 4.22875 29.2086 4.58114 29.2827 4.72209C29.5791 5.35638 30.1719 5.77924 30.9499 6.09638C31.2463 6.23734 32.4319 6.73067 35.2846 6.97734C36.0256 7.04782 37.0259 7.04782 38.2115 6.97734C39.5823 6.90686 40.2492 6.83639 40.3974 6.55448C40.8049 5.67352 37.2112 3.38304 36.9889 3.24208C36.3961 2.85446 34.0991 1.48017 31.1352 0.881117C30.0978 0.669688 28.8381 0.458258 28.3565 0.387781C28.2453 0.387781 27.1709 0.21159 25.8001 0.141113C25.726 0.141113 28.8752 0.881117 30.246 1.2335C30.8388 1.37445 31.5797 1.58588 32.3578 1.86779C32.8764 2.04398 33.2099 2.22017 33.9509 2.53732C35.0623 3.06589 35.6181 3.38304 36.1367 3.84113C36.4702 4.15828 36.6554 4.33447 36.6184 4.51066C36.5443 5.004 35.0994 5.25067 34.0991 5.2859C32.9876 5.2859 30.5794 5.03924 30.3201 3.84113C30.1348 3.03065 31.6909 2.29065 32.1355 2.29065C33.6545 2.32589 31.1722 2.1497 30.0237 2.71351Z" fill="#BCBEC0"/>
<path d="M40.8063 12.2633C40.1765 12.369 39.5837 12.51 38.9168 12.51C37.9536 12.5452 36.9532 12.6157 35.3972 12.51C33.0261 12.3338 31.1736 12.0166 30.6179 11.9109C26.2091 11.1005 24.0232 10.6424 21.8744 9.09187C20.1331 7.82329 19.7996 6.80138 19.7255 6.16709C19.5773 5.0747 20.096 4.15851 20.3554 3.73565C21.2075 2.25564 22.6894 1.55088 23.3193 1.26897C23.7268 1.09278 24.0602 0.987063 24.2825 0.881348C23.3563 0.951824 22.5783 1.12802 22.0225 1.30421C21.615 1.40992 20.9481 1.62135 20.1331 2.00897C19.355 2.39659 18.7623 2.81945 18.3177 3.17184C17.799 3.5947 16.7987 4.47565 16.4652 5.84995C16.0206 7.61186 16.8728 9.12711 17.2433 9.79663C20.6147 15.8224 33.1372 17.3024 34.545 17.4786C36.3604 17.7253 37.9165 17.831 39.065 17.9014C43.4738 18.1481 45.4374 17.7957 46.4377 17.5491C46.8823 17.4433 47.2898 17.3024 47.5121 17.1614C47.5121 17.1614 46.7712 13.8843 44.2889 10.29C44.7335 10.9595 42.5476 11.9462 40.8063 12.2633Z" fill="#BCBEC0"/>
<path d="M35.4312 22.0944C23.3533 19.1344 16.6845 14.9763 14.0911 11.4524C11.5347 7.96385 11.757 1.51525 23.094 0.0352383C23.131 0.0352383 23.131 0 23.094 0C21.0563 0.0352383 11.0531 0.669527 8.42263 8.45719C4.82889 19.0992 23.2051 27.944 26.4284 29.2125C29.6887 30.5164 37.9506 34.0754 45.9161 31.9964C46.2124 31.9259 46.4718 31.644 46.62 31.3973C48.5836 27.3802 48.2131 21.8125 48.2131 21.6363C48.2131 21.4954 43.3597 24.0325 35.4312 22.0944Z" fill="#4485B7"/>
</svg>
