<svg width="100" height="100" viewBox="0 0 100 100" fill="none" xmlns="http://www.w3.org/2000/svg">
<circle cx="50" cy="50" r="50" fill="url(#paint0_linear_2035_853)"/>
<path d="M61.7148 54.5913C61.7148 54.5913 62.7166 53.0708 59.4554 52.4626C55.9597 51.8138 52.4213 52.1585 49.693 53.3141C46.9646 54.49 46.1973 54.125 46.1973 54.125C46.1973 54.125 47.8599 53.3952 52.8689 54.7332C56.3646 55.6658 60.0309 55.4834 60.6277 55.2198C61.2245 54.9563 61.7148 54.5913 61.7148 54.5913Z" fill="#82602B"/>
<path d="M42.9554 48.0228C42.2947 47.4754 40.9518 46.2184 40.2484 44.1708C40.0352 43.5423 39.6303 42.3462 39.8434 40.8662C40.1844 38.4131 41.8684 36.183 41.8684 36.2033C41.3994 36.5479 37.4561 39.6295 37.5627 44.0491C37.6053 46.3806 38.8203 48.4282 39.0334 48.7729C39.6729 49.8271 40.3337 50.4962 40.9518 51.1044C43.4244 53.5777 46.0461 54.8144 47.3464 55.4024C48.7958 56.0714 50.0534 56.4566 50.6715 56.6391C51.716 56.9634 52.3981 57.1053 53.6983 57.3892C55.5527 57.7946 56.4054 57.896 57.3432 57.7541C57.5777 57.7136 57.8974 57.6325 58.1319 57.4905C59.3682 56.7404 60.7537 55.7065 61.6915 54.5711V54.5509C58.75 54.2873 56.1922 53.8616 54.4017 53.4358C52.5047 52.9898 50.8634 52.5843 48.8598 51.6923C46.238 50.5975 44.2983 49.1784 42.9554 48.0228Z" fill="#BB9753"/>
<path d="M47.8792 46.3197C47.2184 46.7454 47.8579 47.6983 48.54 47.3333C48.6892 47.2522 48.8597 47.1712 48.9876 47.0901C50.5436 46.2994 53.6982 45.6304 57.2792 46.2994C60.6896 46.9481 62.3736 46.9076 63.5246 46.5224C64.2067 46.2791 64.7395 45.4884 64.7395 45.4884C64.7395 45.4884 64.9101 44.0693 60.9668 43.6841C57.9187 43.4003 52.1422 43.6435 47.8792 46.3197Z" fill="#236993"/>
<path d="M62.5435 39.3457C62.6075 39.1835 62.5648 39.0214 62.4583 38.8794C62.1385 38.5551 61.3072 37.9671 59.8791 37.8049C58.3444 37.6225 54.465 37.1156 50.0101 38.7781C49.4346 39.0011 50.3725 39.7917 50.948 39.6093L50.3725 39.7512C50.3725 39.7512 49.3281 39.6093 52.7385 39.8526C55.5095 40.0553 58.5149 40.8663 60.0709 40.7041C61.4564 40.5621 62.2664 40.0553 62.5435 39.3457Z" fill="#77787B"/>
<path d="M49.0511 58.0986C51.5449 57.3688 53.2502 57.6323 54.2093 57.9161C54.4012 57.977 55.5096 58.2811 55.4669 58.5852C55.4456 58.8487 54.5291 59.0312 53.5059 59.2137C53.101 59.2947 52.8025 59.3353 52.3336 59.3961C50.2447 59.5989 48.4969 59.2947 48.2624 59.2542C48.1132 59.2339 46.8129 58.9704 45.4701 58.423C43.7009 57.6931 39.8429 55.5847 37.9884 51.2259C36.8374 48.5295 36.9227 46.0764 37.1145 44.6978C37.0506 45.9953 37.0292 50.3135 40.1413 53.7803C42.1023 55.9699 44.7027 57.1255 45.6406 57.5512C46.1095 57.754 47.2179 58.2202 48.6887 58.5649C50.266 58.9298 51.3318 58.9298 51.9499 58.8893C52.5681 58.8487 53.5699 58.7271 53.5699 58.5649C53.5699 58.3824 52.3336 58.2 52.0565 58.1797C51.2892 58.0581 50.2873 57.9972 49.0511 58.0986Z" fill="#BB9753"/>
<path d="M54.2744 34.5613C54.2105 34.6018 53.8268 34.8046 53.7629 35.1898C53.7202 35.433 53.8055 35.6358 53.8481 35.7169C54.0187 36.0818 54.3597 36.3251 54.8073 36.5075C54.9778 36.5886 55.6599 36.8725 57.3012 37.0144C57.7275 37.0549 58.303 37.0549 58.9851 37.0144C59.7738 36.9738 60.1574 36.9333 60.2427 36.7711C60.4772 36.2643 58.4096 34.9465 58.2817 34.8654C57.9407 34.6424 56.6191 33.8517 54.9139 33.507C54.3171 33.3854 53.5923 33.2638 53.3152 33.2232C53.2513 33.2232 52.6332 33.1218 51.8445 33.0813C51.8019 33.0813 53.6137 33.507 54.4023 33.7098C54.7434 33.7909 55.1697 33.9125 55.6173 34.0747C55.9157 34.1761 56.1075 34.2774 56.5338 34.4599C57.1733 34.764 57.493 34.9465 57.7915 35.21C57.9833 35.3925 58.0899 35.4939 58.0685 35.5952C58.0259 35.8791 57.1946 36.021 56.6191 36.0412C55.9797 36.0412 54.5942 35.8993 54.445 35.21C54.3384 34.7437 55.2336 34.318 55.4894 34.318C56.3633 34.3383 54.9352 34.2369 54.2744 34.5613Z" fill="#BCBEC0"/>
<path d="M60.4766 40.0555C60.1143 40.1163 59.7732 40.1974 59.3896 40.1974C58.8354 40.2176 58.2599 40.2582 57.3646 40.1974C56.0004 40.096 54.9347 39.9135 54.615 39.8527C52.0784 39.3864 50.8208 39.1229 49.5846 38.2308C48.5827 37.501 48.3909 36.913 48.3483 36.5481C48.263 35.9196 48.5614 35.3925 48.7106 35.1492C49.2009 34.2978 50.0535 33.8923 50.4158 33.7301C50.6503 33.6287 50.8422 33.5679 50.97 33.5071C50.4372 33.5476 49.9895 33.649 49.6698 33.7504C49.4353 33.8112 49.0517 33.9328 48.5827 34.1558C48.1351 34.3788 47.7941 34.6221 47.5383 34.8249C47.2399 35.0681 46.6644 35.575 46.4725 36.3657C46.2167 37.3793 46.707 38.2511 46.9201 38.6363C48.8598 42.1031 56.0644 42.9546 56.8744 43.0559C57.9188 43.1979 58.8141 43.2587 59.4748 43.2992C62.0113 43.4411 63.1411 43.2384 63.7166 43.0965C63.9724 43.0357 64.2068 42.9546 64.3347 42.8735C64.3347 42.8735 63.9084 40.988 62.4803 38.9201C62.7361 39.3053 61.4785 39.873 60.4766 40.0555Z" fill="#BCBEC0"/>
<path d="M57.3857 45.7115C50.4369 44.0086 46.6001 41.6163 45.1081 39.5889C43.6373 37.5818 43.7652 33.8718 50.2877 33.0203C50.309 33.0203 50.309 33 50.2877 33C49.1153 33.0203 43.3602 33.3852 41.8468 37.8657C39.7792 43.9883 50.3516 49.077 52.206 49.8068C54.0818 50.5569 58.8351 52.6046 63.4179 51.4084C63.5884 51.3679 63.7376 51.2057 63.8229 51.0638C64.9526 48.7526 64.7394 45.5494 64.7394 45.448C64.7394 45.3669 61.9471 46.8266 57.3857 45.7115Z" fill="#4485B7"/>
<path d="M22.3043 23.0035C21.1521 23.0062 20.0478 23.4584 19.233 24.2613C18.4182 25.0641 17.9593 26.1522 17.9565 27.2876V67.5585H11.8696C11.6389 67.5585 11.4178 67.6488 11.2547 67.8095C11.0916 67.9702 11 68.1881 11 68.4153C11 72.5744 14.2435 76 18.2991 76H83.7043C87.76 76 91 72.5744 91 68.4153C91 68.1881 90.9084 67.9702 90.7453 67.8095C90.5822 67.6488 90.3611 67.5585 90.1304 67.5585H84.0435V27.291C84.0439 26.154 83.5862 25.0634 82.771 24.2588C81.9557 23.4542 80.8495 23.0014 79.6956 23H22.3043V23.0035ZM22.3043 24.7206H79.6956C81.1565 24.7206 82.3113 25.855 82.3043 27.2876V67.562H57.0765C56.8459 67.562 56.6247 67.6522 56.4616 67.8129C56.2986 67.9735 56.207 68.1916 56.207 68.4189C56.207 69.2466 55.6122 69.8376 54.9026 69.8376H47.0835C46.3756 69.8376 45.7791 69.2466 45.7791 68.4189C45.7791 68.1916 45.6875 67.9735 45.5244 67.8129C45.3614 67.6522 45.1402 67.562 44.9096 67.562H19.6957V27.291C19.6957 25.8516 20.8435 24.7206 22.3043 24.7206ZM24.0435 28.1479C23.8129 28.1479 23.5917 28.2381 23.4286 28.3988C23.2655 28.5595 23.1739 28.7775 23.1739 29.0047V63.2779C23.1739 63.5051 23.2655 63.723 23.4286 63.8837C23.5917 64.0444 23.8129 64.1347 24.0435 64.1347H77.9565C78.1871 64.1347 78.4083 64.0444 78.5714 63.8837C78.7345 63.723 78.8261 63.5051 78.8261 63.2779V29.0047C78.8261 28.7775 78.7345 28.5595 78.5714 28.3988C78.4083 28.2381 78.1871 28.1479 77.9565 28.1479H24.0435ZM24.913 29.8615H77.087V62.4211H24.913V29.8615ZM12.9026 69.2757H44.3826C44.7739 70.525 45.7148 71.5512 47.0835 71.5512H54.9026C56.273 71.5512 57.2122 70.5232 57.6035 69.2757H89.0991C88.6922 72.1272 86.4835 74.2897 83.7043 74.2897H18.2991C15.52 74.2897 13.3078 72.1272 12.9026 69.2757Z" fill="#F2F2F2"/>
<defs>
<linearGradient id="paint0_linear_2035_853" x1="14" y1="16.5" x2="78" y2="92" gradientUnits="userSpaceOnUse">
<stop stop-color="#4384B6"/>
<stop offset="1" stop-color="#274D6B"/>
</linearGradient>
</defs>
</svg>
