<svg width="186" height="63" viewBox="0 0 186 63" fill="none" xmlns="http://www.w3.org/2000/svg">
<path d="M5.35193 46.6058H1.39819V58.0283H5.30371C9.1128 58.0283 10.8004 55.8595 10.8004 52.052C10.8486 48.3408 8.87172 46.6058 5.35193 46.6058ZM5.44836 56.727H2.94111V47.8589H5.49658C8.29312 47.8589 9.30566 49.4976 9.30566 52.2447C9.30566 56.4378 6.50912 56.727 5.44836 56.727Z" fill="#1A1A1A"/>
<path d="M17.9365 54.4136C17.9365 55.9076 17.1168 57.0162 15.4774 57.0162C14.4167 57.0162 13.7899 56.3414 13.7899 55.3293V49.7385H12.4398V55.1847C12.4398 56.968 13.1148 58.2211 15.2846 58.2211C16.49 58.2211 17.4061 57.7391 17.9847 56.727H18.0329V58.0283H19.2865V49.7385H17.9365V54.4136Z" fill="#1A1A1A"/>
<path d="M25.4582 49.5457C24.3011 49.5457 23.2885 49.9313 22.8064 50.847H22.7581V46.5576H21.4081V57.9801H22.7581V56.8716H22.8064C23.4332 57.8355 24.6386 58.1729 25.4582 58.1729C27.9655 58.1729 29.2191 56.1968 29.2191 53.8834C29.2673 51.57 27.9655 49.5457 25.4582 49.5457ZM25.3136 57.0162C23.4332 57.0162 22.7099 55.5221 22.7099 53.8834C22.7099 52.3411 23.4332 50.7506 25.2172 50.7506C27.0012 50.7506 27.7726 52.2447 27.7726 53.787C27.8208 55.4257 27.194 57.0162 25.3136 57.0162Z" fill="#1A1A1A"/>
<path d="M37.3195 56.1004V51.8592C37.3195 49.9313 35.6801 49.5939 34.2336 49.5939C32.4014 49.5939 30.8103 50.3169 30.7139 52.3411H32.0639C32.1121 51.1362 32.98 50.7506 34.1372 50.7506C35.0051 50.7506 35.9694 50.9434 35.9694 52.1483C35.9694 53.1605 34.6676 53.0641 33.1729 53.3532C31.7746 53.6424 30.3763 54.028 30.3763 55.9076C30.3763 57.5463 31.63 58.2211 33.1247 58.2211C34.2819 58.2211 35.2944 57.8355 36.0176 56.9198C36.0176 57.8355 36.4516 58.2211 37.1748 58.2211C37.6088 58.2211 37.8981 58.1247 38.1392 57.9801V56.9198C37.9463 56.968 37.8499 57.0162 37.7052 57.0162C37.3195 57.0162 37.3195 56.727 37.3195 56.1004ZM35.9694 55.1365C35.9694 55.9076 35.2462 57.0162 33.4622 57.0162C32.6425 57.0162 31.871 56.6788 31.871 55.8112C31.871 54.7991 32.6425 54.4618 33.5586 54.3172C34.4747 54.1726 35.4873 54.1244 36.0176 53.7388V55.1365H35.9694Z" fill="#1A1A1A"/>
<path d="M40.8874 49.7385H39.5374V58.0283H40.8874V49.7385Z" fill="#1A1A1A"/>
<path d="M40.8874 46.6058H39.5374V48.2926H40.8874V46.6058Z" fill="#1A1A1A"/>
<path d="M52.5075 57.0162C49.7591 57.0162 48.6019 54.8473 48.6019 52.2447C48.6019 49.8831 49.7591 47.6179 52.4592 47.6179C54.0504 47.6179 55.3522 48.4372 55.6415 50.0277H57.1844C56.8469 47.6179 54.8701 46.3166 52.4592 46.3166C48.9395 46.3166 47.059 49.0156 47.059 52.3411C47.059 55.6667 48.7948 58.2693 52.3628 58.2693C55.2558 58.2693 57.0398 56.5342 57.3291 53.6906H55.7862C55.6897 55.6185 54.5325 57.0162 52.5075 57.0162Z" fill="#1A1A1A"/>
<path d="M64.4652 54.4136C64.4652 55.9076 63.6455 57.0162 62.0061 57.0162C60.9454 57.0162 60.3186 56.3414 60.3186 55.3293V49.7385H58.9685V55.1847C58.9685 56.968 59.6435 58.2211 61.8133 58.2211C63.0187 58.2211 63.9348 57.7391 64.5134 56.727H64.5616V58.0283H65.8634V49.7385H64.5134V54.4136H64.4652Z" fill="#1A1A1A"/>
<path d="M71.6975 53.2569C70.4439 52.9677 68.9974 52.7749 68.9974 51.811C68.9974 50.9916 69.9617 50.7507 70.7814 50.7507C71.6975 50.7507 72.6136 51.088 72.71 52.1483H74.0601C73.9637 50.1241 72.469 49.5457 70.685 49.5457C69.2385 49.5457 67.5991 50.2205 67.5991 51.9074C67.5991 53.4978 68.9492 53.9316 70.2992 54.2208C71.6493 54.51 72.9993 54.7027 72.9993 55.7631C72.9993 56.8234 71.8422 57.0162 71.0225 57.0162C69.9135 57.0162 68.8527 56.6306 68.8045 55.4257H67.4545C67.5509 57.4499 69.0938 58.2211 70.9743 58.2211C72.6618 58.2211 74.494 57.5945 74.494 55.6185C74.3976 53.9798 73.0476 53.546 71.6975 53.2569Z" fill="#1A1A1A"/>
<path d="M77.7728 47.2805H76.4227V49.7385H75.0245V50.9434H76.4227V56.1968C76.4227 57.7391 77.0013 57.9801 78.3996 57.9801H79.4604V56.7752H78.8336C77.9657 56.7752 77.821 56.6788 77.821 56.0522V50.8952H79.4604V49.6903H77.821V47.2805H77.7728Z" fill="#1A1A1A"/>
<path d="M84.5231 49.5457C81.9195 49.5457 80.5212 51.4254 80.5212 53.8834C80.5212 56.2932 81.9195 58.2211 84.5231 58.2211C87.1268 58.2211 88.5251 56.3414 88.5251 53.8834C88.5251 51.4736 87.1268 49.5457 84.5231 49.5457ZM84.5231 57.0162C83.0766 57.0162 81.9677 55.9076 81.9677 53.8834C81.9677 51.8592 83.1249 50.7507 84.5231 50.7507C85.9696 50.7507 87.0786 51.8592 87.0786 53.8834C87.0786 55.9076 85.9214 57.0162 84.5231 57.0162Z" fill="#1A1A1A"/>
<path d="M98.9881 49.5457C97.9273 49.5457 96.963 50.0759 96.3844 50.9434C96.0469 49.9313 95.1308 49.5457 94.1182 49.5457C92.961 49.5457 92.0449 50.0277 91.4663 50.9434H91.4181V49.7385H90.1163V58.0283H91.4663V52.8713C91.4663 52.2447 92.0449 50.7507 93.6843 50.7507C94.8897 50.7507 95.2272 51.5218 95.2272 52.5821V57.9801H96.5773V52.8231C96.5773 51.5218 97.4452 50.7025 98.747 50.7025C100.097 50.7025 100.338 51.5218 100.338 52.5339V57.9319H101.688V51.8592C101.736 50.2205 100.627 49.5457 98.9881 49.5457Z" fill="#1A1A1A"/>
<path d="M107.571 53.2569C106.317 52.9677 104.87 52.7749 104.87 51.811C104.87 50.9916 105.835 50.7507 106.654 50.7507C107.571 50.7507 108.487 51.088 108.583 52.1483H109.933C109.837 50.1241 108.342 49.5457 106.558 49.5457C105.112 49.5457 103.472 50.2205 103.472 51.9074C103.472 53.4978 104.822 53.9316 106.172 54.2208C107.522 54.51 108.872 54.7027 108.872 55.7631C108.872 56.8234 107.715 57.0162 106.896 57.0162C105.787 57.0162 104.726 56.6306 104.678 55.4257H103.328C103.424 57.4499 104.967 58.2211 106.847 58.2211C108.535 58.2211 110.367 57.5945 110.367 55.6185C110.271 53.9798 108.921 53.546 107.571 53.2569Z" fill="#1A1A1A"/>
<path d="M7.08796 44.3887C7.08796 43.8586 6.79866 43.5694 6.26829 43.5694C5.73791 43.5694 5.44861 43.8586 5.44861 44.3887C5.44861 44.9189 5.68969 45.2081 6.26829 45.2081C6.84688 45.2081 7.08796 44.9189 7.08796 44.3887Z" fill="#1A1A1A"/>
<path d="M4.43586 44.3887C4.43586 43.8586 4.19478 43.5694 3.61619 43.5694C3.08581 43.5694 2.79651 43.8586 2.79651 44.3887C2.79651 44.9189 3.08581 45.2081 3.61619 45.2081C4.19478 45.2081 4.43586 44.9189 4.43586 44.3887Z" fill="#1A1A1A"/>
<path d="M32.7871 33.882V28.4358L31.437 28.9177V33.7374C31.437 35.2796 30.762 36.0026 29.3637 36.0026H28.7369H28.3994H25.5546H25.0725H22.3724H21.8902H19.2865H18.8043H16.1042H15.6221H12.922H12.4398H9.49861H9.25753H8.38963C7.42531 36.0026 6.75028 35.4242 6.31633 34.2675L5.78595 35.6652C6.12347 36.6291 6.84671 37.2557 8.24498 37.2557C8.14855 38.8944 6.65385 39.6655 4.7252 39.6655C2.3626 39.6655 1.30184 37.8822 1.30184 35.5206C1.30184 34.4603 1.54292 32.918 2.21795 31.1348L0.77146 32.1469C0.289298 33.4964 0 34.7495 0 35.858C0 38.798 1.68757 40.9668 4.7252 40.9668C7.76282 40.9668 9.59504 39.3281 9.59504 37.2075H12.5362H13.0184H15.7185H16.2007H18.8043H19.2865H21.9866H22.4688H25.1689H25.6511H28.4958H28.8333H29.5566C31.4852 37.2557 32.7871 35.9062 32.7871 33.882Z" fill="#1A1A1A"/>
<path d="M31.5817 40.6294C31.5817 40.0993 31.3407 39.8101 30.7621 39.8101C30.2317 39.8101 29.9424 40.0993 29.9424 40.6294C29.9424 41.1596 30.2317 41.4488 30.7621 41.4488C31.2924 41.4488 31.5817 41.1596 31.5817 40.6294Z" fill="#1A1A1A"/>
<path d="M38.0908 28.8696C37.0783 28.9177 36.1622 29.3515 35.4872 30.1227V31.7613C36.1622 30.7974 37.0783 30.1227 38.0908 30.1227C39.2962 30.1227 40.2123 30.8456 40.2123 32.3879V36.0026H35.2943L34.4746 37.2557H41.5624V32.2915C41.5624 30.1708 40.1641 28.8214 38.0908 28.8696Z" fill="#1A1A1A"/>
<path d="M55.4969 30.6046H52.4593V29.9299C52.4593 29.2069 52.9414 28.5804 53.6165 28.5804C53.954 28.5804 54.2433 28.7732 54.5808 29.0623L55.2558 28.3876C54.7736 27.9056 54.2915 27.7128 53.7611 27.7128C52.3628 27.7128 51.5432 28.7732 51.5432 30.1227V30.6046H50.627L49.8074 31.4722H55.4487V30.6046H55.4969Z" fill="#1A1A1A"/>
<path d="M59.5953 24.7247L58.2935 25.1584V33.7374C58.2935 35.2796 57.5702 36.0026 56.2202 36.0026H49.8556C48.4573 36.0026 47.7341 35.2796 47.7341 33.7374V29.6889L46.4323 31.3276V33.882C46.4323 35.9544 47.6859 37.2557 49.6145 37.2557H56.3166C58.2452 37.2557 59.6435 35.9544 59.6435 33.882V24.7247H59.5953Z" fill="#1A1A1A"/>
<path d="M64.9956 36.7255C64.9956 38.3642 64.176 39.8101 62.4884 39.8101C61.8134 39.8101 60.9455 39.7137 59.9811 39.1353L60.6079 40.533C61.2348 40.8222 62.1027 40.9668 62.633 40.9668C65.3331 40.9668 66.3939 38.9426 66.3457 36.4364V28.484L65.0438 28.9177V36.7255H64.9956Z" fill="#1A1A1A"/>
<path d="M107.667 40.6294C107.667 40.0993 107.426 39.8101 106.847 39.8101C106.317 39.8101 106.028 40.0993 106.028 40.6294C106.028 41.1596 106.317 41.4488 106.847 41.4488C107.426 41.4488 107.667 41.1596 107.667 40.6294Z" fill="#1A1A1A"/>
<path d="M106.654 28.3394C105.352 28.3394 104.099 28.9177 102.845 30.0745L103.713 30.9902C104.677 30.0745 105.738 29.5925 106.654 29.5925C109.596 29.5925 109.74 32.1951 109.788 34.7495V36.0508H101.399H101.206H100.29C98.8433 36.0508 98.1683 35.2796 98.1683 33.7374C97.9754 31.5203 96.9146 30.1708 94.7449 30.1708C92.3341 30.1708 91.3216 31.8577 91.2733 34.1711C91.1287 35.376 90.4054 36.0508 89.2 36.0508H88.6214H88.2839H85.4392H84.957H82.2569H81.7747H79.0746H78.5925H75.8923H75.4102H72.5654H72.2279H70.685C69.9617 36.0508 69.6242 35.6652 69.6242 34.8459V24.7247L68.2742 25.1102V34.8459C68.2742 36.4364 69.0456 37.2557 70.4921 37.2557H72.2279H72.5654H75.4102H75.8923H78.5925H79.0746H81.7747H82.2569H84.957H85.4392H88.2839H88.6214H89.3447C90.2608 37.2557 91.0805 36.9665 91.6591 36.4364C92.1894 37.7859 93.1538 38.5088 94.7931 38.5088C96.3843 38.5088 97.4932 37.6895 97.9272 36.2436C98.6022 36.9183 99.3737 37.2075 100.434 37.2075H101.206H101.399H111.187V34.2675C111.187 31.3758 110.608 28.3394 106.654 28.3394ZM94.7449 37.3039C93.2502 37.3039 92.6716 36.34 92.6716 34.3157C92.6716 32.2915 93.2984 31.3758 94.7449 31.3758C96.2396 31.3758 96.77 32.2915 96.77 34.3157C96.77 36.34 96.1914 37.3039 94.7449 37.3039Z" fill="#1A1A1A"/>
<path d="M178.931 51.329C178.931 51.329 181.197 47.7143 173.82 46.2684C165.912 44.7261 157.909 45.5454 151.737 48.2926C145.565 51.088 143.829 50.2205 143.829 50.2205C143.829 50.2205 147.59 48.4854 158.921 51.6664C166.829 53.8834 175.122 53.4496 176.472 52.8231C177.822 52.1965 178.931 51.329 178.931 51.329Z" fill="#82602B"/>
<path d="M136.5 35.7134C135.006 34.4121 131.968 31.4239 130.377 26.5561C129.895 25.062 128.979 22.2185 129.461 18.7001C130.232 12.8684 134.041 7.5668 134.041 7.615C132.981 8.43433 124.061 15.7602 124.302 26.2669C124.398 31.8095 127.146 36.6773 127.629 37.4967C129.075 40.0029 130.57 41.5933 131.968 43.0392C137.561 48.9192 143.492 51.8591 146.433 53.2568C149.712 54.8473 152.556 55.763 153.955 56.1968C156.317 56.9679 157.86 57.3053 160.801 57.9801C164.996 58.944 166.925 59.185 169.046 58.8476C169.577 58.7512 170.3 58.5584 170.83 58.2211C173.627 56.4378 176.761 53.9798 178.882 51.2808V51.2326C172.229 50.606 166.443 49.5939 162.392 48.5818C158.101 47.5215 154.389 46.5576 149.856 44.4369C143.926 41.8343 139.538 38.4606 136.5 35.7134Z" fill="#BB9753"/>
<path d="M147.638 31.6649C146.144 32.6771 147.59 34.9423 149.133 34.0747C149.471 33.882 149.856 33.6892 150.146 33.4964C153.665 31.6167 160.801 30.0263 168.902 31.6167C176.616 33.159 180.425 33.0626 183.029 32.1469C184.572 31.5685 185.778 29.6889 185.778 29.6889C185.778 29.6889 186.163 26.3151 177.243 25.3994C170.348 24.7247 157.282 25.303 147.638 31.6649Z" fill="#236993"/>
<path d="M180.811 15.0854C180.956 14.6998 180.859 14.3143 180.618 13.9769C179.895 13.2058 178.015 11.8081 174.784 11.4225C171.313 10.9887 162.537 9.78383 152.46 13.7359C151.158 14.2661 153.28 16.1457 154.582 15.712L153.28 16.0493C153.28 16.0493 150.917 15.712 158.632 16.2903C164.9 16.7723 171.698 18.7001 175.218 18.3146C178.352 17.9772 180.184 16.7723 180.811 15.0854Z" fill="#77787B"/>
<path d="M150.29 59.6669C155.931 57.9319 159.789 58.5584 161.959 59.2332C162.392 59.3778 164.9 60.1007 164.803 60.8236C164.755 61.4502 162.682 61.884 160.367 62.3177C159.451 62.5105 158.776 62.6069 157.715 62.7515C152.99 63.2335 149.037 62.5105 148.506 62.4141C148.169 62.3659 145.227 61.7394 142.19 60.4381C138.188 58.703 129.461 53.6906 125.266 43.3284C122.662 36.9183 122.855 31.0866 123.289 27.8092C123.144 30.8938 123.096 41.1596 130.136 49.4011C134.572 54.6063 140.454 57.3535 142.576 58.3656C143.636 58.8476 146.144 59.9561 149.47 60.7754C153.038 61.643 155.449 61.643 156.848 61.5466C158.246 61.4502 160.512 61.161 160.512 60.7754C160.512 60.3417 157.715 59.9079 157.089 59.8597C155.353 59.5705 153.087 59.426 150.29 59.6669Z" fill="#BB9753"/>
<path d="M162.103 3.7111C161.958 3.8075 161.091 4.28946 160.946 5.20519C160.85 5.78354 161.042 6.26551 161.139 6.45829C161.525 7.32582 162.296 7.90418 163.309 8.33794C163.694 8.53073 165.237 9.20548 168.95 9.54285C169.914 9.63924 171.216 9.63924 172.759 9.54285C174.543 9.44646 175.411 9.35007 175.604 8.9645C176.134 7.75959 171.457 4.62683 171.168 4.43405C170.396 3.90389 167.407 2.02424 163.55 1.2049C162.2 0.915723 160.56 0.626546 159.933 0.530153C159.789 0.530153 158.39 0.289172 156.606 0.19278C156.51 0.19278 160.608 1.2049 162.392 1.68686C163.164 1.87965 164.128 2.16883 165.141 2.5544C165.816 2.79538 166.25 3.03636 167.214 3.47012C168.661 4.19307 169.384 4.62683 170.059 5.25338C170.493 5.68715 170.734 5.92813 170.686 6.16911C170.589 6.84386 168.709 7.18123 167.407 7.22943C165.96 7.22943 162.826 6.89206 162.489 5.25338C162.248 4.14487 164.273 3.13275 164.851 3.13275C166.828 3.18095 163.598 2.93997 162.103 3.7111Z" fill="#BCBEC0"/>
<path d="M176.134 16.7723C175.315 16.9169 174.543 17.1097 173.675 17.1097C172.422 17.1579 171.12 17.2542 169.095 17.1097C166.009 16.8687 163.598 16.4349 162.875 16.2903C157.137 15.1818 154.292 14.5553 151.496 12.4346C149.23 10.6996 148.796 9.30186 148.699 8.43433C148.506 6.94025 149.181 5.68715 149.519 5.10879C150.628 3.08455 152.556 2.12062 153.376 1.73505C153.907 1.49407 154.34 1.34948 154.63 1.2049C153.424 1.30129 152.412 1.54227 151.689 1.78325C151.158 1.92784 150.29 2.21702 149.23 2.74717C148.217 3.27733 147.446 3.85569 146.867 4.33765C146.192 4.91601 144.89 6.12091 144.456 8.00056C143.878 10.4104 144.987 12.4828 145.469 13.3985C149.856 21.6401 166.153 23.6643 167.986 23.9053C170.348 24.2427 172.373 24.3873 173.868 24.4837C179.606 24.8211 182.161 24.3391 183.463 24.0017C184.042 23.8571 184.572 23.6643 184.861 23.4716C184.861 23.4716 183.897 18.9893 180.667 14.0733C181.245 14.989 178.4 16.3385 176.134 16.7723Z" fill="#BCBEC0"/>
<path d="M169.143 30.219C153.424 26.1706 144.745 20.4834 141.37 15.6638C138.043 10.8924 138.333 2.07244 153.087 0.0481962C153.135 0.0481962 153.135 0 153.087 0C150.435 0.0481962 137.417 0.915728 133.993 11.5671C129.316 26.1224 153.232 38.2196 157.426 39.9547C161.669 41.7379 172.422 46.6058 182.788 43.7622C183.174 43.6658 183.511 43.2802 183.704 42.9429C186.26 37.4485 185.778 29.8335 185.778 29.5925C185.778 29.3997 179.461 32.8698 169.143 30.219Z" fill="#4485B7"/>
</svg>
