<svg width="100" height="100" viewBox="0 0 100 100" fill="none" xmlns="http://www.w3.org/2000/svg">
<circle cx="50" cy="50" r="50" fill="url(#paint0_linear_2035_920)"/>
<path d="M48 11.1547C49.2376 10.4402 50.7624 10.4402 52 11.1547L82.641 28.8453C83.8786 29.5598 84.641 30.8803 84.641 32.3094V67.6906C84.641 69.1197 83.8786 70.4402 82.641 71.1547L52 88.8453C50.7624 89.5598 49.2376 89.5598 48 88.8453L17.359 71.1547C16.1214 70.4402 15.359 69.1197 15.359 67.6906V32.3094C15.359 30.8803 16.1214 29.5598 17.359 28.8453L48 11.1547Z" fill="url(#paint1_linear_2035_920)"/>
<path d="M48 14.1547C49.2376 13.4402 50.7624 13.4402 52 14.1547L80.0429 30.3453C81.2805 31.0598 82.0429 32.3803 82.0429 33.8094V66.1906C82.0429 67.6197 81.2805 68.9402 80.0429 69.6547L52 85.8453C50.7624 86.5598 49.2376 86.5598 48 85.8453L19.9571 69.6547C18.7195 68.9402 17.9571 67.6197 17.9571 66.1906V33.8094C17.9571 32.3803 18.7195 31.0598 19.9571 30.3453L48 14.1547Z" fill="#EAEAEA"/>
<path d="M65.8355 62.3062C65.8355 62.3062 67.2881 60.1015 62.5595 59.2197C57.4909 58.279 52.3605 58.7787 48.4045 60.4543C44.4486 62.1592 43.3359 61.6301 43.3359 61.6301C43.3359 61.6301 45.7466 60.5719 53.0095 62.512C58.0781 63.8642 63.394 63.5996 64.2593 63.2175C65.1247 62.8353 65.8355 62.3062 65.8355 62.3062Z" fill="#82602B"/>
<path d="M38.6348 52.7822C37.6767 51.9885 35.7296 50.166 34.7097 47.197C34.4007 46.2857 33.8135 44.5514 34.1225 42.4055C34.617 38.8486 37.0586 35.6151 37.0586 35.6445C36.3787 36.1442 30.661 40.6124 30.8156 47.0206C30.8774 50.4011 32.639 53.3701 32.9481 53.8698C33.8753 55.3984 34.8334 56.3684 35.7296 57.2503C39.3147 60.8366 43.1162 62.6297 45.0015 63.4822C47.1031 64.4523 48.9265 65.0108 49.8228 65.2753C51.3372 65.7457 52.3262 65.9514 54.2115 66.363C56.9003 66.9509 58.1365 67.0979 59.4964 66.8921C59.8364 66.8333 60.2999 66.7157 60.6399 66.51C62.4325 65.4223 64.4413 63.9231 65.8012 62.277V62.2476C61.5362 61.8654 57.8275 61.2481 55.2313 60.6308C52.4807 59.9841 50.1009 59.3962 47.1958 58.1028C43.3943 56.5154 40.5819 54.4577 38.6348 52.7822Z" fill="#BB9753"/>
<path d="M45.7736 50.313C44.8155 50.9303 45.7427 52.3119 46.7317 51.7827C46.9481 51.6652 47.1953 51.5476 47.3807 51.43C49.6369 50.2836 54.211 49.3135 59.4032 50.2836C64.3482 51.2242 66.7897 51.1654 68.4587 50.6069C69.4477 50.2542 70.2203 49.1077 70.2203 49.1077C70.2203 49.1077 70.4676 47.05 64.7499 46.4915C60.3304 46.08 51.9548 46.4327 45.7736 50.313Z" fill="#236993"/>
<path d="M67.0374 40.2011C67.1301 39.966 67.0683 39.7308 66.9137 39.525C66.4501 39.0547 65.2448 38.2022 63.1741 37.967C60.9489 37.7025 55.324 36.9676 48.8646 39.378C48.0301 39.7014 49.39 40.8478 50.2245 40.5833L49.39 40.789C49.39 40.789 47.8756 40.5833 52.8206 40.936C56.8384 41.23 61.1961 42.4058 63.4523 42.1706C65.4611 41.9649 66.6356 41.23 67.0374 40.2011Z" fill="#77787B"/>
<path d="M47.4734 67.3917C51.0894 66.3335 53.5619 66.7156 54.9527 67.1272C55.2308 67.2154 56.8379 67.6563 56.7761 68.0972C56.7452 68.4794 55.4163 68.7439 53.9328 69.0085C53.3456 69.1261 52.9129 69.1849 52.2329 69.2731C49.2042 69.567 46.6699 69.1261 46.3299 69.0673C46.1135 69.0379 44.2283 68.6557 42.2812 67.8621C39.716 66.8038 34.122 63.7467 31.4332 57.4266C29.7642 53.517 29.8879 49.9601 30.166 47.9612C30.0733 49.8425 30.0424 56.1038 34.5547 61.1305C37.398 64.3052 41.1686 65.9807 42.5285 66.5981C43.2084 66.892 44.8155 67.5681 46.948 68.0678C49.2351 68.597 50.7804 68.597 51.6766 68.5382C52.5729 68.4794 54.0255 68.303 54.0255 68.0678C54.0255 67.8033 52.2329 67.5387 51.8312 67.5093C50.7185 67.3329 49.266 67.2448 47.4734 67.3917Z" fill="#BB9753"/>
<path d="M55.0459 33.2638C54.9531 33.3226 54.3968 33.6166 54.3041 34.1751C54.2423 34.5278 54.3659 34.8218 54.4277 34.9394C54.675 35.4685 55.1695 35.8212 55.8185 36.0858C56.0658 36.2034 57.0547 36.6149 59.4345 36.8207C60.0526 36.8795 60.8871 36.8795 61.8761 36.8207C63.0196 36.7619 63.5759 36.7031 63.6995 36.4679C64.0395 35.733 61.0416 33.8223 60.8562 33.7047C60.3617 33.3814 58.4455 32.235 55.973 31.7352C55.1077 31.5589 54.0569 31.3825 53.6551 31.3237C53.5624 31.3237 52.6661 31.1767 51.5226 31.1179C51.4607 31.1179 54.0878 31.7352 55.2313 32.0292C55.7258 32.1468 56.3439 32.3231 56.9929 32.5583C57.4256 32.7053 57.7038 32.8523 58.3219 33.1168C59.2491 33.5578 59.7127 33.8223 60.1453 34.2045C60.4235 34.469 60.578 34.616 60.5471 34.763C60.4853 35.1745 59.28 35.3803 58.4455 35.4097C57.5183 35.4097 55.5094 35.2039 55.2931 34.2045C55.1386 33.5284 56.4366 32.9111 56.8075 32.9111C58.0746 32.9405 56.0039 32.7935 55.0459 33.2638Z" fill="#BCBEC0"/>
<path d="M64.0388 41.2299C63.5134 41.3181 63.0189 41.4357 62.4626 41.4357C61.659 41.4651 60.8245 41.5239 59.5265 41.4357C57.5485 41.2887 56.0032 41.0241 55.5396 40.936C51.8618 40.2599 50.0383 39.8777 48.2458 38.5843C46.7932 37.5261 46.515 36.6736 46.4532 36.1445C46.3296 35.2332 46.7623 34.4689 46.9786 34.1162C47.6895 32.8815 48.9257 32.2936 49.4511 32.0585C49.7911 31.9115 50.0692 31.8233 50.2547 31.7351C49.482 31.7939 48.833 31.9409 48.3694 32.0879C48.0294 32.176 47.4731 32.3524 46.7932 32.6758C46.1442 32.9991 45.6497 33.3519 45.2788 33.6458C44.8461 33.9986 44.0117 34.7335 43.7335 35.8799C43.3626 37.3497 44.0735 38.6137 44.3825 39.1722C47.195 44.1989 57.6412 45.4335 58.8156 45.5805C60.33 45.7862 61.6281 45.8744 62.5862 45.9332C66.264 46.139 67.902 45.845 68.7365 45.6393C69.1074 45.5511 69.4473 45.4335 69.6328 45.3159C69.6328 45.3159 69.0146 42.5821 66.9439 39.5838C67.3148 40.1423 65.4913 40.9654 64.0388 41.2299Z" fill="#BCBEC0"/>
<path d="M59.5579 49.4311C49.4825 46.9619 43.9195 43.4932 41.756 40.5536C39.6235 37.6434 39.8089 32.264 49.2662 31.0294C49.2971 31.0294 49.2971 31 49.2662 31C47.5664 31.0294 39.2217 31.5585 37.0274 38.055C34.0295 46.9325 49.3589 54.3108 52.0477 55.369C54.7675 56.4567 61.6595 59.4256 68.3043 57.6913C68.5516 57.6325 68.7679 57.3973 68.8915 57.1916C70.5295 53.8405 70.2205 49.1959 70.2205 49.049C70.2205 48.9314 66.1718 51.0479 59.5579 49.4311Z" fill="#4485B7"/>
<defs>
<linearGradient id="paint0_linear_2035_920" x1="21" y1="15.5" x2="76" y2="92.5" gradientUnits="userSpaceOnUse">
<stop stop-color="#FAAC3B"/>
<stop offset="1" stop-color="#C24A26"/>
</linearGradient>
<linearGradient id="paint1_linear_2035_920" x1="16.5" y1="47" x2="60" y2="85.5" gradientUnits="userSpaceOnUse">
<stop stop-color="white"/>
<stop offset="1" stop-color="#BABABA"/>
</linearGradient>
</defs>
</svg>
