<svg width="48" height="48" viewBox="0 0 48 48" fill="none" xmlns="http://www.w3.org/2000/svg">
<path fill-rule="evenodd" clip-rule="evenodd" d="M11.3664 12.6597H14.9928V13.8181C14.994 14.2219 15.1538 14.6089 15.4374 14.8945C15.721 15.1801 16.1053 15.341 16.5064 15.3423H25.3766C25.7777 15.341 26.162 15.1801 26.4456 14.8945C26.7292 14.6089 26.889 14.2219 26.8902 13.8181V12.6597H30.5176C30.8795 12.6614 31.2261 12.8068 31.482 13.0645C31.7379 13.3222 31.8824 13.6712 31.884 14.0357V22.1066C31.644 22.0661 31.4011 22.0456 31.1578 22.0455C30.346 22.0443 29.5504 22.2745 28.863 22.7095C28.1757 23.1445 27.6246 23.7664 27.2734 24.5035C26.9223 25.2406 26.7855 26.0627 26.8788 26.8748C26.972 27.6868 27.2916 28.4558 27.8006 29.0927C27.1438 29.4252 26.5915 29.9347 26.205 30.5645C25.8185 31.1942 25.6131 31.9195 25.6114 32.6598V35.8448C25.6112 36.1812 25.6534 36.5163 25.7369 36.8421L25.1646 37.4215L24.2881 38.3051L24.2622 38.3775H11.3664C11.0045 38.3757 10.658 38.2302 10.4021 37.9725C10.1462 37.7149 10.0017 37.3659 10 37.0016V14.0377C10.0016 13.6728 10.1464 13.3234 10.4029 13.0657C10.6593 12.8079 11.0066 12.6627 11.3689 12.6618L11.3664 12.6597ZM23.6676 43L25.7172 42.2458L27.7677 41.4931L26.4656 40.1825L25.1646 38.8687L24.4171 40.9326L23.6676 43ZM33.0161 36.2071L33.3789 35.8417C33.6647 35.5525 33.8252 35.161 33.8252 34.753C33.8252 34.3449 33.6647 33.9535 33.3789 33.6642L32.9376 33.2158C32.6502 32.9283 32.2615 32.767 31.8564 32.767C31.4513 32.767 31.0627 32.9283 30.7752 33.2158L30.4134 33.5812L33.0161 36.203V36.2071ZM29.6948 34.3063L25.8826 38.1451L26.7429 39.0114L30.5551 35.1731L29.6948 34.3063ZM31.2757 35.8983L27.4626 39.7386L28.4863 40.7685L32.3 36.9282L31.2782 35.8983H31.2757ZM45.9636 15.752L44.5911 20.7842C44.5331 21.002 44.4051 21.1943 44.227 21.3309C44.0488 21.4676 43.8308 21.5409 43.6068 21.5394H40.824L38.569 23.2165L38.5432 21.5394H37.7467C37.5227 21.5414 37.3044 21.4683 37.1263 21.3315C36.9482 21.1948 36.8203 21.0022 36.7629 20.7842L35.3915 15.752C35.3497 15.5995 35.3434 15.4394 35.3732 15.2841C35.403 15.1288 35.4681 14.9826 35.5632 14.8568C35.6584 14.731 35.7812 14.6291 35.922 14.5589C36.0627 14.4888 36.2177 14.4524 36.3748 14.4525H44.9778C45.135 14.4522 45.2901 14.4885 45.4311 14.5585C45.5721 14.6285 45.6951 14.7304 45.7905 14.8562C45.8859 14.982 45.9512 15.1283 45.9812 15.2837C46.0112 15.4391 46.0052 15.5993 45.9636 15.752ZM38.1703 19.314H43.1848C43.3195 19.314 43.4486 19.2602 43.5439 19.1643C43.6391 19.0684 43.6926 18.9383 43.6926 18.8027C43.6926 18.667 43.6391 18.537 43.5439 18.4411C43.4486 18.3452 43.3195 18.2913 43.1848 18.2913H38.1703C38.0356 18.2913 37.9064 18.3452 37.8112 18.4411C37.7159 18.537 37.6624 18.667 37.6624 18.8027C37.6624 18.9383 37.7159 19.0684 37.8112 19.1643C37.9064 19.2602 38.0356 19.314 38.1703 19.314ZM38.1703 17.5524H40.6773C40.812 17.5524 40.9411 17.4985 41.0364 17.4026C41.1316 17.3067 41.1851 17.1766 41.1851 17.041C41.1851 16.9054 41.1316 16.7753 41.0364 16.6794C40.9411 16.5835 40.812 16.5296 40.6773 16.5296H38.1703C38.0356 16.5296 37.9064 16.5835 37.8112 16.6794C37.7159 16.7753 37.6624 16.9054 37.6624 17.041C37.6624 17.1766 37.7159 17.3067 37.8112 17.4026C37.9064 17.4985 38.0356 17.5524 38.1703 17.5524ZM37.7958 32.2985C37.2378 32.3001 36.7031 32.5241 36.3086 32.9216C35.9141 33.319 35.6919 33.8575 35.6906 34.4194V32.6593C35.6884 31.8725 35.3771 31.1186 34.8247 30.5622C34.2723 30.0058 33.5236 29.6922 32.7423 29.6899H31.1603C31.8109 29.6899 32.4469 29.4956 32.9878 29.1317C33.5288 28.7677 33.9504 28.2504 34.1993 27.6451C34.4483 27.0399 34.5134 26.3739 34.3865 25.7313C34.2596 25.0888 33.9463 24.4986 33.4863 24.0353C33.0262 23.5721 32.4401 23.2566 31.8021 23.1288C31.164 23.001 30.5026 23.0666 29.9015 23.3173C29.3005 23.568 28.7868 23.9926 28.4253 24.5373C28.0639 25.082 27.871 25.7224 27.871 26.3775C27.871 27.256 28.2175 28.0985 28.8344 28.7197C29.4513 29.3409 30.2879 29.6899 31.1603 29.6899H29.5784C28.7975 29.6929 28.0494 30.0067 27.4974 30.563C26.9454 31.1193 26.6344 31.8729 26.6321 32.6593V35.8443C26.6321 35.8774 26.6321 35.91 26.6321 35.9426L30.0581 32.4942C30.5359 32.0148 31.1829 31.7455 31.8574 31.7455C32.5319 31.7455 33.1789 32.0148 33.6567 32.4942L34.098 32.9381C34.5744 33.4192 34.842 34.071 34.842 34.7504C34.842 35.4299 34.5744 36.0816 34.098 36.5628L33.0166 37.6518L31.8633 38.8137H32.7423C33.5236 38.8114 34.2723 38.4978 34.8247 37.9414C35.3771 37.385 35.6884 36.6311 35.6906 35.8443V36.6933C35.6922 37.2551 35.9145 37.7935 36.3091 38.1908C36.7036 38.5881 37.2383 38.8121 37.7963 38.8137H40.0543C40.6122 38.8121 41.1469 38.5881 41.5413 38.1908C41.9358 37.7935 42.158 37.2551 42.1595 36.6933V34.4194C42.1579 33.8578 41.9356 33.3195 41.5411 32.9224C41.1466 32.5253 40.6121 32.3015 40.0543 32.3H38.9243C39.3887 32.3001 39.8427 32.1616 40.2289 31.9018C40.6151 31.6421 40.9162 31.2729 41.094 30.8409C41.2718 30.4088 41.3184 29.9334 41.2279 29.4747C41.1374 29.016 40.9138 28.5947 40.5855 28.2639C40.2572 27.9332 39.8389 27.7079 39.3834 27.6165C38.9279 27.5252 38.4558 27.5719 38.0267 27.7508C37.5976 27.9297 37.2308 28.2327 36.9727 28.6214C36.7146 29.0102 36.5768 29.4674 36.5767 29.935C36.5771 30.5618 36.8246 31.1628 37.2648 31.606C37.7049 32.0492 38.3018 32.2982 38.9243 32.2985H37.7958ZM42.6615 22.5653H41.156L38.7168 24.3789C38.6094 24.4581 38.4825 24.5061 38.3499 24.5175C38.2173 24.5289 38.0841 24.5034 37.9649 24.4436C37.8458 24.3839 37.7452 24.2923 37.6743 24.1789C37.6034 24.0654 37.5649 23.9345 37.563 23.8005L37.5438 22.5525C37.134 22.5126 36.7461 22.3479 36.4317 22.0803C36.1174 21.8127 35.8915 21.455 35.7842 21.0548L35.0626 18.4121H34.9694C34.83 18.412 34.6925 18.4444 34.5676 18.5067C34.4426 18.569 34.3337 18.6595 34.2492 18.7712C34.1647 18.8829 34.107 19.0127 34.0805 19.1505C34.054 19.2883 34.0595 19.4304 34.0965 19.5658L35.3146 24.0324C35.3656 24.2258 35.479 24.3966 35.6371 24.518C35.7951 24.6393 35.9888 24.7042 36.1875 24.7025H36.896L36.9193 26.191L38.9207 24.7025H41.3888C41.5876 24.7042 41.7812 24.6392 41.9394 24.5179C42.0975 24.3966 42.2111 24.2258 42.2622 24.0324L42.663 22.5632L42.6615 22.5653ZM16.5074 11C16.3755 11.0004 16.2492 11.0533 16.1559 11.1471C16.0626 11.241 16.01 11.3682 16.0094 11.5009V13.8181C16.0098 13.9509 16.0624 14.0782 16.1557 14.1722C16.249 14.2661 16.3755 14.3191 16.5074 14.3195H25.3766C25.5086 14.3192 25.6351 14.2663 25.7284 14.1723C25.8217 14.0784 25.8743 13.951 25.8746 13.8181V11.5009C25.8742 11.3681 25.8215 11.2409 25.7282 11.147C25.6349 11.0531 25.5085 11.0003 25.3766 11H16.5074ZM13.2803 33.0899L14.053 33.6673C14.1595 33.7471 14.2929 33.7815 14.4244 33.7632C14.5558 33.7449 14.6749 33.6753 14.7559 33.5694L15.8156 32.1854C15.8978 32.0783 15.9344 31.9427 15.9173 31.8084C15.9003 31.6741 15.8309 31.5522 15.7245 31.4694C15.6182 31.3866 15.4835 31.3498 15.3502 31.367C15.2168 31.3842 15.0957 31.454 15.0135 31.5611L14.2544 32.5497L13.8805 32.271C13.8271 32.2311 13.7664 32.2023 13.7019 32.186C13.6374 32.1698 13.5704 32.1665 13.5047 32.1763C13.4389 32.1862 13.3758 32.209 13.3188 32.2434C13.2618 32.2778 13.2121 32.3232 13.1725 32.377C13.1329 32.4308 13.1042 32.4919 13.0881 32.5568C13.072 32.6217 13.0687 32.6892 13.0785 32.7554C13.0883 32.8216 13.1109 32.8852 13.1451 32.9426C13.1793 33 13.2243 33.0501 13.2777 33.0899H13.2803ZM13.2803 26.4249L14.053 27.0013C14.1595 27.0811 14.2929 27.1155 14.4244 27.0972C14.5558 27.0789 14.6749 27.0093 14.7559 26.9034L15.8156 25.5209C15.8977 25.4138 15.9342 25.2782 15.917 25.1441C15.8998 25.0099 15.8304 24.8881 15.724 24.8054C15.6177 24.7228 15.4831 24.6861 15.3498 24.7034C15.2166 24.7207 15.0956 24.7906 15.0135 24.8977L14.2544 25.8858L13.8805 25.6065C13.7725 25.526 13.6372 25.492 13.5043 25.512C13.3714 25.532 13.2519 25.6043 13.172 25.713C13.092 25.8217 13.0583 25.958 13.0781 26.0918C13.098 26.2256 13.1698 26.346 13.2777 26.4265L13.2803 26.4249ZM13.2803 19.7589L14.053 20.3358C14.1595 20.4156 14.2929 20.45 14.4244 20.4317C14.5558 20.4134 14.6749 20.3438 14.7559 20.2379L15.8156 18.8529C15.8976 18.7457 15.934 18.6102 15.9168 18.4761C15.8996 18.342 15.8301 18.2202 15.7238 18.1376C15.6174 18.0551 15.4828 18.0184 15.3496 18.0358C15.2164 18.0531 15.0955 18.123 15.0135 18.2301L14.2544 19.2182L13.8805 18.94C13.8271 18.9001 13.7664 18.8713 13.7019 18.855C13.6374 18.8388 13.5704 18.8355 13.5047 18.8453C13.4389 18.8552 13.3758 18.878 13.3188 18.9124C13.2618 18.9468 13.2121 18.9922 13.1725 19.046C13.0926 19.1546 13.0587 19.2907 13.0785 19.4244C13.0982 19.5581 13.1699 19.6784 13.2777 19.7589H13.2803ZM19.023 34.1804H22.6773C22.812 34.1804 22.9413 34.1265 23.0365 34.0306C23.1318 33.9346 23.1854 33.8045 23.1854 33.6688C23.1854 33.5331 23.1318 33.403 23.0365 33.307C22.9413 33.2111 22.812 33.1572 22.6773 33.1572H19.023C18.8883 33.1572 18.759 33.2111 18.6638 33.307C18.5685 33.403 18.5149 33.5331 18.5149 33.6688C18.5149 33.8045 18.5685 33.9346 18.6638 34.0306C18.759 34.1265 18.8883 34.1804 19.023 34.1804ZM19.023 31.9734H22.8691C23.0039 31.9734 23.1332 31.9195 23.2285 31.8235C23.3238 31.7275 23.3774 31.5973 23.3774 31.4615C23.3774 31.3257 23.3238 31.1955 23.2285 31.0995C23.1332 31.0035 23.0039 30.9496 22.8691 30.9496H19.023C18.8882 30.9496 18.7589 31.0035 18.6636 31.0995C18.5682 31.1955 18.5147 31.3257 18.5147 31.4615C18.5147 31.5973 18.5682 31.7275 18.6636 31.8235C18.7589 31.9195 18.8882 31.9734 19.023 31.9734ZM12.4407 29.9819C12.3741 29.9816 12.308 29.9945 12.2463 30.0199C12.1846 30.0454 12.1285 30.0829 12.0812 30.1302C12.034 30.1776 11.9965 30.2339 11.9709 30.2959C11.9453 30.3579 11.9321 30.4244 11.9321 30.4915V34.6345C11.9318 34.7018 11.9447 34.7686 11.9702 34.8309C11.9956 34.8932 12.0331 34.9498 12.0803 34.9974C12.1276 35.045 12.1838 35.0827 12.2457 35.1083C12.3076 35.134 12.3738 35.147 12.4407 35.1466H16.5555C16.6222 35.1466 16.6882 35.1334 16.7497 35.1076C16.8113 35.0818 16.8672 35.0441 16.9142 34.9965C16.9612 34.9489 16.9985 34.8924 17.0237 34.8303C17.049 34.7682 17.0619 34.7016 17.0615 34.6345V30.4915C17.0615 30.3563 17.0082 30.2267 16.9133 30.1311C16.8184 30.0356 16.6897 29.9819 16.5555 29.9819H12.4407ZM16.0474 31.0057H12.9488V34.1249H16.0474V31.0057ZM19.023 27.5144H25.7111C25.8458 27.5144 25.9751 27.4605 26.0704 27.3646C26.1656 27.2686 26.2192 27.1385 26.2192 27.0028C26.2192 26.8671 26.1656 26.737 26.0704 26.641C25.9751 26.5451 25.8458 26.4912 25.7111 26.4912H19.023C18.8883 26.4912 18.759 26.5451 18.6638 26.641C18.5685 26.737 18.5149 26.8671 18.5149 27.0028C18.5149 27.1385 18.5685 27.2686 18.6638 27.3646C18.759 27.4605 18.8883 27.5144 19.023 27.5144ZM19.023 25.3084H22.8691C23.0039 25.3084 23.1332 25.2545 23.2285 25.1585C23.3238 25.0625 23.3774 24.9323 23.3774 24.7965C23.3774 24.6608 23.3238 24.5306 23.2285 24.4346C23.1332 24.3386 23.0039 24.2846 22.8691 24.2846H19.023C18.8882 24.2846 18.7589 24.3386 18.6636 24.4346C18.5682 24.5306 18.5147 24.6608 18.5147 24.7965C18.5147 24.9323 18.5682 25.0625 18.6636 25.1585C18.7589 25.2545 18.8882 25.3084 19.023 25.3084ZM12.4407 23.3159C12.3741 23.3155 12.308 23.3285 12.2463 23.3539C12.1846 23.3794 12.1285 23.4169 12.0812 23.4642C12.034 23.5116 11.9965 23.5679 11.9709 23.6299C11.9453 23.6919 11.9321 23.7583 11.9321 23.8255V27.9695C11.9321 28.0366 11.9453 28.1031 11.9709 28.1651C11.9965 28.2271 12.034 28.2834 12.0812 28.3307C12.1285 28.3781 12.1846 28.4156 12.2463 28.441C12.308 28.4665 12.3741 28.4794 12.4407 28.4791H16.5555C16.6897 28.4791 16.8184 28.4254 16.9133 28.3298C17.0082 28.2343 17.0615 28.1047 17.0615 27.9695V23.8275C17.0615 23.6924 17.0082 23.5627 16.9133 23.4672C16.8184 23.3716 16.6897 23.3179 16.5555 23.3179L12.4407 23.3159ZM16.0474 24.3397H12.9488V27.4599H16.0474V24.3397ZM19.023 20.8494H25.1863C25.3211 20.8494 25.4504 20.7955 25.5458 20.6995C25.6411 20.6035 25.6946 20.4733 25.6946 20.3376C25.6946 20.2018 25.6411 20.0716 25.5458 19.9756C25.4504 19.8796 25.3211 19.8257 25.1863 19.8257H19.023C18.8882 19.8257 18.7589 19.8796 18.6636 19.9756C18.5682 20.0716 18.5147 20.2018 18.5147 20.3376C18.5147 20.4733 18.5682 20.6035 18.6636 20.6995C18.7589 20.7955 18.8882 20.8494 19.023 20.8494ZM19.023 18.6424H22.8691C23.0038 18.6424 23.1331 18.5885 23.2283 18.4925C23.3236 18.3966 23.3772 18.2665 23.3772 18.1308C23.3772 17.9951 23.3236 17.8649 23.2283 17.769C23.1331 17.673 23.0038 17.6191 22.8691 17.6191H19.023C18.8883 17.6191 18.759 17.673 18.6638 17.769C18.5685 17.8649 18.5149 17.9951 18.5149 18.1308C18.5149 18.2665 18.5685 18.3966 18.6638 18.4925C18.759 18.5885 18.8883 18.6424 19.023 18.6424ZM12.4407 16.6509C12.3741 16.6506 12.308 16.6635 12.2463 16.689C12.1846 16.7144 12.1285 16.7519 12.0812 16.7992C12.034 16.8466 11.9965 16.9029 11.9709 16.9649C11.9453 17.0269 11.9321 17.0934 11.9321 17.1605V21.3035C11.9321 21.3706 11.9453 21.4371 11.9709 21.4991C11.9965 21.5611 12.034 21.6174 12.0812 21.6647C12.1285 21.7121 12.1846 21.7496 12.2463 21.775C12.308 21.8005 12.3741 21.8134 12.4407 21.8131H16.5555C16.6897 21.8131 16.8184 21.7594 16.9133 21.6638C17.0082 21.5683 17.0615 21.4386 17.0615 21.3035V17.1635C17.0615 17.0284 17.0082 16.8988 16.9133 16.8032C16.8184 16.7076 16.6897 16.654 16.5555 16.654L12.4407 16.6509ZM16.0474 17.6731H12.9488V20.7939H16.0474V17.6731Z" fill="white"/>
</svg>
