<svg width="38" height="39" viewBox="0 0 38 39" fill="none" xmlns="http://www.w3.org/2000/svg">
<path d="M23.3119 0.00148256H2.9892C1.33994 0.00148256 0 1.33974 0 2.99068V30.4888C0 32.1381 1.33826 33.478 2.9892 33.478H23.0446C23.2901 33.1973 23.5826 32.9586 23.9121 32.7719V32.3886C22.8244 31.7615 22.1182 30.5897 22.1182 29.2918C22.1182 27.9939 22.8243 26.8238 23.9121 26.195V25.8117C22.8244 25.1846 22.1182 24.0128 22.1182 22.7149C22.1182 22.4644 22.1485 22.219 22.1956 21.9802C21.9871 22.0693 21.7585 22.1181 21.5197 22.1181C20.6942 22.1181 19.9898 21.5499 19.7914 20.7849C19.1458 21.0303 18.3624 20.8992 17.8614 20.3965C17.162 19.6971 17.162 18.5606 17.8614 17.8612L18.3876 17.335L5.97685 17.3367C4.32758 17.3367 2.98765 15.9984 2.98765 14.3475V10.7615C2.98765 9.1122 4.32591 7.77226 5.97685 7.77226H20.3597C21.0658 6.98882 21.9316 6.36174 22.9118 5.9431C22.8512 5.96664 22.7857 5.9784 22.7151 5.9784H22.1166C21.7871 5.9784 21.5181 5.70941 21.5181 5.3799C21.5181 5.05039 21.7871 4.7814 22.1166 4.7814H22.7151C23.0446 4.7814 23.3136 5.05039 23.3136 5.3799C23.3136 5.61864 23.1707 5.8288 22.9605 5.92461C23.8028 5.57155 24.7359 5.3799 25.7043 5.3799C25.9077 5.3799 26.1044 5.38663 26.3028 5.40344V2.9892C26.3028 1.33994 24.9645 0 23.3136 0L23.3119 0.00148256ZM10.7599 2.39218H11.9553C12.2848 2.39218 12.5538 2.66117 12.5538 2.99068C12.5538 3.32019 12.2848 3.58918 11.9553 3.58918H10.7599C10.4304 3.58918 10.1614 3.32019 10.1614 2.99068C10.1614 2.66117 10.4304 2.39218 10.7599 2.39218ZM7.17222 2.39218H8.36755C8.69706 2.39218 8.96605 2.66117 8.96605 2.99068C8.96605 3.32019 8.69706 3.58918 8.36755 3.58918H7.17222C6.8427 3.58918 6.57372 3.32019 6.57372 2.99068C6.57372 2.66117 6.84271 2.39218 7.17222 2.39218ZM3.5862 2.39218H4.78152C5.11104 2.39218 5.38003 2.66117 5.38003 2.99068C5.38003 3.32019 5.11103 3.58918 4.78152 3.58918H3.5862C3.25668 3.58918 2.98769 3.32019 2.98769 2.99068C2.98769 2.66117 3.25669 2.39218 3.5862 2.39218ZM17.3351 22.1196C18.322 22.1196 19.1289 22.9266 19.1289 23.9135C19.1289 24.9004 18.322 25.7074 17.3351 25.7074C16.3482 25.7074 15.5412 24.9004 15.5412 23.9135C15.5412 22.9266 16.3482 22.1196 17.3351 22.1196ZM13.1505 18.5319C14.1374 18.5319 14.9444 19.3389 14.9444 20.3258C14.9444 21.3127 14.1374 22.1197 13.1505 22.1197C12.1636 22.1197 11.3566 21.3127 11.3566 20.3258C11.3566 19.3389 12.1636 18.5319 13.1505 18.5319ZM8.96592 22.1196C9.95281 22.1196 10.7598 22.9266 10.7598 23.9135C10.7598 24.9004 9.95281 25.7074 8.96592 25.7074C7.97903 25.7074 7.17205 24.9004 7.17205 23.9135C7.17205 22.9266 7.97903 22.1196 8.96592 22.1196ZM4.78135 18.5319C5.76824 18.5319 6.57522 19.3389 6.57522 20.3258C6.57522 21.3127 5.76824 22.1197 4.78135 22.1197C3.79446 22.1197 2.98748 21.3127 2.98748 20.3258C2.98748 19.3389 3.79446 18.5319 4.78135 18.5319ZM15.5411 5.97997H1.19533V4.78464H15.5411C15.8707 4.78464 16.1396 5.05364 16.1396 5.38314C16.1396 5.71265 15.8707 5.98165 15.5411 5.98165V5.97997ZM20.3241 5.97997H17.3349C17.0054 5.97997 16.7364 5.71097 16.7364 5.38146C16.7364 5.05194 17.0054 4.78296 17.3349 4.78296H20.3241C20.6536 4.78296 20.9226 5.05196 20.9226 5.38146C20.9226 5.71098 20.6536 5.97997 20.3241 5.97997Z" fill="white"/>
<path d="M19.4995 16.1415H5.97747C4.99058 16.1415 4.18359 15.3346 4.18359 14.3477V10.7616C4.18359 9.77476 4.99058 8.96777 5.97747 8.96777H19.4926C18.8773 10.0252 18.531 11.2509 18.531 12.5538C18.531 13.8214 18.8655 15.0521 19.4993 16.1398L19.4995 16.1415Z" fill="white"/>
<path d="M28.0942 22.7161C28.0942 21.6048 27.3293 20.6768 26.3004 20.4095V18.5013C29.3165 18.2004 31.6803 15.6483 31.6803 12.5533C31.6803 9.25639 28.9987 6.57471 25.7017 6.57471C22.4065 6.57471 19.7231 9.25626 19.7231 12.5533C19.7231 13.9857 20.2308 15.3021 21.0748 16.3344L18.7026 18.7065C18.4689 18.9402 18.4689 19.3185 18.7026 19.5522C18.8186 19.6682 18.9716 19.727 19.1246 19.727C19.2776 19.727 19.4306 19.6682 19.5466 19.5522L21.9188 17.18C22.8048 17.9046 23.9009 18.3821 25.1013 18.5014V20.4096C24.0724 20.6769 23.3074 21.6049 23.3074 22.7162C23.3074 23.8276 24.0724 24.7556 25.1013 25.0229V26.9866C24.0724 27.2539 23.3074 28.1819 23.3074 29.2932C23.3074 30.4045 24.0724 31.3325 25.1013 31.5998V33.5635C24.0724 33.8308 23.3074 34.7588 23.3074 35.8701C23.3074 37.1882 24.3801 38.2608 25.6981 38.2608C27.0162 38.2608 28.0888 37.1882 28.0888 35.8701C28.0888 34.7589 27.3239 33.8308 26.295 33.5635V31.5998C27.3238 31.3325 28.0888 30.4045 28.0888 29.2932C28.0888 28.1819 27.3239 27.2539 26.295 26.9866V25.0229C27.3238 24.7556 28.0888 23.8276 28.0888 22.7162L28.0942 22.7161ZM20.9205 12.555C20.9205 9.91885 23.0657 7.77378 25.7017 7.77378C28.3377 7.77378 30.4829 9.91902 30.4829 12.555C30.4829 15.191 28.3377 17.3362 25.7017 17.3362C23.0657 17.3362 20.9205 15.191 20.9205 12.555ZM24.5082 22.7161C24.5082 22.0571 25.0445 21.5208 25.7035 21.5208C26.3625 21.5208 26.8988 22.0571 26.8988 22.7161C26.8988 23.3751 26.3625 23.9114 25.7035 23.9114C25.0445 23.9114 24.5082 23.3751 24.5082 22.7161ZM26.8989 35.8685C26.8989 36.5275 26.3625 37.0638 25.7035 37.0638C25.0445 37.0638 24.5082 36.5275 24.5082 35.8685C24.5082 35.2094 25.0445 34.6731 25.7035 34.6731C26.3625 34.6731 26.8989 35.2094 26.8989 35.8685ZM26.8989 29.2916C26.8989 29.9507 26.3625 30.487 25.7035 30.487C25.0445 30.487 24.5082 29.9507 24.5082 29.2916C24.5082 28.6326 25.0445 28.0963 25.7035 28.0963C26.3625 28.0963 26.8989 28.6326 26.8989 29.2916Z" fill="white"/>
<path d="M28.6914 22.1195C28.6914 22.449 28.9587 22.718 29.2899 22.718H36.4637C36.7949 22.718 37.0622 22.4507 37.0622 22.1195C37.0622 21.79 36.7949 21.521 36.4637 21.521H29.2899C28.9587 21.521 28.6914 21.7883 28.6914 22.1195Z" fill="white"/>
<path d="M29.2899 23.3149C28.9587 23.3149 28.6914 23.5823 28.6914 23.9134C28.6914 24.243 28.9587 24.5119 29.2899 24.5119H34.0711C34.4023 24.5119 34.6696 24.2446 34.6696 23.9134C34.6696 23.5839 34.4023 23.3149 34.0711 23.3149H29.2899Z" fill="white"/>
<path d="M36.4637 28.0962H29.2899C28.9587 28.0962 28.6914 28.3635 28.6914 28.6947C28.6914 29.0242 28.9587 29.2932 29.2899 29.2932H36.4637C36.7949 29.2932 37.0622 29.0259 37.0622 28.6947C37.0622 28.3652 36.7949 28.0962 36.4637 28.0962Z" fill="white"/>
<path d="M29.2899 31.0852H34.0711C34.4023 31.0852 34.6696 30.8179 34.6696 30.4867C34.6696 30.1572 34.4023 29.8882 34.0711 29.8882H29.2899C28.9587 29.8882 28.6914 30.1555 28.6914 30.4867C28.6914 30.8162 28.9587 31.0852 29.2899 31.0852Z" fill="white"/>
</svg>
