<svg width="43" height="34" viewBox="0 0 43 34" fill="none" xmlns="http://www.w3.org/2000/svg">
<path d="M28.8576 3.66373C26.9111 3.67916 24.9763 4.42345 23.4916 5.89654C20.8173 8.55355 20.5282 12.6837 22.6241 15.6587L28.479 9.83754H26.1133C25.3701 9.83754 24.7665 9.23982 24.7665 8.50133C24.7665 7.76284 25.3681 7.16512 26.1114 7.16512H31.7259C32.4692 7.16512 33.0708 7.76284 33.0708 8.50133V14.0777C33.0708 14.8162 32.4672 15.4139 31.7259 15.4139C30.9826 15.4139 30.3791 14.8162 30.3791 14.0777L30.3771 11.7349L24.5242 17.5482C25.2539 18.0553 26.0515 18.4217 26.8802 18.6473L26.8782 18.0322C26.8782 17.6774 27.0199 17.3361 27.2722 17.0854C27.5225 16.8367 27.8622 16.696 28.2153 16.696H32.6051C33.0592 16.696 33.461 16.9177 33.7035 17.2609C33.9286 17.0835 34.1441 16.8907 34.3517 16.6863C37.3501 13.7053 37.3501 8.87536 34.3517 5.89641C32.8535 4.40787 30.8935 3.6636 28.9315 3.6636L28.8576 3.66373ZM28.9294 2.67266H28.9314C31.1476 2.67266 33.3639 3.51525 35.0561 5.19664C38.4445 8.5613 38.4445 14.02 35.0561 17.3864C33.3619 19.0677 31.1418 19.9104 28.9214 19.9104C26.7011 19.9104 24.4812 19.0697 22.7868 17.3864C19.3984 14.0198 19.3984 8.56111 22.7868 5.19664C24.481 3.51333 26.7011 2.67266 28.9214 2.67266H28.9294ZM12.0785 13.9428H12.0766C11.7351 13.9428 11.3916 14.072 11.1296 14.3323C11.1121 14.3497 3.20989 22.2128 3.20989 22.2128C2.6859 22.7354 2.6859 23.5818 3.20989 24.1024C3.47382 24.3647 3.81735 24.4938 4.16278 24.4938C4.50628 24.4938 4.84977 24.3647 5.11373 24.1024L12.0845 17.1746L17.5415 22.5964C17.8035 22.8567 18.149 22.9878 18.4924 22.9878C18.8379 22.9878 19.1814 22.8567 19.4453 22.5964C19.4473 22.5945 21.1822 20.8726 21.1822 20.8726C20.8368 20.595 20.5011 20.2961 20.1789 19.976C19.8587 19.6579 19.5579 19.3262 19.2804 18.9811L18.4944 19.7601L13.0315 14.3323C12.7695 14.072 12.424 13.9428 12.0805 13.9428H12.0785ZM28.916 0.00024008H28.9141C26.0069 0.00024008 23.1019 1.10317 20.8856 3.30512C16.4453 7.71486 16.4453 14.8665 20.8856 19.2759C23.1038 21.4818 26.0127 22.5847 28.922 22.5847C31.408 22.5847 33.8941 21.7787 35.9509 20.1668L35.9529 20.1687L40.7037 24.8869C40.9656 25.1472 41.3111 25.2784 41.6546 25.2784C42 25.2784 42.3435 25.1472 42.6056 24.8869C43.1315 24.3644 43.1315 23.518 42.6056 22.9954L37.8567 18.2772L37.8548 18.2791C41.3751 13.8443 41.0763 7.39643 36.9601 3.30488C34.74 1.09903 31.831 0 28.9217 0L28.916 0.00024008ZM1.34491 26.9737H1.34297C0.987828 26.9737 0.646289 27.1144 0.393957 27.3632C0.141671 27.6138 0 27.9551 0 28.3099V32.6637C0 33.0185 0.141671 33.3578 0.393957 33.6086C0.646244 33.8592 0.989735 34 1.34684 34H5.72888C6.47216 34 7.07375 33.4023 7.07375 32.6638V28.31C7.07375 27.5715 6.47216 26.9737 5.72888 26.9737L1.34491 26.9737ZM10.1981 23.0325H10.1962C9.84491 23.0325 9.50724 23.1732 9.25883 23.42C9.00655 23.6707 8.86488 24.0101 8.86488 24.3649V32.6635C8.86488 33.0183 9.00655 33.3576 9.25883 33.6083C9.51112 33.859 9.85268 33.9997 10.2098 33.9997H14.5918C15.3351 33.9997 15.9367 33.402 15.9367 32.6635V24.3664C15.9367 23.6279 15.3351 23.0283 14.5918 23.0283L10.1981 23.0325ZM19.1427 26.9756H19.1408C18.7895 26.9756 18.4538 27.1164 18.2035 27.3632C17.9512 27.6138 17.8095 27.9551 17.8095 28.3099V32.6637C17.8095 33.0185 17.9512 33.3578 18.2035 33.6086C18.4557 33.8592 18.7992 34 19.1563 34H23.5384C24.2817 34 24.8832 33.4023 24.8832 32.6638V28.31C24.8832 27.5715 24.2817 26.9737 23.5384 26.9737L19.1427 26.9756ZM33.9443 22.5196C32.5489 23.1347 31.0624 23.4818 29.5661 23.5589H29.5622C29.3488 23.5686 29.1353 23.5763 28.9198 23.5763C28.2387 23.5763 27.5556 23.5204 26.8802 23.4085L26.8782 32.6638C26.8782 33.0185 27.0199 33.3579 27.2722 33.6086C27.5245 33.8592 27.866 34 28.2232 34H32.6052C33.3485 34 33.952 33.4023 33.952 32.6638L33.9443 22.5196Z" fill="white"/>
</svg>
