<svg width="48" height="48" viewBox="0 0 48 48" fill="none" xmlns="http://www.w3.org/2000/svg">
<path d="M15.5485 8C14.6864 8 14 8.77814 14 9.74356V38.2564C14 39.2219 14.6864 40 15.5485 40H34.4515C35.3136 40 36 39.2219 36 38.2564V16.8315H30.3054C29.1394 16.8315 28.1223 15.879 28.1223 14.6142V8H15.5485ZM29.2054 8V14.6142C29.2054 15.1339 29.6473 15.6186 30.3054 15.6186H36L29.2054 8ZM20.4731 20.0343C21.0368 20.0344 21.4755 20.2566 21.7931 20.7071C22.1715 21.2406 22.36 22.1339 22.36 23.3699C22.36 24.6029 22.1742 25.4837 21.7931 26.0231C21.4781 26.4677 21.0368 26.6864 20.4731 26.6864C19.9067 26.6864 19.449 26.4523 19.1023 25.9662C18.7556 25.4772 18.5777 24.6017 18.5777 23.3509C18.5777 22.1238 18.772 21.2371 19.1531 20.6977C19.468 20.2531 19.9093 20.0344 20.4731 20.0343ZM25.0592 20.0343H25.9646V26.5822H24.8477V21.8727C24.4401 22.2995 23.9624 22.6157 23.4092 22.8203V21.6831C23.7004 21.5765 24.0155 21.3731 24.3569 21.0767C24.6983 20.7773 24.9322 20.4315 25.0592 20.0343ZM29.5269 20.0343C30.0907 20.0344 30.5293 20.2566 30.8469 20.7071C31.2254 21.2406 31.4138 22.1339 31.4138 23.3699C31.4138 24.6029 31.2196 25.4837 30.8385 26.0231C30.5235 26.4677 30.0907 26.6864 29.5269 26.6864C28.9605 26.6864 28.5029 26.4523 28.1562 25.9662C27.8094 25.4772 27.6315 24.6017 27.6315 23.3509C27.6315 22.1238 27.8258 21.2371 28.2069 20.6977C28.5219 20.2531 28.9632 20.0344 29.5269 20.0343ZM20.4731 21.0672C20.3381 21.0672 20.2151 21.121 20.1092 21.2188C20.0034 21.3137 19.9221 21.4816 19.8638 21.7305C19.7871 22.0536 19.7454 22.6052 19.7454 23.3699C19.7454 24.1346 19.7866 24.6553 19.8554 24.9428C19.9242 25.2274 20.006 25.4166 20.1092 25.5114C20.2151 25.6062 20.3381 25.6535 20.4731 25.6535C20.6081 25.6535 20.7226 25.6062 20.8285 25.5114C20.9343 25.4136 21.0241 25.2392 21.0823 24.9902C21.1591 24.6701 21.1923 24.1346 21.1923 23.3699C21.1923 22.6052 21.1596 22.0719 21.0908 21.7874C21.022 21.4999 20.9343 21.3137 20.8285 21.2188C20.7252 21.121 20.6081 21.0672 20.4731 21.0672ZM29.5269 21.0672C29.3919 21.0672 29.2689 21.121 29.1631 21.2188C29.0572 21.3137 28.9759 21.4816 28.9177 21.7305C28.8409 22.0536 28.7992 22.6052 28.7992 23.3699C28.7992 24.1346 28.832 24.6553 28.9008 24.9428C28.9696 25.2274 29.0599 25.4166 29.1631 25.5114C29.2689 25.6062 29.3919 25.6535 29.5269 25.6535C29.6619 25.6535 29.7764 25.6062 29.8823 25.5114C29.9882 25.4136 30.0695 25.2392 30.1277 24.9902C30.2044 24.6701 30.2462 24.1346 30.2462 23.3699C30.2462 22.6052 30.2134 22.0719 30.1446 21.7874C30.0758 21.4999 29.9882 21.3137 29.8823 21.2188C29.7791 21.121 29.6619 21.0672 29.5269 21.0672ZM20.5323 29.1407H21.4377V35.6885H20.3208V30.979C19.9132 31.4058 19.4355 31.7221 18.8823 31.9266V30.7895C19.1734 30.6828 19.4886 30.4794 19.83 30.183C20.1714 29.8836 20.4053 29.5378 20.5323 29.1407ZM25 29.1407C25.5637 29.1407 26.0024 29.3629 26.32 29.8134C26.6985 30.347 26.8869 31.2307 26.8869 32.4667C26.8869 33.6997 26.6927 34.59 26.3115 35.1294C25.9966 35.574 25.5637 35.7927 25 35.7927C24.4336 35.7927 23.9759 35.5492 23.6292 35.0631C23.2825 34.574 23.1046 33.708 23.1046 32.4572C23.1046 31.2301 23.2989 30.3434 23.68 29.804C23.995 29.3594 24.4363 29.1407 25 29.1407ZM29.5862 29.1407H30.4915V35.6885H29.3746V30.979C28.967 31.4058 28.4893 31.7221 27.9362 31.9266V30.7895C28.2273 30.6828 28.5424 30.4794 28.8838 30.183C29.2253 29.8836 29.4591 29.5378 29.5862 29.1407ZM25 30.1735C24.865 30.1735 24.742 30.2273 24.6362 30.3251C24.5303 30.42 24.449 30.5879 24.3908 30.8368C24.314 31.1599 24.2723 31.702 24.2723 32.4667C24.2723 33.2314 24.305 33.7617 24.3738 34.0492C24.4427 34.3337 24.5329 34.5229 24.6362 34.6177C24.742 34.7126 24.865 34.7598 25 34.7598C25.135 34.7598 25.2495 34.7126 25.3554 34.6177C25.4612 34.5199 25.5425 34.3455 25.6008 34.0965C25.6775 33.7764 25.7192 33.2314 25.7192 32.4667C25.7192 31.702 25.6865 31.1782 25.6177 30.8937C25.5489 30.6062 25.4612 30.42 25.3554 30.3251C25.2522 30.2273 25.135 30.1735 25 30.1735Z" fill="white"/>
</svg>
