<svg width="24" height="24" viewBox="0 0 24 24" fill="none" xmlns="http://www.w3.org/2000/svg">
<path d="M7.15375 19.5L3.5 15.8463L7.15375 12.1923L8.223 13.2463L6.373 15.0963H11.6058V16.596H6.373L8.20775 18.4462L7.15375 19.5ZM14.4045 16.6442C14.1785 16.6442 13.9888 16.5678 13.8355 16.415C13.6823 16.262 13.6058 16.0726 13.6058 15.8468C13.6058 15.6208 13.6822 15.4312 13.835 15.278C13.988 15.1247 14.1774 15.048 14.4033 15.048C14.6293 15.048 14.8189 15.1245 14.9723 15.2775C15.1254 15.4303 15.202 15.6198 15.202 15.8457C15.202 16.0716 15.1256 16.2612 14.9727 16.4145C14.8197 16.5677 14.6303 16.6442 14.4045 16.6442ZM18.0005 16.6442C17.7745 16.6442 17.5849 16.5678 17.4318 16.415C17.2786 16.262 17.202 16.0726 17.202 15.8468C17.202 15.6208 17.2784 15.4312 17.4313 15.278C17.5841 15.1247 17.7735 15.048 17.9995 15.048C18.2255 15.048 18.4151 15.1245 18.5682 15.2775C18.7214 15.4303 18.798 15.6198 18.798 15.8457C18.798 16.0716 18.7216 16.2612 18.5688 16.4145C18.4159 16.5677 18.2265 16.6442 18.0005 16.6442ZM16.8462 11.8078L15.777 10.7635L17.6365 8.90375H12.3942V7.404H17.627L15.7923 5.55375L16.8462 4.5L20.5 8.15375L16.8462 11.8078ZM6.0005 8.952C5.7745 8.952 5.58492 8.8755 5.43175 8.7225C5.27858 8.56967 5.202 8.38025 5.202 8.15425C5.202 7.92842 5.27842 7.73883 5.43125 7.5855C5.58408 7.43233 5.7735 7.35575 5.9995 7.35575C6.2255 7.35575 6.41508 7.43217 6.56825 7.585C6.72142 7.738 6.798 7.92742 6.798 8.15325C6.798 8.37925 6.72158 8.56883 6.56875 8.722C6.41592 8.87533 6.2265 8.952 6.0005 8.952ZM9.59675 8.952C9.37075 8.952 9.18108 8.8755 9.02775 8.7225C8.87458 8.56967 8.798 8.38025 8.798 8.15425C8.798 7.92842 8.87442 7.73883 9.02725 7.5855C9.18025 7.43233 9.36967 7.35575 9.5955 7.35575C9.8215 7.35575 10.0112 7.43217 10.1645 7.585C10.3177 7.738 10.3942 7.92742 10.3942 8.15325C10.3942 8.37925 10.3178 8.56883 10.165 8.722C10.012 8.87533 9.82258 8.952 9.59675 8.952Z" fill="white"/>
</svg>
