<svg width="48" height="48" viewBox="0 0 48 48" fill="none" xmlns="http://www.w3.org/2000/svg">
<rect width="48" height="48" rx="8" fill="#1D2020"/>
<path d="M27.2929 18.2929C26.9024 18.6834 26.9024 19.3166 27.2929 19.7071L30.5858 23H20C19.4477 23 19 23.4477 19 24C19 24.5523 19.4477 25 20 25H30.5858L27.2929 28.2929C26.9024 28.6834 26.9024 29.3166 27.2929 29.7071C27.6834 30.0976 28.3166 30.0976 28.7071 29.7071L33.7071 24.7071C34.0976 24.3166 34.0976 23.6834 33.7071 23.2929L28.7071 18.2929C28.3166 17.9024 27.6834 17.9024 27.2929 18.2929Z" fill="white"/>
<path d="M14 16C14 15.4477 14.4477 15 15 15C15.5523 15 16 15.4477 16 16V32C16 32.5523 15.5523 33 15 33C14.4477 33 14 32.5523 14 32L14 16Z" fill="white"/>
</svg>
