<svg width="40" height="40" viewBox="0 0 40 40" fill="none" xmlns="http://www.w3.org/2000/svg">
<rect width="40" height="40" rx="8" fill="#1D2020"/>
<path d="M22.7447 15.2441C22.4193 15.5695 22.4193 16.0971 22.7447 16.4226L25.4888 19.1667H16.6673C16.2071 19.1667 15.834 19.5398 15.834 20C15.834 20.4602 16.2071 20.8333 16.6673 20.8333H25.4888L22.7447 23.5774C22.4193 23.9028 22.4193 24.4305 22.7447 24.7559C23.0702 25.0813 23.5978 25.0813 23.9232 24.7559L28.0899 20.5892C28.4153 20.2638 28.4153 19.7362 28.0899 19.4107L23.9232 15.2441C23.5978 14.9186 23.0702 14.9186 22.7447 15.2441Z" fill="white"/>
<path d="M11.6673 13.3333C11.6673 12.8731 12.0404 12.5 12.5007 12.5C12.9609 12.5 13.334 12.8731 13.334 13.3333V26.6667C13.334 27.1269 12.9609 27.5 12.5007 27.5C12.0404 27.5 11.6673 27.1269 11.6673 26.6667V13.3333Z" fill="white"/>
</svg>

