<svg width="38" height="38" viewBox="0 0 38 38" fill="none" xmlns="http://www.w3.org/2000/svg">
<path fill-rule="evenodd" clip-rule="evenodd" d="M13.8313 3.20654L14.0255 4.11864C14.1023 4.14371 14.1728 4.17349 14.2495 4.20327C14.3263 4.23305 14.3968 4.26596 14.4689 4.30044L15.2536 3.79424C15.3852 3.70961 15.5325 3.67669 15.675 3.69237C15.8223 3.70961 15.9617 3.77229 16.0713 3.87886L17.2571 5.06523C17.3668 5.17493 17.4294 5.31441 17.4435 5.46173C17.4607 5.60591 17.4263 5.75323 17.3417 5.88331L16.8357 6.66847C16.8702 6.74057 16.9031 6.81579 16.9328 6.88788C16.9626 6.95998 16.9924 7.0352 17.0174 7.11199L17.9291 7.30632C18.081 7.3408 18.2079 7.42073 18.3003 7.53514C18.3928 7.64954 18.4476 7.79216 18.4476 7.94886V9.63047C18.4476 9.78249 18.3928 9.92667 18.3003 10.0442C18.2079 10.1586 18.081 10.2385 17.9291 10.273L17.0174 10.4673C16.9924 10.5441 16.9626 10.6147 16.9328 10.6914C16.9031 10.7682 16.8702 10.8388 16.8357 10.9109L17.3417 11.696C17.4263 11.8277 17.4592 11.975 17.4435 12.1176C17.4263 12.2649 17.3636 12.4044 17.2571 12.5141L16.0713 13.7005C15.9617 13.8102 15.8223 13.8729 15.675 13.887C15.5309 13.9042 15.3836 13.8697 15.2536 13.7851L14.4689 13.2742C14.4062 13.304 14.342 13.3338 14.2746 13.3635C14.2668 13.3635 14.2574 13.3714 14.2495 13.3761C14.1775 13.4058 14.1023 13.4356 14.0255 13.4607L13.8313 14.3728C13.7968 14.5248 13.717 14.6518 13.6026 14.7442C13.4883 14.8367 13.3457 14.8915 13.1891 14.8915H11.5083C11.3564 14.8915 11.2122 14.8367 11.0948 14.7442C10.9804 14.6518 10.9005 14.5248 10.8661 14.3728L10.6718 13.4607C10.5951 13.4356 10.5246 13.4058 10.4478 13.3761C10.3711 13.3463 10.3006 13.3134 10.2285 13.2789L9.44377 13.7898C9.31219 13.8744 9.16494 13.9073 9.02239 13.8917C8.87514 13.8744 8.73573 13.8117 8.62608 13.7052L7.4403 12.5188C7.33064 12.4091 7.26799 12.2696 7.25076 12.1223C7.23352 11.9781 7.26799 11.8308 7.35258 11.7007L7.85853 10.9156C7.82407 10.8435 7.79117 10.7682 7.76141 10.6961C7.73165 10.6241 7.70188 10.5488 7.67682 10.472L6.76517 10.2777C6.61322 10.2432 6.48164 10.1633 6.39392 10.0489C6.3015 9.93449 6.24981 9.79187 6.24981 9.63986V7.95825C6.24981 7.80623 6.30463 7.66205 6.39705 7.54453C6.48947 7.43012 6.61635 7.3502 6.7683 7.31572L7.67995 7.12139C7.70501 7.04459 7.73478 6.97407 7.76454 6.89728C7.7943 6.82048 7.8272 6.74996 7.86166 6.67786L7.35571 5.89271C7.27112 5.76106 7.23822 5.61374 7.25389 5.47112C7.26642 5.34418 7.31654 5.22663 7.398 5.12477C7.41053 5.10753 7.42306 5.09029 7.4403 5.07462L8.62608 3.88825C8.73573 3.77855 8.87514 3.71586 9.02239 3.70176C9.1665 3.68452 9.31374 3.719 9.44377 3.80363L10.2285 4.30983C10.3006 4.27535 10.3727 4.24244 10.4478 4.21266C10.5199 4.18288 10.5951 4.15311 10.6718 4.12803L10.8661 3.21593C10.9005 3.06391 10.9804 2.93697 11.0948 2.8445C11.2091 2.75204 11.3517 2.69718 11.5083 2.69718H13.1891C13.3332 2.69718 13.4679 2.7442 13.5776 2.82413C13.5854 2.82883 13.5948 2.83667 13.5979 2.84137C13.7123 2.93384 13.7969 3.06548 13.8266 3.2128L13.8313 3.20654ZM14.1399 6.99448C13.6841 6.53843 13.0512 6.25473 12.3495 6.25473C11.6493 6.25473 11.0196 6.5384 10.5591 6.99448C10.1032 7.45053 9.81967 8.08367 9.81967 8.78578C9.81967 9.48632 10.1032 10.1163 10.5591 10.5771C11.0149 11.0331 11.6477 11.3168 12.3495 11.3168C13.0497 11.3168 13.6794 11.0332 14.1399 10.5771C14.5957 10.121 14.8793 9.48788 14.8793 8.78578C14.8793 8.08523 14.5958 7.45522 14.1399 6.99448ZM12.3495 5.31756C11.3908 5.31756 10.5261 5.70623 9.90112 6.33152C9.27611 6.95684 8.88765 7.82665 8.88765 8.78108C8.88765 9.73551 9.27613 10.6053 9.90112 11.2306C10.5261 11.856 11.3955 12.2446 12.3495 12.2446C13.3034 12.2446 14.1728 11.8559 14.7978 11.2306C15.4228 10.6053 15.8113 9.73551 15.8113 8.78108C15.8113 7.82665 15.4228 6.95684 14.7978 6.33152C14.1728 5.70621 13.3034 5.31756 12.3495 5.31756ZM22.345 2.66583V8.51139H28.2976L22.345 2.66583ZM26.714 5.65136L26.7156 0.468595C26.7156 0.34165 26.6654 0.224109 26.5762 0.139483C26.4916 0.0548528 26.3741 0 26.2472 0H0.468366C0.341483 0 0.223999 0.0501506 0.139415 0.139483C0.0548258 0.228815 0 0.341654 0 0.468595V35.5082C0 35.6352 0.050126 35.7527 0.139415 35.8373C0.224003 35.922 0.341487 35.9768 0.468366 35.9768H1.3252V2.49186C1.3252 2.1079 1.48184 1.75685 1.73403 1.4998C1.98779 1.24591 2.33711 1.09077 2.7256 1.09077H21.8846C22.024 1.09077 22.1509 1.15346 22.2355 1.25063L26.7232 5.65586L26.714 5.65136ZM9.82152 23.0472V26.6784H6.19207V23.0472H9.82152ZM6.06832 22.1132H9.93897C10.163 22.1132 10.365 22.2056 10.5123 22.3545C10.6595 22.5018 10.7535 22.7056 10.7535 22.9281V26.8007C10.7535 27.0248 10.6611 27.2269 10.5123 27.3743C10.365 27.5216 10.1614 27.6156 9.93897 27.6156H6.06832C5.84432 27.6156 5.64225 27.5232 5.495 27.3743C5.34775 27.2269 5.25376 27.0232 5.25376 26.8007V22.9281C5.25376 22.704 5.34618 22.5018 5.495 22.3545C5.64224 22.2072 5.84588 22.1132 6.06832 22.1132ZM8.85501 23.7775C9.03671 23.5957 9.33277 23.5957 9.5129 23.7775C9.69461 23.9593 9.69461 24.2555 9.5129 24.4357L8.03105 25.9183C7.9214 26.028 7.77416 26.0829 7.63004 26.0829C7.48593 26.0829 7.33869 26.028 7.22904 25.9183L6.49908 25.188C6.31738 25.0062 6.31738 24.71 6.49908 24.5298C6.68079 24.348 6.97684 24.348 7.15698 24.5298L7.63004 25.0031L8.85501 23.7775ZM13.4682 16.8896C13.2113 16.8896 12.9998 16.6781 12.9998 16.421C12.9998 16.164 13.2113 15.9524 13.4682 15.9524H21.8172C22.0741 15.9524 22.2856 16.164 22.2856 16.421C22.2856 16.6781 22.0741 16.8896 21.8172 16.8896H13.4682ZM9.82469 16.1421V19.7733H6.19524V16.1421H9.82469ZM6.07148 15.208H9.94214C10.1661 15.208 10.3682 15.3005 10.5155 15.4494C10.6627 15.5967 10.7567 15.8004 10.7567 16.023V19.8955C10.7567 20.1196 10.6643 20.3218 10.5155 20.4691C10.3682 20.6164 10.1646 20.7105 9.94214 20.7105H6.07148C5.84749 20.7105 5.64541 20.618 5.49816 20.4691C5.35092 20.3171 5.26163 20.1149 5.26163 19.8955V16.023C5.26163 15.7989 5.35405 15.5967 5.50286 15.4494C5.65011 15.3021 5.85375 15.208 6.07618 15.208H6.07148ZM8.85817 16.8724C9.03988 16.6906 9.33594 16.6906 9.51607 16.8724C9.69777 17.0542 9.69777 17.3504 9.51607 17.5306L8.03422 19.0132C7.92457 19.1229 7.77733 19.1777 7.63321 19.1777C7.4891 19.1777 7.34186 19.1229 7.2322 19.0132L6.50225 18.2829C6.32054 18.1011 6.32054 17.8049 6.50225 17.6246C6.68395 17.4428 6.98001 17.4428 7.16014 17.6246L7.63321 18.0979L8.85817 16.8724ZM13.4714 33.778C13.2145 33.778 13.003 33.5664 13.003 33.3094C13.003 33.0523 13.2145 32.8407 13.4714 32.8407H25.5189C25.7758 32.8407 25.9873 33.0523 25.9873 33.3094C25.9873 33.5664 25.7758 33.778 25.5189 33.778H13.4714ZM9.82785 29.9556V33.5868H6.1984V29.9556H9.82785ZM6.07465 29.0215H9.94531C10.1693 29.0215 10.3714 29.114 10.5186 29.2629C10.6659 29.4102 10.7599 29.6139 10.7599 29.8365V33.709C10.7599 33.9331 10.6674 34.1353 10.5186 34.2826C10.3714 34.4299 10.1677 34.524 9.94531 34.524H6.07465C5.85065 34.524 5.64858 34.4315 5.50133 34.2826C5.35408 34.1353 5.2601 33.9316 5.2601 33.709V29.8365C5.2601 29.6124 5.35252 29.4102 5.50133 29.2629C5.64858 29.1155 5.85221 29.0215 6.07465 29.0215ZM8.86134 30.6859C9.04305 30.5041 9.3391 30.5041 9.51924 30.6859C9.70094 30.8677 9.70094 31.1639 9.51924 31.3441L8.03739 32.8267C8.03739 32.8267 7.9998 32.8643 7.97473 32.8768C7.87291 32.9536 7.75543 32.9912 7.63325 32.9912C7.48913 32.9912 7.34189 32.9364 7.23224 32.8267L6.50228 32.0963C6.32058 31.9146 6.32058 31.6184 6.50228 31.4381C6.68399 31.2563 6.98005 31.2563 7.16018 31.4381L7.63325 31.9114L8.85665 30.6874L8.86134 30.6859ZM26.6152 17.6531C28.4056 17.6531 30.1945 18.338 31.5588 19.7015C32.9216 21.0649 33.6062 22.8563 33.6062 24.6475C33.6062 26.4388 32.9217 28.2286 31.5588 29.5936C30.196 30.957 28.4056 31.6419 26.6152 31.6419C24.8248 31.6419 23.0359 30.9571 21.6716 29.5936C20.3088 28.2301 19.6242 26.4388 19.6242 24.6475C19.6242 22.8562 20.3087 21.0665 21.6716 19.7015C23.0343 18.338 24.8248 17.6531 26.6152 17.6531ZM21.0215 19.0291C22.5661 17.487 24.593 16.7144 26.6152 16.7144C27.4172 16.7144 28.2145 16.8366 28.9868 17.078V9.45027H22.2839C22.0474 9.45027 21.8328 9.3531 21.6809 9.20109C21.5242 9.04437 21.4318 8.83436 21.4318 8.59771L21.4349 2.02317H2.72227C2.59539 2.02317 2.4779 2.07332 2.39332 2.16265C2.30873 2.24728 2.2539 2.36482 2.2539 2.49176V37.5314C2.2539 37.6583 2.30403 37.7759 2.39332 37.8605C2.47791 37.9451 2.59539 38 2.72227 38H28.5091C28.636 38 28.7535 37.9498 28.8381 37.8605C28.9227 37.7759 28.9775 37.6583 28.9775 37.5314V32.2106C28.2052 32.452 27.4079 32.5742 26.6059 32.5742C24.7872 32.5742 22.9624 31.9489 21.4898 30.703H13.4648C13.2079 30.703 12.9965 30.4914 12.9965 30.2343C12.9965 29.9773 13.2079 29.7657 13.4648 29.7657H20.5563C19.8216 28.8959 19.3031 27.907 18.9992 26.868H13.4649C13.208 26.868 12.9965 26.6564 12.9965 26.3993C12.9965 26.1423 13.208 25.9307 13.4649 25.9307H18.7875C18.7154 25.5045 18.6826 25.0735 18.6826 24.6378C18.6826 24.3541 18.6998 24.072 18.7295 23.7883H13.4695C13.2126 23.7883 13.0011 23.5768 13.0011 23.3197C13.0011 23.0627 13.2126 22.8511 13.4695 22.8511H18.8895C19.1261 21.8246 19.5647 20.8373 20.2148 19.9534H13.4742C13.2173 19.9534 13.0058 19.7418 13.0058 19.4847C13.0058 19.2277 13.2173 19.0161 13.4742 19.0161H21.0212L21.0215 19.0291ZM32.0601 30.6516L32.6209 30.0906L32.494 29.9637C32.4047 30.0608 32.3123 30.158 32.2199 30.2505C32.1274 30.3429 32.0303 30.437 31.9332 30.5247L32.0601 30.6516ZM37.6068 34.018L35.9856 35.6401L36.0404 35.7122C36.0576 35.7325 36.078 35.7592 36.1077 35.789C36.2769 35.9582 36.5135 36.0381 36.7578 36.0334C37.0241 36.0334 37.2983 35.9363 37.5175 35.767C37.552 35.7419 37.5896 35.7075 37.6319 35.6651C37.6742 35.6228 37.7086 35.5852 37.7337 35.5507C37.9029 35.3313 37.9953 35.0571 38 34.7907C38 34.5462 37.9232 34.3095 37.7556 34.1403C37.7259 34.1105 37.7008 34.0901 37.6789 34.0729L37.6068 34.018ZM35.4076 34.8972L36.8596 33.4444L33.3226 30.7128L32.6772 31.3584L35.4076 34.8972ZM26.615 19.0011C28.0593 19.0011 29.5067 19.5543 30.6079 20.656C31.7091 21.7578 32.262 23.2028 32.262 24.6508C32.262 26.0989 31.7091 27.5439 30.6079 28.6456C29.5067 29.7474 28.0624 30.3006 26.615 30.3006C25.1677 30.3006 23.7234 29.7474 22.6222 28.6456C21.521 27.5439 20.968 26.0989 20.968 24.6508C20.968 23.2028 21.521 21.7578 22.6222 20.656C23.7234 19.5543 25.1677 19.0011 26.615 19.0011ZM21.9625 19.9931C23.2454 18.7096 24.9294 18.0639 26.615 18.0639C28.299 18.0639 29.9829 18.7065 31.2675 19.9931C32.5504 21.2767 33.1958 22.9614 33.1958 24.6479C33.1958 26.3326 32.5536 28.0174 31.2675 29.3027C29.9846 30.5862 28.3007 31.2319 26.615 31.2319C24.9311 31.2319 23.2472 30.5893 21.9625 29.3027C20.6796 28.0191 20.0342 26.3344 20.0342 24.6479C20.0342 22.9632 20.6765 21.2784 21.9625 19.9931ZM29.1338 22.485C29.3155 22.3032 29.6115 22.3032 29.7917 22.485C29.9734 22.6668 29.9734 22.963 29.7917 23.1432L26.203 26.7336C26.0635 26.8731 25.8818 26.9405 25.697 26.9405C25.5106 26.9405 25.3336 26.8684 25.1942 26.7336L23.4304 24.969C23.2487 24.7872 23.2487 24.491 23.4304 24.3108C23.6121 24.129 23.9081 24.129 24.0883 24.3108L25.697 25.9203L29.1291 22.4865L29.1338 22.485ZM13.1732 4.57477L12.9712 3.62034H11.7431L11.541 4.57477C11.5034 4.75656 11.364 4.88664 11.1995 4.92896C11.0679 4.96657 10.9426 5.01359 10.8157 5.06374C10.6842 5.11859 10.5588 5.17814 10.4351 5.24553C10.2784 5.33016 10.0967 5.31762 9.95733 5.22829L9.13807 4.69545L8.26868 5.56526L8.80126 6.38493C8.90308 6.53695 8.89838 6.72658 8.81379 6.87548C8.75113 6.99302 8.69161 7.11683 8.64148 7.2422C8.58666 7.36915 8.53966 7.50393 8.50207 7.64341C8.45194 7.81267 8.31253 7.93491 8.15118 7.96782L7.19722 8.16999V9.39868L8.15118 9.60085C8.33289 9.63846 8.4629 9.77795 8.5052 9.9425C8.54279 10.0741 8.58979 10.1995 8.63991 10.3265C8.69474 10.4581 8.75426 10.5835 8.82162 10.7073C8.90621 10.864 8.89368 11.0458 8.80439 11.1853L8.27181 12.005L9.14119 12.8748L9.96046 12.3419C10.1124 12.2401 10.3019 12.2448 10.4508 12.3294C10.5683 12.3921 10.692 12.4516 10.8173 12.5018C10.9442 12.5566 11.0789 12.6037 11.2183 12.6413C11.3875 12.6914 11.5097 12.8309 11.5426 12.9923L11.7446 13.9467H12.9727L13.1748 12.9923C13.2124 12.8105 13.3471 12.6804 13.5163 12.6381C13.6432 12.6005 13.7701 12.5535 13.8969 12.5034C13.9048 12.5034 13.9142 12.4987 13.9173 12.4955C14.0395 12.4454 14.1617 12.3858 14.276 12.3231C14.4327 12.2385 14.6144 12.251 14.7538 12.3404L15.573 12.8732L16.4424 12.0034L15.9098 11.1837C15.808 11.0317 15.8127 10.8421 15.8973 10.6932C15.96 10.5756 16.0195 10.4518 16.0696 10.3265C16.1244 10.1995 16.1714 10.0647 16.209 9.92525C16.2592 9.75599 16.3986 9.63375 16.5599 9.60083L17.5139 9.39866V8.16997L16.5599 7.9678C16.3782 7.93019 16.2482 7.79071 16.2059 7.62615C16.1683 7.4945 16.1213 7.36913 16.0712 7.24219C16.0164 7.11054 15.9568 6.98517 15.8895 6.86135C15.8049 6.70463 15.8174 6.52284 15.9067 6.38336L16.4393 5.5637L15.5699 4.69388L14.7506 5.22673C14.5987 5.3286 14.4092 5.32389 14.2603 5.23926C14.1428 5.17657 14.0191 5.11702 13.8938 5.06687C13.7669 5.01202 13.6322 4.965 13.4928 4.92739C13.3236 4.87724 13.2014 4.73775 13.1685 4.57633L13.1732 4.57477Z" fill="white"/>
</svg>
