<svg width="32" height="32" viewBox="0 0 32 32" fill="none" xmlns="http://www.w3.org/2000/svg">
<rect width="32" height="32" rx="4" fill="#343434"/>
<path d="M9 22V23V9V22ZM9.30775 24.5C8.80908 24.5 8.38308 24.3234 8.02975 23.9703C7.67658 23.6169 7.5 23.1909 7.5 22.6923V9.30775C7.5 8.80908 7.67658 8.38308 8.02975 8.02975C8.38308 7.67658 8.80908 7.5 9.30775 7.5H22.6923C23.1909 7.5 23.6169 7.67658 23.9703 8.02975C24.3234 8.38308 24.5 8.80908 24.5 9.30775V12.029H23V9.30775C23 9.21792 22.9712 9.14417 22.9135 9.0865C22.8558 9.02883 22.7821 9 22.6923 9H9.30775C9.21792 9 9.14417 9.02883 9.0865 9.0865C9.02883 9.14417 9 9.21792 9 9.30775V22.6923C9 22.7821 9.02883 22.8558 9.0865 22.9135C9.14417 22.9712 9.21792 23 9.30775 23H22.6923C22.7821 23 22.8558 22.9712 22.9135 22.9135C22.9712 22.8558 23 22.7821 23 22.6923V19.971H24.5V22.6923C24.5 23.1909 24.3234 23.6169 23.9703 23.9703C23.6169 24.3234 23.1909 24.5 22.6923 24.5H9.30775ZM17.3077 20.5C16.8091 20.5 16.3831 20.3234 16.0297 19.9703C15.6766 19.6169 15.5 19.1909 15.5 18.6923V13.3078C15.5 12.8091 15.6766 12.3831 16.0297 12.0298C16.3831 11.6766 16.8091 11.5 17.3077 11.5H23.6923C24.1909 11.5 24.6169 11.6766 24.9703 12.0298C25.3234 12.3831 25.5 12.8091 25.5 13.3078V18.6923C25.5 19.1909 25.3234 19.6169 24.9703 19.9703C24.6169 20.3234 24.1909 20.5 23.6923 20.5H17.3077ZM23.6923 19C23.7821 19 23.8558 18.9712 23.9135 18.9135C23.9712 18.8558 24 18.7821 24 18.6923V13.3078C24 13.2179 23.9712 13.1442 23.9135 13.0865C23.8558 13.0288 23.7821 13 23.6923 13H17.3077C17.2179 13 17.1442 13.0288 17.0865 13.0865C17.0288 13.1442 17 13.2179 17 13.3078V18.6923C17 18.7821 17.0288 18.8558 17.0865 18.9135C17.1442 18.9712 17.2179 19 17.3077 19H23.6923ZM20 17.5C20.4167 17.5 20.7708 17.3542 21.0625 17.0625C21.3542 16.7708 21.5 16.4167 21.5 16C21.5 15.5833 21.3542 15.2292 21.0625 14.9375C20.7708 14.6458 20.4167 14.5 20 14.5C19.5833 14.5 19.2292 14.6458 18.9375 14.9375C18.6458 15.2292 18.5 15.5833 18.5 16C18.5 16.4167 18.6458 16.7708 18.9375 17.0625C19.2292 17.3542 19.5833 17.5 20 17.5Z" fill="white"/>
</svg>
