<svg width="48" height="48" viewBox="0 0 48 48" fill="none" xmlns="http://www.w3.org/2000/svg">
<g clip-path="url(#clip0_568_362)">
<path d="M38.3771 17.4853L23.5038 10.0487C23.1867 9.89001 22.8133 9.89001 22.4961 10.0487L7.62287 17.4853C7.24113 17.6762 7 18.0663 7 18.4932V38.9439C7 39.5661 7.50446 40.0706 8.12679 40.0706H11.8451C12.4674 40.0706 12.9719 39.5662 12.9719 38.9439V21.4791H33.0283V38.9439C33.0283 39.5661 33.5327 40.0706 34.1551 40.0706H37.8734C38.4957 40.0706 39.0002 39.5662 39.0002 38.9439V18.4932C39 18.0663 38.7589 17.6762 38.3771 17.4853ZM36.7465 37.8171H35.2818V20.3523C35.2818 19.7301 34.7773 19.2255 34.155 19.2255H11.845C11.2228 19.2255 10.7182 19.73 10.7182 20.3523V37.8171H9.25347V19.1895L23 12.3163L36.7465 19.1895V37.8171Z" fill="white"/>
<path d="M30.4373 23.2817H23.0007C22.5651 23.2817 22.212 23.6348 22.212 24.0704V30.7183H15.5641C15.1285 30.7183 14.7754 31.0714 14.7754 31.507V38.9436C14.7754 39.3792 15.1285 39.7323 15.5641 39.7323H30.4373C30.8729 39.7323 31.226 39.3792 31.226 38.9436V24.0705C31.2261 23.6348 30.8729 23.2817 30.4373 23.2817ZM23.7894 33.4114L25.6035 35.2255L23.7894 37.0396V33.4114ZM22.212 37.0395L20.3979 35.2254L22.212 33.4113V37.0395ZM24.905 32.2958H28.533L26.7189 34.1099L24.905 32.2958ZM24.905 30.7183L26.719 28.9043L28.5331 30.7183H24.905ZM29.6486 29.6029L27.8346 27.7888L29.6486 25.9747V29.6029ZM26.719 26.6733L24.905 24.8592H28.533L26.719 26.6733ZM25.6035 27.7888L23.7894 29.6029V25.9748L25.6035 27.7888ZM19.2823 34.1099L17.4682 32.2958H21.0963L19.2823 34.1099ZM18.1669 35.2254L16.3528 37.0395V33.4114L18.1669 35.2254ZM19.2823 36.341L21.0964 38.1551H17.4683L19.2823 36.341ZM26.7189 36.341L28.533 38.1551H24.905L26.7189 36.341ZM27.8345 35.2254L29.6486 33.4113V37.0394L27.8345 35.2254Z" fill="white"/>
</g>
<defs>
<clipPath id="clip0_568_362">
<rect width="32" height="32" fill="white" transform="translate(7 9)"/>
</clipPath>
</defs>
</svg>
