<svg width="48" height="44" viewBox="0 0 48 44" fill="none" xmlns="http://www.w3.org/2000/svg">
<path d="M12.5952 17.8301H17.3694V21.75H12.5952V17.8301ZM12.5952 26.964H17.3694V23.0441H12.5952V26.964ZM12.5952 32.1655H17.3694V28.2455H12.5952V32.1655ZM37.3341 12.9553L21.1606 5.46729L5 12.9805L6.00844 15.0535L8.06363 14.0861V32.178H10.3869V14.0107H31.9599V19.5256H34.2832V14.1112L36.3384 15.0535L37.3341 12.9553Z" fill="white"/>
<path d="M35.3564 36.1048C39.7424 33.2746 40.4824 28.7635 37.3839 23.9617L36.0962 21.9662C34.9158 20.1369 33.3148 19.5948 32.3274 20.232C32.0988 20.3795 32.0582 20.5676 32.199 20.7859L32.7691 21.6693C33.0374 22.0851 32.9533 22.4338 32.7038 22.5948C32.4336 22.7691 32.0916 22.6954 31.8233 22.2796L31.4477 21.6976C30.7569 20.6271 29.6045 20.3697 28.6795 20.9666C28.2534 21.2415 28.1803 21.5389 28.4083 21.8923L29.1863 23.098C29.4546 23.5137 29.3808 23.8557 29.1314 24.0167C28.8611 24.1911 28.5087 24.124 28.2405 23.7083L27.5229 22.5962C26.7449 21.3905 25.6693 21.2749 24.7754 21.8517C24.3701 22.1133 24.283 22.4345 24.5043 22.7774L26.0267 25.1368C26.295 25.5525 26.2108 25.9012 25.9614 26.0622C25.6911 26.2366 25.3492 26.1628 25.0809 25.7471L19.9302 17.7649C19.4339 16.9958 18.6027 16.8255 17.9583 17.2413C17.2619 17.6907 17.0953 18.5048 17.5916 19.2739L25.2372 31.1225C25.4116 31.3927 25.3392 31.6455 25.1729 31.7528C24.9962 31.8668 24.7977 31.833 24.5053 31.6537L20.1124 28.747C19.3512 28.2519 18.5831 28.4531 18.1731 29.0268C17.7772 29.5767 17.8329 30.4387 18.6135 31.0097L23.9922 34.9878C28.4818 38.3179 32.0096 38.2643 35.3564 36.1048Z" fill="white"/>
</svg>
