<svg width="56" height="56" viewBox="0 0 56 56" fill="none" xmlns="http://www.w3.org/2000/svg">
<circle cx="28" cy="28" r="28" fill="#1DB765"/>
<path d="M27.9993 35.8845C28.3807 35.8845 28.7005 35.7555 28.9585 35.4975C29.2166 35.2394 29.3456 34.9197 29.3456 34.5383C29.3456 34.1569 29.2166 33.8372 28.9585 33.5791C28.7005 33.3213 28.3807 33.1925 27.9993 33.1925C27.618 33.1925 27.2982 33.3213 27.0402 33.5791C26.7821 33.8372 26.6531 34.1569 26.6531 34.5383C26.6531 34.9197 26.7821 35.2394 27.0402 35.4975C27.2982 35.7555 27.618 35.8845 27.9993 35.8845ZM26.7493 29.795H29.2493V19.795H26.7493V29.795ZM28.0023 43.8333C25.8123 43.8333 23.7538 43.4177 21.8268 42.5866C19.8999 41.7555 18.2238 40.6276 16.7985 39.2029C15.3732 37.7782 14.2448 36.1027 13.4131 34.1766C12.5817 32.2505 12.166 30.1926 12.166 28.0029C12.166 25.8129 12.5816 23.7544 13.4127 21.8275C14.2438 19.9005 15.3717 18.2244 16.7964 16.7991C18.2212 15.3738 19.8966 14.2454 21.8227 13.4137C23.7488 12.5823 25.8067 12.1666 27.9964 12.1666C30.1864 12.1666 32.2449 12.5822 34.1718 13.4133C36.0988 14.2444 37.7749 15.3723 39.2002 16.797C40.6255 18.2218 41.7539 19.8972 42.5856 21.8233C43.417 23.7494 43.8327 25.8073 43.8327 27.997C43.8327 30.187 43.4171 32.2455 42.586 34.1725C41.7549 36.0994 40.627 37.7755 39.2023 39.2008C37.7775 40.6261 36.1021 41.7545 34.176 42.5862C32.2499 43.4176 30.192 43.8333 28.0023 43.8333ZM27.9993 41.3333C31.7216 41.3333 34.8743 40.0416 37.4577 37.4583C40.041 34.875 41.3327 31.7222 41.3327 28C41.3327 24.2777 40.041 21.125 37.4577 18.5416C34.8743 15.9583 31.7216 14.6666 27.9993 14.6666C24.2771 14.6666 21.1243 15.9583 18.541 18.5416C15.9577 21.125 14.666 24.2777 14.666 28C14.666 31.7222 15.9577 34.875 18.541 37.4583C21.1243 40.0416 24.2771 41.3333 27.9993 41.3333Z" fill="white"/>
</svg>
