<svg width="190" height="61" viewBox="0 0 190 61" fill="none" xmlns="http://www.w3.org/2000/svg">
<path d="M82.0484 45.1865H78.0198V56.2612H81.9993C85.8805 56.2612 87.6001 54.1584 87.6001 50.4668C87.6492 46.8687 85.6349 45.1865 82.0484 45.1865ZM82.1467 54.9995H79.5919V46.4014H82.1958C85.0453 46.4014 86.0771 47.9902 86.0771 50.6537C86.0771 54.7191 83.2275 54.9995 82.1467 54.9995Z" fill="white"/>
<path d="M94.8713 52.7566C94.8713 54.2052 94.0361 55.2799 92.3657 55.2799C91.2848 55.2799 90.6461 54.6257 90.6461 53.6444V48.2239H89.2705V53.5042C89.2705 55.2332 89.9583 56.4482 92.1692 56.4482C93.3974 56.4482 94.3309 55.9809 94.9204 54.9996H94.9696V56.2612H96.2469V48.2239H94.8713V52.7566Z" fill="white"/>
<path d="M102.536 48.0373C101.356 48.0373 100.325 48.4111 99.8335 49.2989H99.7843V45.1401H98.4087V56.2148H99.7843V55.14H99.8335C100.472 56.0746 101.7 56.4017 102.536 56.4017C105.09 56.4017 106.368 54.4858 106.368 52.2429C106.417 49.9999 105.09 48.0373 102.536 48.0373ZM102.388 55.2802C100.472 55.2802 99.7352 53.8316 99.7352 52.2429C99.7352 50.7475 100.472 49.2055 102.29 49.2055C104.108 49.2055 104.894 50.6541 104.894 52.1494C104.943 53.7382 104.304 55.2802 102.388 55.2802Z" fill="white"/>
<path d="M114.622 54.3921V50.28C114.622 48.4108 112.951 48.0837 111.477 48.0837C109.61 48.0837 107.989 48.7847 107.891 50.7473H109.266C109.316 49.5791 110.2 49.2052 111.379 49.2052C112.263 49.2052 113.246 49.3921 113.246 50.5604C113.246 51.5417 111.919 51.4482 110.396 51.7286C108.972 52.009 107.547 52.3828 107.547 54.2052C107.547 55.794 108.824 56.4482 110.347 56.4482C111.526 56.4482 112.558 56.0744 113.295 55.1865C113.295 56.0744 113.737 56.4482 114.474 56.4482C114.916 56.4482 115.211 56.3547 115.457 56.2146V55.1865C115.26 55.2333 115.162 55.28 115.015 55.28C114.622 55.28 114.622 54.9996 114.622 54.3921ZM113.246 53.4576C113.246 54.2052 112.509 55.28 110.691 55.28C109.856 55.28 109.07 54.9529 109.07 54.1118C109.07 53.1305 109.856 52.8034 110.789 52.6632C111.723 52.523 112.755 52.4763 113.295 52.1024V53.4576H113.246Z" fill="white"/>
<path d="M118.257 48.2239H116.881V56.2612H118.257V48.2239Z" fill="white"/>
<path d="M118.257 45.1865H116.881V46.822H118.257V45.1865Z" fill="white"/>
<path d="M130.097 55.28C127.297 55.28 126.118 53.1772 126.118 50.6539C126.118 48.3642 127.297 46.1679 130.048 46.1679C131.669 46.1679 132.996 46.9623 133.291 48.5043H134.863C134.519 46.1679 132.505 44.9062 130.048 44.9062C126.462 44.9062 124.546 47.523 124.546 50.7473C124.546 53.9716 126.314 56.495 129.95 56.495C132.898 56.495 134.716 54.8127 135.01 52.0557H133.438C133.34 53.9249 132.161 55.28 130.097 55.28Z" fill="white"/>
<path d="M142.281 52.7566C142.281 54.2052 141.446 55.2799 139.776 55.2799C138.695 55.2799 138.056 54.6257 138.056 53.6444V48.2239H136.681V53.5042C136.681 55.2332 137.368 56.4482 139.579 56.4482C140.808 56.4482 141.741 55.9809 142.331 54.9996H142.38V56.2612H143.706V48.2239H142.331V52.7566H142.281Z" fill="white"/>
<path d="M149.651 51.6355C148.374 51.3551 146.9 51.1682 146.9 50.2336C146.9 49.4392 147.882 49.2056 148.717 49.2056C149.651 49.2056 150.584 49.5327 150.683 50.5607H152.058C151.96 48.5981 150.437 48.0374 148.619 48.0374C147.145 48.0374 145.475 48.6916 145.475 50.3271C145.475 51.8691 146.85 52.2897 148.226 52.57C149.602 52.8504 150.977 53.0373 150.977 54.0654C150.977 55.0934 149.798 55.2803 148.963 55.2803C147.833 55.2803 146.752 54.9065 146.703 53.7383H145.327C145.426 55.7009 146.998 56.4485 148.914 56.4485C150.633 56.4485 152.5 55.8411 152.5 53.9252C152.402 52.3364 151.027 51.9158 149.651 51.6355Z" fill="white"/>
<path d="M155.841 45.8407H154.466V48.2239H153.041V49.3921H154.466V54.4856C154.466 55.9809 155.055 56.2145 156.48 56.2145H157.561V55.0463H156.922C156.038 55.0463 155.89 54.9529 155.89 54.3454V49.3454H157.561V48.1772H155.89V45.8407H155.841Z" fill="white"/>
<path d="M162.719 48.0374C160.066 48.0374 158.642 49.8598 158.642 52.2429C158.642 54.5794 160.066 56.4485 162.719 56.4485C165.373 56.4485 166.797 54.6261 166.797 52.2429C166.797 49.9065 165.373 48.0374 162.719 48.0374ZM162.719 55.2803C161.246 55.2803 160.116 54.2056 160.116 52.2429C160.116 50.2803 161.295 49.2056 162.719 49.2056C164.193 49.2056 165.323 50.2803 165.323 52.2429C165.323 54.2056 164.144 55.2803 162.719 55.2803Z" fill="white"/>
<path d="M177.459 48.0374C176.378 48.0374 175.395 48.5514 174.806 49.3925C174.462 48.4112 173.528 48.0374 172.496 48.0374C171.317 48.0374 170.384 48.5046 169.794 49.3925H169.745V48.2243H168.419V56.2616H169.794V51.2616C169.794 50.6542 170.384 49.2056 172.054 49.2056C173.282 49.2056 173.626 49.9532 173.626 50.9813V56.2149H175.002V51.2149C175.002 49.9532 175.886 49.1588 177.213 49.1588C178.589 49.1588 178.834 49.9532 178.834 50.9345V56.1682H180.21V50.2803C180.259 48.6916 179.129 48.0374 177.459 48.0374Z" fill="white"/>
<path d="M186.204 51.6355C184.926 51.3551 183.452 51.1682 183.452 50.2336C183.452 49.4392 184.435 49.2056 185.27 49.2056C186.204 49.2056 187.137 49.5327 187.235 50.5607H188.611C188.513 48.5981 186.99 48.0374 185.172 48.0374C183.698 48.0374 182.028 48.6916 182.028 50.3271C182.028 51.8691 183.403 52.2897 184.779 52.57C186.155 52.8504 187.53 53.0373 187.53 54.0654C187.53 55.0934 186.351 55.2803 185.516 55.2803C184.386 55.2803 183.305 54.9065 183.256 53.7383H181.88C181.979 55.7009 183.551 56.4485 185.467 56.4485C187.186 56.4485 189.053 55.8411 189.053 53.9252C188.955 52.3364 187.579 51.9158 186.204 51.6355Z" fill="white"/>
<path d="M83.8172 43.0372C83.8172 42.5231 83.5224 42.2428 82.982 42.2428C82.4416 42.2428 82.1468 42.5231 82.1468 43.0372C82.1468 43.5512 82.3924 43.8315 82.982 43.8315C83.5716 43.8315 83.8172 43.5512 83.8172 43.0372Z" fill="white"/>
<path d="M81.1151 43.0372C81.1151 42.5231 80.8694 42.2428 80.2798 42.2428C79.7394 42.2428 79.4446 42.5231 79.4446 43.0372C79.4446 43.5512 79.7394 43.8315 80.2798 43.8315C80.8694 43.8315 81.1151 43.5512 81.1151 43.0372Z" fill="white"/>
<path d="M110.003 32.8501V27.5698L108.628 28.0371V32.7099C108.628 34.2053 107.94 34.9062 106.515 34.9062H105.876H105.533H102.634H102.143H99.3913H98.9H96.247H95.7557H93.0044H92.5131H89.7619H89.2706H86.2737H86.028H85.1437C84.1611 34.9062 83.4733 34.3454 83.0311 33.224L82.4907 34.5791C82.8346 35.5137 83.5715 36.1211 84.9963 36.1211C84.898 37.7099 83.375 38.4576 81.4098 38.4576C79.0025 38.4576 77.9216 36.7286 77.9216 34.4389C77.9216 33.4109 78.1672 31.9155 78.8551 30.1866L77.3812 31.1679C76.8899 32.4763 76.5951 33.6912 76.5951 34.766C76.5951 37.6165 78.3146 39.7193 81.4098 39.7193C84.505 39.7193 86.3719 38.1305 86.3719 36.0744H89.3688H89.8601H92.6114H93.1027H95.7557H96.247H98.9983H99.4896H102.241H102.732H105.631H105.975H106.712C108.677 36.1211 110.003 34.8127 110.003 32.8501Z" fill="white"/>
<path d="M108.775 39.3923C108.775 38.8783 108.529 38.5979 107.94 38.5979C107.399 38.5979 107.105 38.8783 107.105 39.3923C107.105 39.9063 107.399 40.1867 107.94 40.1867C108.48 40.1867 108.775 39.9063 108.775 39.3923Z" fill="white"/>
<path d="M115.408 27.9904C114.376 28.0371 113.442 28.4577 112.755 29.2053V30.7941C113.442 29.8595 114.376 29.2053 115.408 29.2053C116.636 29.2053 117.569 29.9063 117.569 31.4016V34.9062H112.558L111.723 36.1212H118.945V31.3081C118.945 29.2521 117.52 27.9436 115.408 27.9904Z" fill="white"/>
<path d="M133.143 29.6728H130.048V29.0186C130.048 28.3177 130.54 27.7102 131.227 27.7102C131.571 27.7102 131.866 27.8971 132.21 28.1775L132.898 27.5233C132.406 27.056 131.915 26.8691 131.375 26.8691C129.95 26.8691 129.115 27.8971 129.115 29.2055V29.6728H128.181L127.346 30.5139H133.094V29.6728H133.143Z" fill="white"/>
<path d="M137.319 23.9718L135.993 24.3924V32.7101C135.993 34.2054 135.256 34.9063 133.88 34.9063H127.395C125.97 34.9063 125.233 34.2054 125.233 32.7101V28.7849L123.907 30.3737V32.8503C123.907 34.8596 125.184 36.1213 127.149 36.1213H133.979C135.944 36.1213 137.368 34.8596 137.368 32.8503V23.9718H137.319Z" fill="white"/>
<path d="M142.822 35.6073C142.822 37.196 141.987 38.5979 140.267 38.5979C139.579 38.5979 138.695 38.5045 137.713 37.9437L138.351 39.2988C138.99 39.5792 139.874 39.7194 140.415 39.7194C143.166 39.7194 144.247 37.7568 144.198 35.3269V27.6166L142.871 28.0372V35.6073H142.822Z" fill="white"/>
<path d="M186.302 39.3923C186.302 38.8783 186.056 38.5979 185.466 38.5979C184.926 38.5979 184.631 38.8783 184.631 39.3923C184.631 39.9063 184.926 40.1867 185.466 40.1867C186.056 40.1867 186.302 39.9063 186.302 39.3923Z" fill="white"/>
<path d="M185.27 27.4765C183.943 27.4765 182.666 28.0372 181.389 29.1587L182.273 30.0466C183.256 29.1587 184.337 28.6914 185.27 28.6914C188.267 28.6914 188.414 31.2148 188.463 33.6914V34.9531H179.915H179.718H178.785C177.311 34.9531 176.623 34.2054 176.623 32.7101C176.427 30.5606 175.346 29.2522 173.135 29.2522C170.678 29.2522 169.647 30.8877 169.598 33.1307C169.45 34.2989 168.713 34.9531 167.485 34.9531H166.895H166.552H163.653H163.162H160.41H159.919H157.168H156.676H153.925H153.434H150.535H150.191H148.619C147.882 34.9531 147.538 34.5792 147.538 33.7849V23.9718L146.163 24.3456V33.7849C146.163 35.3269 146.949 36.1213 148.423 36.1213H150.191H150.535H153.434H153.925H156.676H157.168H159.919H160.41H163.162H163.653H166.552H166.895H167.632C168.566 36.1213 169.401 35.8409 169.991 35.3269C170.531 36.6353 171.514 37.3362 173.184 37.3362C174.805 37.3362 175.935 36.5419 176.378 35.14C177.065 35.7942 177.851 36.0746 178.932 36.0746H179.718H179.915H189.888V33.2241C189.888 30.4204 189.299 27.4765 185.27 27.4765ZM173.135 36.168C171.612 36.168 171.022 35.2334 171.022 33.2708C171.022 31.3082 171.661 30.4204 173.135 30.4204C174.658 30.4204 175.198 31.3082 175.198 33.2708C175.198 35.2334 174.609 36.168 173.135 36.168Z" fill="white"/>
<path d="M56.96 49.7661C56.96 49.7661 59.2691 46.2615 51.7522 44.8596C43.6949 43.3643 35.5394 44.1587 29.2508 46.8222C22.9622 49.5325 21.1935 48.6914 21.1935 48.6914C21.1935 48.6914 25.0256 47.0091 36.5711 50.0932C44.6284 52.2427 53.0787 51.8222 54.4543 51.2147C55.83 50.6072 56.96 49.7661 56.96 49.7661Z" fill="white"/>
<path d="M13.7255 34.6261C12.2025 33.3645 9.10729 30.4673 7.48601 25.7477C6.99472 24.2991 6.06125 21.5421 6.55255 18.1309C7.33863 12.4767 11.2199 7.33649 11.2199 7.38322C10.139 8.17761 1.05001 15.2804 1.29566 25.4673C1.39392 30.8411 4.19433 35.5607 4.68563 36.3551C6.15952 38.785 7.68254 40.327 9.1073 41.7289C14.8064 47.4298 20.8493 50.2803 23.8462 51.6354C27.1871 53.1775 30.0857 54.0653 31.5105 54.4859C33.9178 55.2335 35.49 55.5606 38.4869 56.2149C42.7612 57.1494 44.7264 57.3831 46.8881 57.056C47.4285 56.9625 48.1654 56.7756 48.7059 56.4485C51.5554 54.7195 54.7488 52.3364 56.9105 49.7195V49.6728C50.1306 49.0653 44.2351 48.084 40.1082 47.1027C35.7356 46.0747 31.9526 45.1401 27.3344 43.084C21.2915 40.5607 16.8207 37.2897 13.7255 34.6261Z" fill="white"/>
<path d="M25.0746 30.7008C23.5516 31.6821 25.0255 33.8784 26.5977 33.0373C26.9416 32.8504 27.3346 32.6635 27.6294 32.4765C31.2159 30.6541 38.4871 29.1121 46.7409 30.6541C54.6016 32.1494 58.4829 32.056 61.1359 31.1681C62.708 30.6074 63.9363 28.785 63.9363 28.785C63.9363 28.785 64.3293 25.5139 55.2403 24.6261C48.2148 23.9719 34.9006 24.5326 25.0746 30.7008Z" fill="white"/>
<path d="M58.8759 14.6263C59.0233 14.2525 58.925 13.8786 58.6794 13.5515C57.9424 12.8039 56.0264 11.4487 52.7347 11.0749C49.1973 10.6544 40.2557 9.48614 29.9876 13.3179C28.6611 13.8319 30.8228 15.6543 32.1493 15.2338L30.8228 15.5609C30.8228 15.5609 28.4155 15.2338 36.2762 15.7945C42.6631 16.2618 49.5904 18.131 53.1768 17.7571C56.3703 17.43 58.2372 16.2618 58.8759 14.6263Z" fill="white"/>
<path d="M27.7766 57.8502C33.5248 56.1679 37.4552 56.7754 39.666 57.4296C40.1082 57.5698 42.6629 58.2707 42.5646 58.9717C42.5155 59.5791 40.4029 59.9997 38.0447 60.4203C37.1112 60.6072 36.4234 60.7006 35.3426 60.8408C30.5279 61.3081 26.4992 60.6072 25.9588 60.5137C25.6149 60.467 22.618 59.8595 19.5228 58.5978C15.445 56.9156 6.55253 52.0558 2.27824 42.0091C-0.374765 35.7942 -0.178241 30.14 0.263927 26.9624C0.116537 29.953 0.0674062 39.9063 7.24035 47.8969C11.7603 52.9436 17.7541 55.6072 19.9158 56.5885C20.9967 57.0558 23.5514 58.1305 26.9414 58.9249C30.577 59.766 33.0335 59.766 34.4582 59.6726C35.883 59.5791 38.1921 59.2988 38.1921 58.9249C38.1921 58.5044 35.3426 58.0838 34.7039 58.0371C32.9352 57.7567 30.6261 57.6165 27.7766 57.8502Z" fill="white"/>
<path d="M39.8133 3.598C39.6659 3.69146 38.7816 4.15875 38.6342 5.0466C38.5359 5.60734 38.7325 6.07463 38.8307 6.26155C39.2238 7.10266 40.0098 7.66341 41.0416 8.08397C41.4346 8.27089 43.0067 8.92509 46.7897 9.25219C47.7723 9.34565 49.0988 9.34565 50.671 9.25219C52.4888 9.15873 53.3731 9.06528 53.5697 8.69145C54.1101 7.52322 49.3445 4.48585 49.0497 4.29893C48.2636 3.78492 45.2176 1.96249 41.2872 1.1681C39.9116 0.88773 38.2412 0.607358 37.6025 0.5139C37.4551 0.5139 36.0303 0.280256 34.2125 0.186798C34.1143 0.186798 38.2903 1.1681 40.1081 1.63539C40.8942 1.82231 41.8768 2.10268 42.9085 2.47651C43.5963 2.71015 44.0385 2.9438 45.0211 3.36436C46.495 4.06529 47.2319 4.48585 47.9197 5.09333C48.3619 5.51388 48.6075 5.74753 48.5584 5.98117C48.4602 6.63538 46.5441 6.96248 45.2176 7.00921C43.7437 7.00921 40.5503 6.68211 40.2064 5.09333C39.9607 4.01856 42.0242 3.03726 42.6137 3.03726C44.628 3.08399 41.3363 2.85034 39.8133 3.598Z" fill="white"/>
<path d="M54.1102 16.2618C53.275 16.402 52.4889 16.5889 51.6046 16.5889C50.3272 16.6356 49.0007 16.7291 46.9373 16.5889C43.793 16.3552 41.3365 15.9347 40.5995 15.7945C34.7531 14.7197 31.8544 14.1123 29.0049 12.0562C26.6958 10.3739 26.2536 9.01881 26.1554 8.17769C25.9589 6.7291 26.6467 5.51415 26.9906 4.9534C28.1206 2.99079 30.0858 2.05621 30.921 1.68238C31.4614 1.44874 31.9036 1.30855 32.1984 1.16837C30.9701 1.26182 29.9384 1.49547 29.2014 1.72911C28.661 1.8693 27.7767 2.14967 26.6958 2.66369C25.6641 3.17771 24.878 3.73845 24.2885 4.20574C23.6006 4.76649 22.2741 5.93471 21.832 7.75713C21.2424 10.0936 22.3724 12.1029 22.8637 12.9908C27.3345 20.9814 43.9404 22.944 45.8073 23.1776C48.2146 23.5047 50.2781 23.6449 51.8011 23.7384C57.6476 24.0655 60.2514 23.5982 61.5779 23.2711C62.1675 23.1309 62.7079 22.944 63.0027 22.7571C63.0027 22.7571 62.0201 18.4113 58.7284 13.645C59.318 14.5328 56.4193 15.8412 54.1102 16.2618Z" fill="white"/>
<path d="M46.9865 29.299C30.9702 25.3738 22.1269 19.8598 18.6878 15.1869C15.2978 10.5607 15.5926 2.00934 30.6263 0.0467288C30.6754 0.0467288 30.6754 0 30.6263 0C27.9242 0.0467288 14.6591 0.887848 11.1709 11.2149C6.40534 25.327 30.7737 37.056 35.048 38.7382C39.3714 40.4672 50.3273 45.1868 60.8902 42.4298C61.2833 42.3363 61.6272 41.9625 61.8237 41.6354C64.4276 36.3083 63.9363 28.9251 63.9363 28.6915C63.9363 28.5046 57.5003 31.8691 46.9865 29.299Z" fill="white"/>
</svg>
